<?xml version="1.0" encoding="utf-8"?>
<!-- Generator: Adobe Illustrator 22.0.0, SVG Export Plug-In . SVG Version: 6.00 Build 0)  -->
<svg version="1.1" id="Layer_1" xmlns="http://www.w3.org/2000/svg" xmlns:xlink="http://www.w3.org/1999/xlink" x="0px" y="0px"
	 viewBox="0 0 108 108" style="enable-background:new 0 0 108 108;" xml:space="preserve">
<g>
	<path d="M45.3,4.2c-1.7,0-3.1,1.3-3.1,3v19.9c0,2.9-1.8,5.4-4.4,6.6V7.2c0-1.6-1.4-3-3.1-3c-1.7,0-3.1,1.3-3.1,3v26.5
		c-2.6-1.1-4.4-3.7-4.4-6.6V7.2c0-1.6-1.4-3-3.1-3s-3.1,1.3-3.1,3v19.9c0,5.6,3.6,10.4,8.7,12.3v59.7c0,2.6,2.2,4.8,4.9,4.8
		s4.9-2.1,4.9-4.8V39.4c5.1-1.9,8.7-6.7,8.7-12.3V7.2C48.3,5.6,47,4.2,45.3,4.2z"/>
	<path d="M86.8,4.2c-11.4,0-20.6,8.9-20.6,20v18.7c0,8,4.3,15.1,10.8,19.1v37.1c0,2.6,2.2,4.8,4.9,4.8c2.7,0,4.9-2.1,4.9-4.8V65.5
		V31.3L86.8,4.2L86.8,4.2z"/>
</g>
</svg>
