<?xml version="1.0" encoding="utf-8"?>
<!-- Generator: Adobe Illustrator 22.0.0, SVG Export Plug-In . SVG Version: 6.00 Build 0)  -->
<svg version="1.1" id="Layer_1" xmlns="http://www.w3.org/2000/svg" xmlns:xlink="http://www.w3.org/1999/xlink" x="0px" y="0px"
	 viewBox="0 0 108 108" style="enable-background:new 0 0 108 108;" xml:space="preserve">
<path d="M100.3,34.2c0-7.1-5.8-12.9-12.9-12.9s-12.9,5.8-12.9,12.9c0,6.2,4.4,11.4,10.2,12.6v33.1c0,10-8.1,18.1-18.1,18.1h-5.8
	c-10,0-18.1-8.1-18.1-18.1V64.5h3.2c13.3,0,24.1-10.8,24.1-24.1V13.6c1.4-0.9,2.3-2.5,2.3-4.3c0-2.9-2.4-5.3-5.3-5.3
	c-2.9,0-5.3,2.4-5.3,5.3c0,1.8,0.9,3.4,2.2,4.3v26.8c0,10-8.1,18.1-18.1,18.1H33.8c-10,0-18.1-8.1-18.1-18.1V13.7
	c1.5-0.9,2.5-2.6,2.5-4.4C18.2,6.4,15.9,4,13,4S7.7,6.4,7.7,9.3c0,1.7,0.8,3.2,2,4.1v27c0,13.3,10.8,24.1,24.1,24.1h2.8v15.5
	c0,13.3,10.8,24.1,24.1,24.1h5.8c13.3,0,24.1-10.8,24.1-24.1V46.7C96.2,45.3,100.3,40.2,100.3,34.2z M87.4,41.1
	c-3.8,0-6.9-3.1-6.9-6.9s3.1-6.9,6.9-6.9s6.9,3.1,6.9,6.9S91.2,41.1,87.4,41.1z"/>
</svg>
