<?xml version="1.0" encoding="utf-8"?>
<!-- Generator: Adobe Illustrator 22.0.0, SVG Export Plug-In . SVG Version: 6.00 Build 0)  -->
<svg version="1.1" id="Layer_1" xmlns="http://www.w3.org/2000/svg" xmlns:xlink="http://www.w3.org/1999/xlink" x="0px" y="0px"
	 viewBox="0 0 108 108" style="enable-background:new 0 0 108 108;" xml:space="preserve">
<path d="M15.3,99c-2.4,0-3.6-1.2-3.6-3.6V10.2c0-2.4,1.2-3.6,3.6-3.6h69.3c2.6,0,3.9,1.8,3.9,3.6v45c0,2-1.3,3.4-3.1,3.4
	c-1.7,0-3.1-1.3-3.1-2.8V15.2L82.2,15C82,14.6,82,14.6,82,14.1v-1H17.8v79.8h29.4c2,0,3.4,1.3,3.4,3.4c0,1.6-1.4,2.8-3.1,2.8H15.3z"
	/>
<path d="M75,96.6c-0.8,0-1.6-0.3-2.3-1c-2.1-2-4.4-4.2-6.5-6.2c-2.1-2.1-4.4-4.2-6.6-6.3c-1.2-1.2-1.5-3.3-0.3-4.6
	c0.6-0.6,1.4-0.9,2.2-0.9c0.9,0,1.7,0.3,2.5,1c2.9,2.9,6.2,6,9.1,8.6c0.3,0.6,0.6,0.9,0.9,1.2l0.7,0.7c0,0,5.6-6.3,8.1-9
	c2.5-2.8,5.1-5.6,7.6-8.4c0.6-0.7,1.2-1.3,1.8-2c1.2-1.3,2.4-2.6,3.5-4.1c0.7-0.8,1.6-1.2,2.5-1.2c0.7,0,1.5,0.3,2.1,0.8
	c0.7,0.6,1.1,1.4,1.1,2.2c0,0.8-0.3,1.7-1,2.4c-2.4,2.7-4.9,5.4-7.3,8.2C88,83.8,82.7,89.8,77.3,95.5C76.6,96.3,75.9,96.6,75,96.6z"
	/>
<path d="M34.1,34.9c-1.8,0-2.9-0.8-3.1-2.1c-0.2-1.1,0-2.1,0.5-2.8c0.5-0.7,1.4-1.2,2.4-1.3l0.4,0h33c1.9,0,3,0.7,3.4,2.3
	c0.3,1,0.2,2-0.4,2.8c-0.5,0.7-1.3,1.1-2.2,1.1H34.1z"/>
<path d="M33.8,55.6c-1.8,0-3.4-1.4-3.4-3.1c0-1.8,1.4-3.1,3.4-3.1h33.8c2,0,2.8,1.3,3.1,2.5c0.2,1.3-0.5,2.7-1.7,3.3
	c-0.2,0.1-0.9,0.4-1.7,0.4H33.8z"/>
<path d="M33.8,75.8c-1.5,0-3.1-1.1-3.1-3.1c0-1.7,1.3-3.1,2.9-3.4h10.3c0.9,0,1.6,0.3,2.2,0.9c0.5,0.6,0.8,1.4,0.7,2.4l0,0.1v0.1
	c0,1.6-1.4,2.8-3.1,2.8h-0.4l-0.1,0c-1.3,0.3-2.9,0.3-4.4,0.3H33.8z"/>
</svg>
