<?xml version="1.0" encoding="utf-8"?>
<!-- Generator: Adobe Illustrator 22.0.0, SVG Export Plug-In . SVG Version: 6.00 Build 0)  -->
<svg version="1.1" id="Layer_1" xmlns="http://www.w3.org/2000/svg" xmlns:xlink="http://www.w3.org/1999/xlink" x="0px" y="0px"
	 viewBox="0 0 108 108" style="enable-background:new 0 0 108 108;" xml:space="preserve">
<g>
	<path d="M9.8,26.2v55.6h88.5V26.2H9.8z M93.3,76.8H14.7V31.2h78.6V76.8z"/>
	<path d="M37.7,56.3c6.5,0,11.8,5.3,11.8,11.8h5c0-6.6-3.9-12.3-9.4-15c1.6-1.8,2.6-4.1,2.6-6.7c0-5.5-4.5-9.9-9.9-9.9
		c-5.5,0-9.9,4.5-9.9,9.9c0,2.6,1,4.9,2.6,6.7c-5.6,2.7-9.4,8.4-9.4,15h5C25.9,61.6,31.2,56.3,37.7,56.3z M32.7,46.3
		c0-2.7,2.2-5,5-5s5,2.2,5,5s-2.2,5-5,5S32.7,49.1,32.7,46.3z"/>
	<rect x="58.8" y="37.7" width="30" height="7.4"/>
	<rect x="58.8" y="49.5" width="21.7" height="4.3"/>
	<rect x="58.8" y="58.8" width="30" height="4.3"/>
	<rect x="58.8" y="65.1" width="30" height="4.3"/>
</g>
</svg>
