<?xml version="1.0" encoding="utf-8"?>
<!-- Generator: Adobe Illustrator 22.0.0, SVG Export Plug-In . SVG Version: 6.00 Build 0)  -->
<svg version="1.1" id="Layer_1" xmlns="http://www.w3.org/2000/svg" xmlns:xlink="http://www.w3.org/1999/xlink" x="0px" y="0px"
	 viewBox="0 0 108 108" style="enable-background:new 0 0 108 108;" xml:space="preserve">
<path d="M84.3,48.9c-2-6.5-6.3-11.4-12-13.5c-4.8-1.8-10.1-1.6-15.1,0.7c1.1-6.8,5.1-9.4,5.3-9.6l-1.6-2.5l-1.6-2.6
	c-0.2,0.1-3.4,2.1-5.7,6.7c-0.6-2.5-2.2-4.8-4.7-6.4c-3.1-2-6.8-2.1-9.7-0.8c0.1,3.2,1.8,6.4,5,8.4c2.7,1.7,5.7,2,8.3,1.3
	c-0.6,1.6-1.1,3.5-1.3,5.6c-5.1-2.3-10.4-2.6-15.3-0.7c-5.7,2.2-10,7-12,13.5c-1.9,6.2-1.6,13.4,1,20.1C29.8,82.7,42.8,90.6,54,87.2
	c1.7,0.5,3.5,0.8,5.3,0.8C69,88,79,80.6,83.3,69C85.9,62.3,86.2,55.2,84.3,48.9z M76.8,66.5c-4,10.6-13.7,16.7-21.6,13.7L54,79.8
	l-1.2,0.5c-7.9,3-17.5-3.2-21.6-13.7c-2-5.3-2.3-10.8-0.8-15.5c1.4-4.4,4.2-7.7,7.8-9.1c4.2-1.6,9.2-0.6,13.7,2.8l2.1,1.6l2.1-1.6
	c4.4-3.4,9.4-4.4,13.7-2.8c3.7,1.4,6.4,4.6,7.8,9.1C79.1,55.8,78.8,61.3,76.8,66.5z"/>
</svg>
