<?xml version="1.0" encoding="utf-8"?>
<!-- Generator: Adobe Illustrator 22.0.0, SVG Export Plug-In . SVG Version: 6.00 Build 0)  -->
<svg version="1.1" id="Layer_1" xmlns="http://www.w3.org/2000/svg" xmlns:xlink="http://www.w3.org/1999/xlink" x="0px" y="0px"
	 viewBox="0 0 40 40" style="enable-background:new 0 0 40 40;" xml:space="preserve">
<style type="text/css">
	.st0{fill:#FFFFFF;}
</style>
<g>
	<path d="M33.1,20.3c-0.2-3.5-2-6-5.3-7c-2.1-0.7-4.4-0.9-6.7-1.3c-0.7-0.1-1.1-0.2-1.4-0.9c-1.7-3.5-4.5-5.4-8.3-5.7
		c-0.4,0-0.9,0.4-1.3,0.6c0.4,0.2,0.8,0.7,1.2,0.7c3.3,0.4,5.8,2.1,7.3,5.1c-2,0.4-4,0.7-5.8,1.3c-3.4,1.1-5.5,3.5-5.8,7.1
		c-0.4,5.2,1.5,9.5,6,12.3c4.6,2.9,9.4,2.9,14,0.1C31.4,29.7,33.4,25.5,33.1,20.3z M31.7,22.5c-0.6,5.9-5.2,10.3-11.2,10.7
		C15,33.5,9.7,29.5,8.5,24c-1.1-5.1,0.6-8.9,6.2-10.1c1.4-0.3,2.7-0.4,4.3-0.6c0.1,0.7,0.1,1.3,0.3,1.9c0.1,0.3,0.4,0.5,0.6,0.8
		c0.2-0.3,0.6-0.5,0.7-0.9c0.1-0.5,0-1.1,0-1.9c1.9,0.3,3.7,0.4,5.5,0.9C30.3,15.3,32.2,18.1,31.7,22.5z"/>
	<path d="M10.8,21.9c0.1,0.1,0.4,0.4,0.7,0.7c0.2-0.3,0.7-0.5,0.7-0.8c0.1-2.7,1.7-4.1,4.1-4.7c0.4-0.1,0.6-0.6,0.9-0.9
		c-0.4-0.1-0.9-0.4-1.3-0.4C13,16.3,11,18.5,10.8,21.9z"/>
</g>
</svg>
