<?xml version="1.0" encoding="utf-8"?>
<!-- Generator: Adobe Illustrator 22.0.0, SVG Export Plug-In . SVG Version: 6.00 Build 0)  -->
<svg version="1.1" id="Layer_1" xmlns="http://www.w3.org/2000/svg" xmlns:xlink="http://www.w3.org/1999/xlink" x="0px" y="0px"
	 viewBox="0 0 40 40" style="enable-background:new 0 0 40 40;" xml:space="preserve">
<style type="text/css">
	.st0{fill:#FFFFFF;}
</style>
<g>
	<path d="M35,24.3c-0.1-0.1-0.3-0.2-0.5-0.3c-0.1,0-0.2,0-0.4,0c-4.7,0-9.4,0-14.1,0c-4.8,0-9.6,0-14.3,0c-0.3,0-0.5,0-0.6,0.3
		c-0.1,0.3,0,0.5,0.2,0.7c1.3,1.3,2.6,2.6,3.9,3.9c0.2,0.2,0.4,0.3,0.7,0.3c6.8,0,13.6,0,20.4,0c0.3,0,0.5-0.1,0.7-0.3
		c0.9-0.9,1.8-1.8,2.7-2.7c0.4-0.4,0.9-0.9,1.3-1.4C35,24.7,35,24.4,35,24.3z M33,25.2c-0.9,0.9-1.8,1.8-2.7,2.7
		c-0.1,0.1-0.3,0.2-0.4,0.2c-6.6,0-13.1,0-19.7,0c-0.1,0-0.3,0-0.4-0.1c-1-1-2-1.9-3-3c8.9,0,17.6,0,26.4,0
		C33.1,25.1,33.1,25.2,33,25.2z"/>
	<path d="M9.7,23.7c0.3,0,0.4-0.2,0.4-0.5c0.1-0.6,0.4-1,0.9-1.1c0.5-0.2,1,0,1.4,0.4c0.2,0.2,0.4,0.4,0.7,0.3
		c0.3-0.1,0.3-0.4,0.3-0.6c0-0.1,0-0.1,0-0.2c0.1-1,0.7-1.8,1.7-2.1c1-0.3,1.9,0.1,2.5,0.9c0.3,0.5,0.6,0.5,1,0.1
		c0.3-0.3,0.6-0.3,0.9,0c0.4,0.4,0.4,0.4,0.9,0.2c0.8-0.4,1.9-0.1,2.4,0.7c0.2,0.3,0.3,0.7,0.3,1.1c0.1,0.3,0.3,0.5,0.5,0.5
		c0.3,0,0.5-0.2,0.5-0.5c0-0.1,0-0.2,0-0.3c-0.2-1.8-2-3-3.7-2.5C20.2,20,20,20,19.8,19.9c-0.4-0.3-0.9-0.3-1.4-0.1
		c-0.2,0.1-0.3,0.1-0.5-0.1c-1.7-1.6-4.4-1-5.3,1.1c-0.1,0.1-0.1,0.3-0.2,0.4c-0.1,0-0.2-0.1-0.3-0.1c-1.5-0.5-3.1,0.6-3.1,2.1
		C9.1,23.5,9.3,23.8,9.7,23.7z"/>
	<path d="M24.6,23.7c0.3,0.1,0.5-0.1,0.6-0.4c0.1-0.3,0.2-0.3,0.4-0.2c0.5,0.3,0.8,0.2,0.9-0.4c0-0.3,0.2-0.5,0.5-0.6
		c0.3-0.1,0.5,0,0.7,0.3c0.2,0.3,0.4,0.3,0.7,0.2c0.1,0,0.1,0,0.2,0c0.2,0,0.4,0,0.6,0c0.4-0.1,0.6,0,0.7,0.4
		c0.1,0.4,0.3,0.5,0.6,0.5c0.3,0,0.5-0.3,0.4-0.6c-0.1-0.8-0.8-1.4-1.6-1.3c-0.1,0-0.2,0-0.4,0c-0.4-0.1-0.9-0.1-1.2-0.4
		c-0.1-0.1-0.3-0.1-0.4-0.1c-0.6,0-1.1,0.2-1.4,0.7c-0.1,0.1-0.2,0.2-0.4,0.2c-0.6,0-1.2,0.5-1.3,1.1C24.2,23.4,24.4,23.7,24.6,23.7
		z"/>
	<path d="M26.2,16c-0.3,0.3-0.3,0.6-0.1,0.8c0.2,0.2,0.6,0.2,0.8-0.1c0.8-0.8,1-2,0.5-3c-0.1-0.3-0.3-0.5-0.5-0.8
		c-0.2-0.5-0.1-0.8,0.2-1.1c0.1-0.1,0.2-0.3,0.3-0.4c-0.1-0.2-0.2-0.4-0.4-0.4c-0.1-0.1-0.4-0.1-0.5,0c-0.5,0.3-0.8,0.8-0.9,1.4
		c-0.1,0.6,0.2,1.1,0.6,1.6C26.9,14.8,26.8,15.5,26.2,16z"/>
	<path d="M12.6,16.1c-0.2,0.2-0.3,0.5,0,0.7c0.2,0.2,0.5,0.2,0.8,0c0.2-0.3,0.5-0.5,0.6-0.9c0.4-0.9,0.2-1.8-0.3-2.6
		c-0.5-0.8-0.5-0.9,0.1-1.7c0.1-0.1,0.1-0.4,0.1-0.5c-0.1-0.2-0.3-0.2-0.4-0.4c-0.2,0.1-0.3,0.1-0.4,0.2c-0.4,0.3-0.6,0.6-0.7,1
		c-0.2,0.7,0.1,1.3,0.5,1.9C13.4,14.7,13.3,15.4,12.6,16.1z"/>
	<path d="M19.7,14.1c0.4,0.7,0.3,1.4-0.2,1.9c-0.3,0.3-0.3,0.6-0.1,0.8c0.2,0.2,0.5,0.2,0.8-0.1c0.8-0.7,1-2,0.5-3
		c-0.1-0.3-0.3-0.5-0.5-0.8c-0.2-0.5-0.2-0.8,0.2-1.2c0.1-0.1,0.2-0.3,0.3-0.4c-0.1-0.2-0.2-0.4-0.4-0.4c-0.2-0.1-0.4,0-0.5,0
		c-0.6,0.3-0.9,1.2-0.7,1.9C19.2,13.3,19.5,13.7,19.7,14.1z"/>
</g>
</svg>
