<?xml version="1.0" encoding="utf-8"?>
<!-- Generator: Adobe Illustrator 22.0.0, SVG Export Plug-In . SVG Version: 6.00 Build 0)  -->
<svg version="1.1" id="Layer_1" xmlns="http://www.w3.org/2000/svg" xmlns:xlink="http://www.w3.org/1999/xlink" x="0px" y="0px"
	 viewBox="0 0 40 40" style="enable-background:new 0 0 40 40;" xml:space="preserve">
<style type="text/css">
	.st0{fill:#FFFFFF;}
</style>
<g>
	<path d="M34.5,25.3c0,1.1,0,2.1,0,3.2c-0.1,1.5-1.1,2.1-2.4,1.3c-3.7-2.4-6.2-2.1-9.5,0.7c-4.6,4-9.9,5-15.7,3.2
		c-1.1-0.3-1.6-1-1.6-2.1c0-1.9-0.1-3.9,0-5.8c0-0.6,0.3-1.5,0.8-1.8c0.4-0.2,1.4,0,1.9,0.4c3,2.1,6.1,1.9,8.8-0.7
		c3.2-3,6.9-4.5,11.2-4.4c1.7,0.1,3.5,0.6,5.2,1c0.8,0.2,1.2,0.8,1.2,1.7C34.5,23.1,34.5,24.2,34.5,25.3z M7,29.6
		c-0.2,2.9-0.5,2.6,2.2,3.2c5,1.1,9.3-0.3,13-3.8c2.2-2.1,4.9-2.7,7.8-1.9c1,0.3,2,0.9,3.2,1.4c-0.2-0.9-0.1-2.1-0.6-2.4
		c-4-3.1-7.2-2.3-10.3,0.5c-1.5,1.4-3.6,2.4-5.5,3.2C13.7,31,10.3,30.7,7,29.6z M7,25.3c0,0.3,0,0.5,0,0.7c0,2.2,0,2.3,2.1,2.7
		c4.9,1,9.3-0.1,13-3.6c1.8-1.7,4-2.8,6.5-2.4c1.5,0.2,3,0.9,4.5,1.4c0-0.1,0-0.4,0-0.7c-0.1-2.1,0.5-1.8-1.9-2.4
		c-4.8-1.2-9.1-0.1-12.8,3.2C14.6,27.7,11.4,28.1,7,25.3z"/>
	<path d="M34.5,11.3c0,1.1,0.1,2.2,0,3.3c-0.1,0.5-0.4,1.3-0.9,1.5c-0.4,0.2-1.2,0-1.6-0.3c-3.3-2.3-6.2-2-9.3,0.7
		c-4.6,4.1-9.8,5.1-15.7,3.4c-1.2-0.4-1.7-1-1.7-2.3c0.1-1.9-0.1-3.9,0-5.8c0-0.6,0.4-1.5,0.9-1.7c0.4-0.2,1.3,0.1,1.8,0.4
		c2.9,2,6.1,1.9,8.8-0.5c3.5-3.2,7.5-4.8,12.2-4.4c1.4,0.1,2.9,0.6,4.3,1c0.8,0.2,1.2,0.8,1.2,1.7C34.5,9.2,34.5,10.3,34.5,11.3z
		 M33.3,14.9c-0.2-1.1-0.1-2.2-0.6-2.6c-3.3-2.8-6.8-2.7-10,0.2c-2.8,2.6-6.2,4.1-10.1,4.1c-1.9,0-3.8-0.4-5.7-0.5
		c-0.2,2.7-0.4,2.3,2.1,2.9c4.7,1.1,9,0,12.6-3.2C25.4,12.4,28.6,12,33.3,14.9z M6.9,11.4c0,0.5,0.1,0.9,0,1.3
		c-0.2,1.3,0.3,1.8,1.6,2.1c5.2,1.3,9.7,0,13.7-3.6c2.9-2.7,6.7-3.1,10.1-1c0.2,0.1,0.5,0.2,0.8,0.4c0-0.5-0.1-0.8,0-1.1
		c0.3-1.4-0.5-1.9-1.7-2.2c-4.9-1-9.3-0.1-13,3.3C14.7,13.9,11.2,14.2,6.9,11.4z"/>
</g>
</svg>
