<?xml version="1.0" encoding="utf-8"?>
<!-- Generator: Adobe Illustrator 22.0.0, SVG Export Plug-In . SVG Version: 6.00 Build 0)  -->
<svg version="1.1" id="Layer_1" xmlns="http://www.w3.org/2000/svg" xmlns:xlink="http://www.w3.org/1999/xlink" x="0px" y="0px"
	 viewBox="0 0 40 40" style="enable-background:new 0 0 40 40;" xml:space="preserve">
<style type="text/css">
	.st0{fill:#FFFFFF;}
</style>
<path d="M11.3,5.3c0.2,0,0.7,0,1.1,0.1c0.9,0.2,1.4,0.7,1.1,1.8c-0.3,1-0.5,2-0.6,3c0,0.7,0.1,1.6,0.4,2.2
	c4.3,7.4,10.1,13.2,17.4,17.6c1.5,0.9,1.6,2.1,0.2,3.2c-2.2,1.7-4.8,1.8-7.4,1.1c-5.5-1.5-9.5-5-12.6-9.6c-2-3-3.3-6.2-3-10
	c0-0.4,0.1-0.8,0.2-1.1c1.1-1.8,0.7-3.6,0.3-5.5C8.1,5.7,8.4,5.3,11.3,5.3z M14.4,16.8c-1.7,0.6-3.2,1.1-4.8,1.7
	c2.2,6.5,6.3,11.3,12.7,14c1.6,0.7,3.5,0.7,5.3,0.8c1.2,0,2.2-0.5,3.1-1.6C24,27.7,18.7,22.7,14.4,16.8z M9.8,6.8
	c0.3,1.3,0.5,2.4,0.7,3.5c0.2,0.9,0.1,1.7-0.3,2.6c-0.5,1.1-0.7,2.3-1,3.5c0.1,0.1,0.3,0.3,0.4,0.4c1.3-0.4,2.5-0.8,3.8-1.3
	c-0.9-1.6-2-2.8-2.2-4.2c-0.2-1.4,0.4-3,0.7-4.6C11.2,6.8,10.6,6.8,9.8,6.8z"/>
</svg>
