<?xml version="1.0" encoding="utf-8"?>
<!-- Generator: Adobe Illustrator 22.0.0, SVG Export Plug-In . SVG Version: 6.00 Build 0)  -->
<svg version="1.1" id="Layer_1" xmlns="http://www.w3.org/2000/svg" xmlns:xlink="http://www.w3.org/1999/xlink" x="0px" y="0px"
	 viewBox="0 0 40 40" style="enable-background:new 0 0 40 40;" xml:space="preserve">
<style type="text/css">
	.st0{fill:#FFFFFF;}
</style>
<path d="M24.8,6.6c0,1.6,0,3,0,4.6c0.9,0,1.7,0,2.5,0c0.9,0,1.2,0.3,1.2,1.2c0,7,0,14,0,20.9c0,0.9-0.3,1.2-1.2,1.2
	c-4.4,0-8.8,0-13.2,0c-0.9,0-1.2-0.3-1.2-1.1c0-7,0-14,0-21c0-0.9,0.3-1.1,1.1-1.1c2.6,0,5.3,0,7.9,0c0.3,0,0.6,0,0.9,0
	c0-0.3,0-0.6,0-0.9c0-1.4,0-2.9,0-4.3c0-0.8,0.3-1.1,1.1-1.1c1.9,0,3.9,0,5.8,0c0.6,0,1.1,0.2,1.1,0.9c0,0.6-0.4,0.9-1.1,0.9
	c-1.4,0-2.7,0-4.1,0C25.4,6.6,25.1,6.6,24.8,6.6z M14.8,12.9c0,4.9,0,9.8,0,14.7c4,0,8,0,11.9,0c0-4.9,0-9.8,0-14.7
	c-0.6,0-1.2,0-1.9,0c0,0.3,0,0.6,0,0.9c0,3.5,0,6.9,0,10.4c0,0.3,0.1,0.6-0.1,0.7c-0.2,0.3-0.6,0.7-0.9,0.6c-0.3,0-0.6-0.5-0.8-0.8
	c-0.1-0.2,0-0.4,0-0.7c0-3.5,0-6.9,0-10.4c0-0.3,0-0.6,0-0.9C20.1,12.9,17.5,12.9,14.8,12.9z M26.7,29.5c-4,0-8,0-12,0
	c0,1.1,0,2.1,0,3.1c4,0,8,0,12,0C26.7,31.5,26.7,30.5,26.7,29.5z"/>
</svg>
