<?xml version="1.0" encoding="utf-8"?>
<!-- Generator: Adobe Illustrator 22.0.0, SVG Export Plug-In . SVG Version: 6.00 Build 0)  -->
<svg version="1.1" id="Layer_1" xmlns="http://www.w3.org/2000/svg" xmlns:xlink="http://www.w3.org/1999/xlink" x="0px" y="0px"
	 viewBox="0 0 40 40" style="enable-background:new 0 0 40 40;" xml:space="preserve">
<style type="text/css">
	.st0{fill:#FFFFFF;}
</style>
<g>
	<path d="M28.2,5.9C28,5,27.7,4.8,26.8,4.8c-2.2,0-4.5,0-6.7,0c0,0,0,0,0,0c-2.3,0-4.6,0-6.9,0c-0.7,0-1.2,0.3-1.3,1
		c-0.2,1.3-0.4,2.5-0.6,3.8c-0.4,4.6-0.2,9.2,1.5,13.6c0.8,2.1,1.1,4.3,0.9,6.6c-0.1,1.5-0.4,2.9-0.5,4.4c-0.1,0.7,0.2,1.1,0.8,1.1
		c4,0,7.9,0,11.9,0c0.8,0,1.1-0.4,0.9-1.2c-0.2-1-0.3-2-0.4-3c-0.2-2.3-0.4-4.7,0.5-6.9C29.2,18.1,29.3,12.1,28.2,5.9z M13.5,6.6
		c4.3,0,8.6,0,13,0c0.1,0.7,0.2,1.4,0.3,2.1c-4.6,0-9,0-13.6,0C13.3,8,13.4,7.3,13.5,6.6z M25.2,23.5c-0.9,2.4-0.8,4.9-0.6,7.4
		c0.1,0.9,0.2,1.7,0.3,2.6c-3.2,0-6.5,0-9.7,0c0.1-1.2,0.3-2.3,0.3-3.4c0.2-2.7-0.1-5.4-1.1-8c-1.4-3.5-1.6-7.3-1.4-11
		c0-0.2,0.1-0.3,0.1-0.6c4.6,0,9.2,0,14,0c0,1.6,0.1,3.2,0,4.8C26.8,18.1,26.2,20.8,25.2,23.5z"/>
	<path d="M16,14.4c0-0.7-0.4-1.2-1-1.1c-0.7,0.1-0.8,0.6-0.8,1.2c0.1,2.6,0.5,5.2,1.5,7.7c0.8,2,1.1,4,1.2,6.2c0,0.7-0.1,1.4-0.1,2
		c0,0.6,0.3,0.9,0.9,1c0.6,0,0.9-0.3,0.9-0.9c0.1-2.7,0.2-5.4-0.8-8C16.7,19.8,16.1,17.1,16,14.4z"/>
</g>
</svg>
