<?xml version="1.0" encoding="utf-8"?>
<!-- Generator: Adobe Illustrator 22.0.0, SVG Export Plug-In . SVG Version: 6.00 Build 0)  -->
<svg version="1.1" id="Layer_1" xmlns="http://www.w3.org/2000/svg" xmlns:xlink="http://www.w3.org/1999/xlink" x="0px" y="0px"
	 viewBox="0 0 40 40" style="enable-background:new 0 0 40 40;" xml:space="preserve">
<style type="text/css">
	.st0{fill:#FFFFFF;}
</style>
<g>
	<path d="M34.4,18.3c-0.2-1-0.7-1.1-1.4-0.5c-0.4,0.3-0.7,0.7-1.1,1.1c-0.7,0.7-1.5,0.9-2.4,0.5c-0.9-0.4-1.2-1.2-1-2.2
		c0.2-1-0.1-1.3-1.1-1.2c-1.7,0.2-2.6-0.7-2.4-2.3c0.2-1.1-0.1-1.4-1.2-1.2c-0.9,0.2-1.7-0.1-2.1-0.9c-0.5-0.8-0.4-1.6,0.3-2.3
		c0.5-0.6,1.2-1.1,1.7-1.7c0.3-0.3,0.7-0.9,0.6-1.1c-0.2-0.4-0.8-0.7-1.2-0.7c-1.7-0.1-3.5-0.4-5.1-0.1C10.1,6.7,4.8,13.4,5.5,21.5
		c0.6,7.2,7.1,13,14.5,13c6,0,11.4-3.6,13.6-9.2C34.4,23,34.8,20.7,34.4,18.3z M20.4,33.2c-7.7,0.2-14-6.2-13.6-13.8
		C7.2,11.5,14.1,5.8,22.2,7c-1.2,1.3-2.5,2.3-2.2,4.2c0.4,1.8,1.6,2.7,3.3,2.9c0.6,2.4,1.2,3,3.5,3.6c0.9,3.5,2.7,4.2,6.1,2.5
		C33.8,26.4,27.4,33,20.4,33.2z"/>
	<path d="M16.4,14.4c-1.4-0.1-2.5,1-2.6,2.4c-0.1,1.3,0.9,2.5,2.3,2.5c1.4,0.1,2.5-0.9,2.6-2.3C18.8,15.6,17.8,14.5,16.4,14.4z
		 M16.2,18.5c-0.5-0.8-1-1.2-1-1.7c0-0.4,0.7-1,1-1c0.4,0,1,0.6,1,1C17.3,17.3,16.8,17.7,16.2,18.5z"/>
	<path d="M21,25.9c-1.1,0-2.1,1-2.1,2.1c0,1.2,1,2.1,2.2,2.1c1.2,0,2.1-1,2.1-2.2C23.2,26.8,22.2,25.9,21,25.9z M21,28.8
		c-0.2-0.3-0.6-0.5-0.6-0.8c0-0.3,0.4-0.5,0.7-0.9c0.3,0.4,0.8,0.8,0.7,1C21.7,28.3,21.3,28.5,21,28.8z"/>
	<path d="M13,21.4c-0.8,0-1.5,0.5-1.4,1.3c0.1,0.6,0.6,1.1,1,1.6c0.2,0,0.4,0,0.6,0c0.4-0.5,1-1,1.1-1.5C14.4,22,13.8,21.5,13,21.4z
		"/>
	<path d="M24,20.9c-0.5,0.1-1.2,0.7-1.2,1.2c0,0.5,0.6,1,0.9,1.6c0.2,0,0.4,0,0.6,0c0.3-0.5,0.9-0.9,1-1.5
		C25.4,21.4,24.9,20.7,24,20.9z"/>
</g>
</svg>
