<?xml version="1.0" encoding="utf-8"?>
<!-- Generator: Adobe Illustrator 22.0.0, SVG Export Plug-In . SVG Version: 6.00 Build 0)  -->
<svg version="1.1" id="Layer_1" xmlns="http://www.w3.org/2000/svg" xmlns:xlink="http://www.w3.org/1999/xlink" x="0px" y="0px"
	 viewBox="0 0 40 40" style="enable-background:new 0 0 40 40;" xml:space="preserve">
<style type="text/css">
	.st0{fill:#FFFFFF;}
</style>
<path d="M25,12.5c2.6,1,4.8,2.5,6.6,4.7c1.2,1.5,2.1,3.2,2.4,5.2c0.5,2.9-0.4,3.7-3.3,2.8c-0.7,2.7-1.5,5.3-2.1,8
	c-0.2,1-0.7,1.5-1.8,1.5c-4.5-0.1-9,0-13.6,0c-1.1,0-1.6-0.3-1.8-1.4c-0.6-2.7-1.4-5.4-2.1-8c-0.2,0-0.2,0-0.3,0
	c-2.3,0.8-3.2,0.2-3-2.2c0.2-2.7,1.4-4.9,3.3-6.7c1.7-1.6,3.7-2.8,5.8-4.3c-0.1-2.9,0.4-3.6,3.9-4.7C18,7.1,17.5,6.9,17,6.6
	c-0.3-0.2-0.6-0.6-0.9-0.8c0.4-0.2,0.9-0.6,1.1-0.5c1,0.5,1.9,1.1,2.8,1.6c0.3,0.2,0.6,0.6,1,0.6C24.4,8.2,25,9,25,12.5z M24.4,13.8
	c-2.7,3.4-6.4,3.1-8.9,0c-5.4,1.8-9.1,7.6-7.9,10.5c0.6-0.3,1.2-0.6,1.8-0.9c1.8-1,3.6-2,5.4-2.9c0.9-0.5,1.3-0.2,1.4,0.8
	c0.1,2.3,1.7,3.9,3.9,3.8c2.1,0,3.6-1.5,3.8-3.8c0.1-1.1,0.5-1.4,1.5-0.9c1.5,0.8,3,1.6,4.6,2.5c0.9,0.5,1.7,0.9,2.6,1.4
	C33.4,21.3,29.9,15.7,24.4,13.8z M23.4,25.5C21,27,18.9,27,16.6,25.5c0.3,2.7,0.5,5.2,0.8,7.7c1.9,0,3.6,0,5.3,0
	C22.9,30.6,23.1,28.2,23.4,25.5z M14.9,22c-1.4,0.8-2.7,1.5-3.8,2.2c-0.2,0.1-0.4,0.6-0.4,0.9c0.6,2.5,1.3,5,2,7.5
	c0.1,0.3,0.4,0.7,0.7,0.7c0.8,0.1,1.7,0,2.6,0C15.6,29.5,15.2,25.9,14.9,22z M25.1,22.1c-0.4,3.8-0.7,7.5-1.1,11.2
	c0.8,0,1.4-0.1,1.9,0c0.9,0.1,1.3-0.2,1.5-1.1c0.3-1.4,0.7-2.7,1.1-4C29.6,24,29.6,24,25.1,22.1z M20,14.8c1.9,0,3.6-1.7,3.6-3.5
	c0-1.4-1.8-3-2.7-2.2c-0.9,0.8-1.3,0.8-1.9,0c-0.1-0.1-0.3,0-0.5,0c-1.6,0.1-2.5,1.3-2.2,2.9C16.7,13.5,18.4,14.8,20,14.8z"/>
</svg>
