<?xml version="1.0" encoding="utf-8"?>
<!-- Generator: Adobe Illustrator 22.0.0, SVG Export Plug-In . SVG Version: 6.00 Build 0)  -->
<svg version="1.1" id="Layer_1" xmlns="http://www.w3.org/2000/svg" xmlns:xlink="http://www.w3.org/1999/xlink" x="0px" y="0px"
	 viewBox="0 0 40 40" style="enable-background:new 0 0 40 40;" xml:space="preserve">
<style type="text/css">
	.st0{fill:#FFFFFF;}
</style>
<path d="M32.1,17.6c-2.5-1.4-4.8-3.1-7-4.5c0.4-1.4,1-2.5,1.1-3.8c0.3-3.3,0.6-3.2-3.1-2.9c-2.7,0.2-4.5,2-5.5,4.4
	c-0.3-0.1-0.6-0.3-0.9-0.4c-1.2-0.2-2.4-0.6-3.2-1.7c-0.3-0.4-1.1-0.6-1.7-0.7c-0.3,0-0.7,0.3-1,0.5c0.2,0.3,0.4,0.6,0.7,0.8
	c0.4,0.2,0.8,0.3,1.5,0.5c-3.4,1.4-4,3.3-2.1,6.4c-1.7,0.8-3.3,1.5-4.8,2.4C5.8,19,5.3,19.6,5.3,20c-0.1,4.1,0,8.3,0,12.4
	c0,1,0.3,1.4,1.4,1.4c8.9,0,17.7,0,26.6,0c1,0,1.4-0.3,1.4-1.4c0-3.4-0.2-6.8,0-10.2C34.8,19.8,34,18.6,32.1,17.6z M20.2,13.7
	c1.5-1.5,3.1-3.1,4.5-4.5C25.2,11.2,23.1,13.3,20.2,13.7z M23.7,7.8c-1.6,1.6-3.2,3.1-4.7,4.6C18.7,10.3,21,7.8,23.7,7.8z M12.1,12
	c0.5-0.4,1.3-0.8,1.9,0.1c0.1,0.1,0.7,0.1,0.9-0.1c0.6-0.8,1.3-0.4,1.8-0.1c0.4,0.3,0.7,0.9,1,1.4c-0.3,1.8-1.5,3-3.1,3.1
	c-1.7,0.1-3.1-1.1-3.2-2.8C11.3,13.1,11.7,12.4,12.1,12z M13.9,17.8c1.6,0.5,3.1-0.5,4.2-1.8c0.3-0.4,0.8-0.6,1.3-0.7
	c1.3-0.4,2.6-0.7,4-1.1c0.3-0.1,0.8-0.1,1.1,0.1c2.3,1.4,4.5,2.9,7,4.5c-7.4,0-14.6,0-22.1,0C10.9,18,12.1,17.3,13.9,17.8z
	 M33.2,32.3c-8.8,0-17.6,0-26.4,0c0-1.7,0-3.3,0-5.2c8.8,0,17.6,0,26.4,0C33.2,28.8,33.2,30.5,33.2,32.3z M33.2,25.5
	c-8.8,0-17.6,0-26.4,0c0-1.6,0-3.3,0-5c8.8,0,17.6,0,26.4,0C33.2,22.2,33.2,23.8,33.2,25.5z"/>
</svg>
