<?xml version="1.0" encoding="utf-8"?>
<!-- Generator: Adobe Illustrator 22.0.0, SVG Export Plug-In . SVG Version: 6.00 Build 0)  -->
<svg version="1.1" id="Layer_1" xmlns="http://www.w3.org/2000/svg" xmlns:xlink="http://www.w3.org/1999/xlink" x="0px" y="0px"
	 viewBox="0 0 40 40" style="enable-background:new 0 0 40 40;" xml:space="preserve">
<style type="text/css">
	.st0{fill:#FFFFFF;}
</style>
<path d="M29.4,14.4c1.3,2.3,1.6,4.6,0.3,6.9c-0.4,0.7-0.9,1.3-1.4,1.8c-1.1,1.2-2.3,2.3-3.5,3.5c-3.4,3.4-5.2,3.7-9.6,1.9
	c0,1,0,1.9,0,2.8c0,1.4-0.6,2.4-1.9,2.9C12,34.6,11,34.2,10,33.3c-0.4-0.4-1.1-0.5-1.4-0.9c-1-1.4-2.2-2.7-2.8-4.3
	c-0.6-1.5,0.9-3.2,2.7-3.3c1-0.1,1.9,0,3,0c-0.3-0.7-0.6-1.3-0.8-1.9c-0.8-2.6-0.1-4.9,1.8-6.8c1.3-1.3,2.5-2.5,3.8-3.7
	c3.1-3.1,5.3-3.5,9.4-1.6c0-0.9,0-1.8,0-2.6c0-1.4,0.6-2.5,1.9-3c1.3-0.5,2.4-0.2,3.3,0.8c0.1,0.2,0.3,0.4,0.4,0.4
	c2,0.4,2.5,2.4,3.5,3.7c1.2,1.6,0.1,3.9-1.9,4.3C31.7,14.4,30.6,14.3,29.4,14.4z M26.5,13.7c0,1.2,0.3,2.4-0.1,3.1
	c-0.4,0.6-1.6,0.7-2.5,1c-0.1,0.6,0.1,1.6-0.4,2.1c-0.5,0.5-1.5,0.4-2.4,0.6c0.5,2.2-0.6,2.9-2.7,2.6c0,0.5-0.1,0.8,0,1
	c0.2,1.2-0.3,1.7-1.6,1.6c-0.6-0.1-1.3,0-2,0c1.7,2.9,5.3,3.5,7.8,1.3c1.7-1.5,3.2-3.1,4.8-4.7C30,19.5,29.7,16.2,26.5,13.7z
	 M26,13.4c-1.6-2.7-4.8-3.5-7.1-1.7c-2.3,1.9-4.5,4-6.3,6.3c-2,2.4-0.5,6.1,1.8,7c0-1-0.2-2,0-2.9c0.3-1.4,1.7-0.3,2.6-0.9
	c-0.7-2.3,0.9-2.6,2.7-2.4c0.2-2.3,0.2-2.3,2.8-2.8c0-0.4,0-0.8,0-1.2c-0.1-1.1,0.4-1.5,1.4-1.4C24.6,13.5,25.3,13.4,26,13.4z
	 M13.8,29.6c0-0.7,0.1-1.3,0.1-1.9c0-1-0.6-1.6-1.5-1.7c-1.3-0.1-2.5-0.1-3.8,0c-0.9,0.1-1.8,0.7-1.5,1.5c0.6,1.4,1.6,2.5,2.5,3.7
	c0.3,0.4,0.9,0.7,1.3,0.9c0.5,0.3,1.2,0.7,1.6,0.6c0.5-0.1,1-0.8,1.1-1.3C13.9,30.9,13.8,30.2,13.8,29.6z M30.2,12.9
	c0.7,0,1.4,0.1,2.1,0c1-0.1,1.8-0.8,1.4-1.7c-0.5-1.3-1.6-2.3-2.4-3.5c0-0.1-0.2,0-0.2-0.1c-0.4-0.3-0.8-0.6-1.2-0.8
	c-0.6-0.3-1.3-0.7-1.9-0.6c-0.4,0.1-0.9,0.9-1,1.5c-0.2,1.1-0.1,2.3-0.2,3.4c0,1,0.8,1.8,1.7,1.8C29.2,13,29.7,12.9,30.2,12.9z
	 M19.6,21.4c0.1-0.1,0.2-0.3,0.3-0.4c-0.3-0.3-0.6-0.5-0.9-0.8c-0.3,0.3-0.5,0.7-0.9,1.2C18.9,21.4,19.2,21.4,19.6,21.4z M15.7,24.4
	c0.5-0.2,0.9-0.3,1.2-0.5c0.1-0.1,0-0.5,0-0.8c-0.5,0-0.8,0-1.2,0C15.7,23.4,15.7,23.7,15.7,24.4z M22.5,17.9
	c-0.2-0.2-0.4-0.3-0.6-0.5c-0.3,0.3-0.6,0.6-0.8,0.9c0.2,0.2,0.4,0.4,0.6,0.6C22,18.5,22.2,18.2,22.5,17.9z M25,14.6
	c-0.6,0.3-0.9,0.5-1.2,0.7c-0.1,0.1,0.1,0.6,0.2,0.7c0.2,0.1,0.6,0,1,0C25,15.6,25,15.3,25,14.6z"/>
</svg>
