<?xml version="1.0" encoding="utf-8"?>
<!-- Generator: Adobe Illustrator 22.0.0, SVG Export Plug-In . SVG Version: 6.00 Build 0)  -->
<svg version="1.1" id="Layer_1" xmlns="http://www.w3.org/2000/svg" xmlns:xlink="http://www.w3.org/1999/xlink" x="0px" y="0px"
	 viewBox="0 0 40 40" style="enable-background:new 0 0 40 40;" xml:space="preserve">
<style type="text/css">
	.st0{fill:#FFFFFF;}
</style>
<g>
	<path d="M30.8,16.3c-0.4-0.3-0.7-1.1-0.7-1.7c-0.1-1.7-0.7-2.5-2.4-2.8c-0.3-0.1-0.7-0.1-0.9-0.3c-1.6-1.2-3.6-0.7-5.4-1.1
		c-0.2-0.1-0.5,0.2-0.8,0.2c-0.3,0.1-0.7,0.2-1,0.1c-2.1-0.3-3.5,1.3-5.3,1.8c-0.2,0.1-0.3,0.4-0.5,0.6c-0.2,0.2-0.5,0.4-0.7,0.6
		c-1.9,1.5-4,2.8-5.6,4.6c-2,2.1-2.1,5-2,7.8c0.1,2.6,1.1,3.6,3.6,3.6c3.7,0,7.3,0,11,0c3.8,0,7.5,0,11.3,0c1.8,0,3-0.8,3.2-2.2
		C35,23.2,34.5,19.2,30.8,16.3z M9.4,22c0.5-1.5,1-3.1,1.9-4.4c0.3-0.5,1-0.7,1-1.5c0-0.3,0.3-0.6,0.6-0.8c1.1-0.7,2.2-1.4,3.4-2.1
		c0.5-0.3,1-0.4,1.5-0.7c0,0,0.1-0.1,0.1-0.1c0.3-0.1,0.8-0.5,0.9-0.4c1.4,1.1,2.7-1.2,4.1,0c0.2,0.1,0.4,0.4,0.5,0.3
		c1.8-1.3,2.9,1.2,4.6,0.9c0.8-0.1,1,0.8,0.8,1.6c-3.4-0.9-6.8-1-10.1-0.2c-4.3,1-6.8,4.3-7.2,8.7c0,0.1-0.1,0.2-0.1,0.4
		c-0.6,0-1.1,0-1.5,0C9.5,23.1,9.2,22.5,9.4,22z M8.2,28.2c-0.5-0.1-1.2-0.7-1.3-1.1c-0.3-2.9-0.3-5.7,1.7-8.2
		c0.1-0.1,0.2-0.1,0.4-0.3c0,0.3,0,0.6-0.1,0.8C8,20.3,7.7,21.3,8,22.5c0.1,0.4-0.3,0.9-0.4,1.4c-0.2,0.8,0,1.3,1,1.3
		c0.8,0,1.7,0,2.5,0c0.1,1.1,0.2,2,0.3,3.1C10.3,28.2,9.2,28.3,8.2,28.2z M33.2,26.2c0,1.6-0.5,2.1-2,2.1c-1.4,0-2.9,0-4.3,0
		c-1.4,0-2.8,0-4.2,0c0,0,0,0,0,0c-2.7,0-5.5,0-8.2,0c-1.4,0-1.9-0.5-1.9-1.9c0-1.4,0-2.9,0.3-4.3c0.9-3.6,3.5-5.9,7.4-6.2
		c2.1-0.2,4.3-0.1,6.4,0.2c3.7,0.5,6.4,3.9,6.6,7.6C33.3,24.5,33.2,25.3,33.2,26.2z"/>
	<path d="M26.3,20c0.3,0.2,0.6,0.7,0.9,0.7c0.3,0,0.6-0.4,1.1-0.8c-0.5-0.3-0.9-0.7-1.2-0.7C26.7,19.3,26.5,19.7,26.3,20z"/>
	<path d="M24.2,24c0.1,0.3,0.5,0.6,0.8,0.8c0.2-0.3,0.7-0.6,0.7-0.9c0-0.3-0.4-0.6-0.8-1C24.6,23.5,24.2,23.8,24.2,24z"/>
	<path d="M18,19.8c-0.1,0.2,0.3,0.8,0.6,0.8c0.3,0.1,0.7-0.3,1-0.4c0.1-0.2,0.3-0.4,0.4-0.7c-0.4-0.1-0.8-0.4-1.2-0.4
		C18.6,19.2,18.1,19.6,18,19.8z"/>
	<path d="M22.1,20c0.3,0.2,0.5,0.7,0.8,0.7c0.3,0,0.6-0.4,1.1-0.8c-0.5-0.4-0.9-0.8-1.2-0.7C22.6,19.3,22.4,19.7,22.1,20z"/>
	<path d="M20.1,24.1c0,0.3,0.4,0.7,0.7,0.8c0.3,0,0.6-0.4,1.1-0.7c-0.5-0.4-0.8-0.8-1.1-0.8C20.6,23.4,20.1,23.8,20.1,24.1z"/>
	<path d="M15.9,24.1c0.3,0.3,0.5,0.7,0.8,0.7c0.3,0,0.6-0.4,1.1-0.8c-0.5-0.3-0.8-0.7-1.1-0.7C16.4,23.4,16.2,23.8,15.9,24.1z"/>
	<path d="M28.4,24c0,0.3,0.4,0.8,0.7,0.8c0.3,0,0.6-0.4,1.1-0.7c-0.5-0.4-0.8-0.8-1.1-0.8C28.9,23.4,28.4,23.8,28.4,24z"/>
</g>
</svg>
