<?xml version="1.0" encoding="utf-8"?>
<!-- Generator: Adobe Illustrator 22.0.0, SVG Export Plug-In . SVG Version: 6.00 Build 0)  -->
<svg version="1.1" id="Layer_1" xmlns="http://www.w3.org/2000/svg" xmlns:xlink="http://www.w3.org/1999/xlink" x="0px" y="0px"
	 viewBox="0 0 40 40" style="enable-background:new 0 0 40 40;" xml:space="preserve">
<style type="text/css">
	.st0{fill:#FFFFFF;}
</style>
<g>
	<path d="M35,25c0.2-1.5-0.5-2.4-1.7-2.9c-1.6-0.7-3.2-1.2-4.8-1.8c-0.3-0.1-0.7-0.5-0.8-0.8c-0.2-1.9-1.2-3.1-3-3.6
		c0-1.3-0.5-2.9,0.1-3.8c1.2-1.8,0.6-3.6,0.6-5.4c0-0.5-0.8-1.2-1.4-1.3c-0.5-0.1-1.5,0.5-1.5,0.9C22.3,8,22,9.8,22.5,11.2
		c0.6,1.3,0.5,2.5,0.6,3.7c0.1,0.7-0.2,1-0.8,1.4c-0.8,0.5-1.5,1.3-2,2.1c-0.3,0.6-0.6,0.8-1.2,0.8c-1.6,0.1-3.3,0.2-4.9,0.3
		c-2.6,0.3-5.2,0.9-7.5,2.2c-1.3,0.7-2,1.8-1.9,3.3c0.1,1.1,0,2.1,0,3.2c0,2.4,0.7,3.3,3,3.4c3.2,0.2,6.4,0.1,9.6,0.2
		c1.7,0,3.5-0.2,4.7,1.2c1.2,1.5,2.7,1.7,4.3,0.9c2.4-1.1,4.7-2.4,7-3.5c1-0.5,1.5-1.2,1.4-2.4C34.9,27.1,34.9,26.1,35,25z
		 M24.7,17.6c0.1-0.1,0.3-0.1,0.4-0.2c0.4,0.7,0.9,1.4,1.3,2.1c-0.1,0.1-0.2,0.2-0.3,0.3c-0.5-0.1-0.9-0.2-1.5-0.3
		C24.7,18.9,24.7,18.3,24.7,17.6z M23.8,7c0.1,0,0.2,0,0.3,0c0,1.2,0,2.5,0,3.7c-0.1,0-0.2,0-0.3,0C23.8,9.4,23.8,8.2,23.8,7z
		 M22.8,17.4c0.1,0,0.2,0.1,0.3,0.1c0,0.5,0,1.1,0,1.7c-0.4,0-0.9,0-1.7,0C21.9,18.5,22.4,18,22.8,17.4z M7,23.5
		c0.6-0.5,1.3-0.9,2.1-1.2c3.5-1.4,7.2-1.7,11.1-1.7c0,0.9-0.1,1.6,0,2.2c0.1,0.4,0.5,0.8,0.7,1.2c0.2-0.4,0.6-0.8,0.6-1.2
		c0.1-0.7,0-1.4,0-2.2c0.6,0.1,1.1,0.1,1.6,0.2c0,0.9-0.1,1.7,0,2.4c0,0.3,0.4,0.6,0.6,0.8c0.3-0.3,0.7-0.5,0.8-0.8
		c0.1-0.7,0-1.4,0-2.1c1.3-0.3,1.8,0.1,1.6,1.3c0,0.3-0.1,0.6,0.1,0.9c0.1,0.3,0.4,0.4,0.6,0.7c0.2-0.2,0.6-0.5,0.7-0.7
		c0.1-0.5,0-1.1,0-1.9c2.1,0.8,3.9,1.5,5.7,2.2c0,0.1,0,0.3,0,0.4c-2.7,1.5-5.3,3.3-8.4,4.1c-0.4,0.1-1.1-0.2-1.4-0.5
		c-1.3-1.5-3-2-4.9-2c-2.8,0-5.6,0.1-8.4,0c-1,0-1.9-0.1-2.9-0.3c-0.4-0.1-0.9-0.4-0.9-0.7C6.4,24.3,6.7,23.7,7,23.5z M33.5,28.5
		c0,0.3-0.3,0.7-0.6,0.8c-2.2,1.2-4.5,2.3-6.8,3.4c-1.1,0.5-2.1,0.4-2.9-0.6c-1-1.3-2.6-1.6-4.1-1.6c-3.3,0-6.6,0-9.9,0
		c-0.2,0-0.3,0-0.5,0c-2.2-0.1-2.4-0.4-2.4-2.6c0-0.4,0-0.8,0-0.9c3.9,0,7.7,0,11.5,0c1.9,0,3.6,0.2,4.9,1.8c0.8,1,2,0.9,3,0.5
		c2.1-0.9,4.2-2,6.3-3c0.4-0.2,0.9-0.5,1.5-0.8C33.6,26.6,33.6,27.6,33.5,28.5z"/>
	<path d="M10.9,24.5c0.3,0.2,0.8,0.2,1.3,0.3c0.4-0.1,1-0.1,1.4-0.4c0.4-0.3,0.9-0.8,0.9-1.3c0-0.4-0.6-1-1-1
		c-0.9-0.1-1.8,0-2.7,0.2C10.4,22.4,10,23,10,23.4C10,23.8,10.5,24.2,10.9,24.5z"/>
</g>
</svg>
