<?xml version="1.0" encoding="utf-8"?>
<!-- Generator: Adobe Illustrator 22.0.0, SVG Export Plug-In . SVG Version: 6.00 Build 0)  -->
<svg version="1.1" id="Layer_1" xmlns="http://www.w3.org/2000/svg" xmlns:xlink="http://www.w3.org/1999/xlink" x="0px" y="0px"
	 viewBox="0 0 40 40" style="enable-background:new 0 0 40 40;" xml:space="preserve">
<style type="text/css">
	.st0{fill:#FFFFFF;}
</style>
<path d="M23.3,20.7c-3.2-3.5-3.5-7.4-1.4-11.5c-3.9-0.1-8.7,4.6-8.6,9.4c2.1,0.5,3.9,1.5,5,3.4c0.9,1.5,1.1,3.1,0.7,4.8
	c-0.6,3.2-3.7,5.5-6.9,5.3c-3.3-0.2-6-2.7-6.4-6c-0.5-3.5,1.8-6.4,6-7.6c0.2-2.4,1-4.6,2.5-6.5c2.3-2.9,5.4-4.4,9.1-4.6
	c0.3,0,0.9,0.2,0.9,0.3c0,0.4-0.1,0.9-0.4,1.2c-2.8,3.4-2.6,7.8,0.5,10.7c3.7-2,7.5-1.2,9.6,2.2c1.8,2.9,1.1,6.5-1.5,8.7
	c-2.6,2.1-6.2,2.1-8.8-0.2C21.1,28,20.9,24.5,23.3,20.7z M7.1,25.4c0,3,2.3,5.4,5.4,5.4c3,0,5.4-2.4,5.3-5.4c0-2.9-2.5-5.3-5.4-5.3
	C9.5,20,7.1,22.5,7.1,25.4z M28.2,30.7c3,0,5.3-2.3,5.4-5.2c0-3-2.4-5.5-5.3-5.5c-2.9,0-5.4,2.4-5.4,5.3
	C22.9,28.3,25.2,30.7,28.2,30.7z"/>
</svg>
