<?xml version="1.0" encoding="utf-8"?>
<!-- Generator: Adobe Illustrator 22.0.0, SVG Export Plug-In . SVG Version: 6.00 Build 0)  -->
<svg version="1.1" id="Layer_1" xmlns="http://www.w3.org/2000/svg" xmlns:xlink="http://www.w3.org/1999/xlink" x="0px" y="0px"
	 viewBox="0 0 40 40" style="enable-background:new 0 0 40 40;" xml:space="preserve">
<style type="text/css">
	.st0{fill:#FFFFFF;}
</style>
<path d="M15,10.1c0.8-1.6,2.1-2.6,3.9-2.5c0.8,0,1.6,0.6,2.5,0.6c0.8,0,1.6-0.6,2.4-0.6c1.6-0.1,2.7,0.7,3.6,2
	c0.2,0.2,0.5,0.4,0.8,0.5c1.6,0.3,2.8,1.2,3.3,2.7c0.6,1.5,0.3,3-0.8,4.2c-0.5,0.5-0.4,1-0.4,1.5c0,0.1,0.3,0.3,0.5,0.4
	c2.1,0.7,3.4,2.2,3.8,4.4c0.4,2.2-0.3,4.1-2.1,5.5c-0.5,0.4-1.1,0.7-1.7,0.9c-0.5,0.2-0.6,0.4-0.6,0.8c0,1,0,1.9,0,2.9
	c0,1.5-0.8,2.3-2.3,2.3c-4.6,0-9.2,0-13.8,0c-1.5,0-2.3-0.8-2.3-2.3c0-5.1,0-10.1,0-15.2c0-0.3-0.1-0.7-0.3-0.9
	c-1.3-1.4-1.6-3-0.8-4.7c0.8-1.7,2.2-2.5,4.1-2.4C14.8,10.1,14.8,10.1,15,10.1z M13.5,18.5c0,0.1,0,0.2,0,0.3c0,4.8,0,9.7,0,14.5
	c0,0.6,0.3,0.7,0.8,0.7c4.4,0,8.8,0,13.2,0c0.7,0,0.9-0.2,0.9-0.9c0-4.6,0-9.3,0-13.9c0-0.2,0-0.5,0-0.7
	C23.3,18.5,18.4,18.5,13.5,18.5z M16.2,12.3c-0.3-0.1-0.6-0.2-0.8-0.3c-1-0.4-2-0.2-2.8,0.6c-0.7,0.7-0.9,1.8-0.5,2.7
	c0.5,1,1.3,1.5,2.4,1.5c1.6,0,3.3,0,4.9,0c2.7,0,5.4,0,8.1,0c1.5,0,2.6-1.3,2.4-2.7c-0.1-1.4-1.4-2.4-2.8-2.2
	c-0.3,0-0.5,0.1-0.8,0.1c-0.2-1.2-0.7-2.2-2-2.6C23,9,22,9.7,21.3,10.6C19.4,8.3,16.4,9.2,16.2,12.3z M30.1,28
	c1.5-0.2,2.7-1.8,2.7-3.6c0-1.8-1.2-3.4-2.7-3.7C30.1,23.1,30.1,25.6,30.1,28z"/>
<path d="M15.8,26.2c0-1.3,0-2.7,0-4c0-0.8,0.3-1.2,0.9-1.2c0.5,0,0.9,0.4,0.9,1.2c0,2.7,0,5.4,0,8.1c0,0.7-0.3,1.2-0.9,1.1
	c-0.7-0.1-0.8-0.5-0.8-1.1C15.8,29,15.8,27.6,15.8,26.2z"/>
<path d="M20,26.2c0-1.4,0-2.7,0-4.1c0-0.7,0.4-1.1,0.9-1.1c0.6,0.1,0.8,0.5,0.8,1.1c0,2.8,0,5.5,0,8.3c0,0.7-0.3,1.1-0.9,1.1
	C20.3,31.4,20,31,20,30.4C20.1,29,20,27.6,20,26.2z"/>
<path d="M24.3,26.2c0-1.4,0-2.7,0-4.1c0-0.7,0.3-1.1,0.8-1.1c0.7,0.1,0.8,0.5,0.8,1.1c0,2.7,0,5.5,0,8.2c0,0.7-0.3,1.1-0.8,1.1
	c-0.7-0.1-0.8-0.5-0.8-1.1C24.3,29,24.3,27.6,24.3,26.2z"/>
</svg>
