<?xml version="1.0" encoding="utf-8"?>
<!-- Generator: Adobe Illustrator 22.0.0, SVG Export Plug-In . SVG Version: 6.00 Build 0)  -->
<svg version="1.1" id="Layer_1" xmlns="http://www.w3.org/2000/svg" xmlns:xlink="http://www.w3.org/1999/xlink" x="0px" y="0px"
	 viewBox="0 0 40 40" style="enable-background:new 0 0 40 40;" xml:space="preserve">
<style type="text/css">
	.st0{fill:#FFFFFF;}
</style>
<g>
	<path d="M32.5,19.5c-1.3,0-2.6,0-3.9,0c0,0-0.1,0-0.2,0c0-0.3,0-0.6,0-0.9c0-0.2-0.2-0.4-0.4-0.4c-3.9,0-7.9,0-11.8,0
		c-0.1,0-0.1,0-0.2,0c0-0.2,0-0.4,0-0.5c0-0.2-0.3-0.4-0.4-0.4c-0.2,0-0.4,0.2-0.4,0.4c0,0.2,0,0.3,0,0.5c-0.1,0-0.1,0-0.2,0
		c-1.8,0-3.6,0-5.3,0c-0.3,0-0.5,0-0.6,0.3c0,0-0.1,0.1-0.1,0.2c0,0.9,0.1,1.9,0.2,2.8c0.2,1.2,0.5,2.4,1,3.5
		c0.6,1.3,1.3,2.4,2.3,3.4c0,0,0.1,0.1,0.1,0.2c-0.1,0-0.1,0-0.2,0c-1.9,0-3.7,0-5.6,0c-0.2,0-0.3,0-0.4,0.2c-0.2,0.2-0.2,0.4,0,0.6
		c0.1,0.1,0.3,0.3,0.5,0.4c1.1,0.7,2.3,1.1,3.5,1.5c2.2,0.7,4.5,1,6.8,1.1c2,0.1,4,0,5.9-0.3c1.5-0.2,3-0.5,4.5-1
		c1-0.3,2-0.8,2.9-1.3c0.2-0.1,0.4-0.3,0.6-0.4c0.1-0.1,0.2-0.2,0.1-0.4c-0.1-0.2-0.2-0.3-0.4-0.3c-1.7,0-3.4,0-5.2,0
		c-0.2,0-0.5,0-0.7,0c0,0,0,0,0,0c0,0,0,0,0.1-0.1c0.8-0.7,1.4-1.6,1.9-2.5c0.3-0.5,0.1-0.5,0.8-0.5c0.8-0.1,1.5-0.3,2.3-0.6
		c1.5-0.8,2.5-1.9,2.9-3.6c0.1-0.3,0.1-0.5,0.1-0.8c0-0.1,0-0.3,0-0.4C32.9,19.6,32.8,19.5,32.5,19.5z M16.5,20.8c0,0.8,0,1.6,0,2.4
		c-0.6,0-1.2,0-1.8,0c0-0.8,0-1.6,0-2.4C15.4,20.8,15.9,20.8,16.5,20.8z M29,29.3C29,29.3,29,29.3,29,29.3c-0.3,0.2-0.7,0.3-1,0.4
		c-1.5,0.5-3,0.9-4.6,1.2c-1.9,0.3-3.8,0.4-5.7,0.3c-2.1-0.1-4.2-0.3-6.2-0.9c-0.9-0.2-1.8-0.5-2.6-0.9c-0.1,0-0.2-0.1-0.2-0.1
		c0,0,0,0,0,0C15.4,29.3,22.2,29.3,29,29.3z M27.5,20.7c-0.2,0.9-0.3,1.9-0.5,2.8c-0.6,2-1.7,3.7-3.5,4.8c0,0-0.1,0-0.2,0
		c-3,0-6,0-9,0c-0.1,0-0.1,0-0.2-0.1c-1.3-0.9-2.3-2-3-3.4c-0.7-1.4-1-2.8-1.2-4.3c0-0.4-0.1-0.8-0.1-1.2c0-0.1,0-0.2,0-0.3
		c1.8,0,3.5,0,5.3,0c0,0.3,0,0.6,0,0.9c-0.2,0-0.5,0-0.7,0c-0.2,0-0.4,0.1-0.6,0.3c0,0,0,0.1,0,0.1c0,1,0,2,0,3.1c0,0.2,0,0.3,0,0.5
		c0,0.2,0.1,0.2,0.3,0.2c0.4,0,0.9,0,1.3,0c0.5,0,0.9,0,1.4,0c0.2,0,0.4-0.1,0.5-0.2c0,0,0-0.1,0-0.1c0-1.1,0-2.2,0-3.4
		c0-0.3-0.1-0.5-0.5-0.5c-0.1,0-0.3,0-0.4,0c-0.1,0-0.3,0-0.4,0c0-0.3,0-0.6,0-0.9c3.8,0,7.7,0,11.5,0
		C27.6,19.6,27.6,20.1,27.5,20.7z M32,21.1c-0.4,1.6-1.5,2.5-3,3c-0.3,0.1-0.6,0.1-0.9,0.2c-0.2,0-0.2,0-0.2-0.2
		c0.1-0.4,0.1-0.7,0.2-1.1c0.2-0.9,0.3-1.8,0.5-2.7c1.2,0,2.3,0,3.6,0C32.1,20.6,32,20.9,32,21.1z"/>
	<path d="M18.3,11.2c-0.4,0.5-0.6,1.1-0.6,1.7c0,0.2,0,0.4,0.1,0.6c0.1,0.5,0.3,0.9,0.7,1.2c0.2,0.2,0.4,0.2,0.6,0.1
		c0.2-0.2,0.2-0.4,0.1-0.6c-0.1-0.1-0.1-0.2-0.2-0.3c-0.4-0.5-0.6-1.3,0-2c0.1-0.1,0.2-0.3,0.3-0.4c0.6-0.8,0.8-1.7,0.4-2.7
		C19.5,8.6,19.3,8.3,19,8c-0.2-0.1-0.3-0.2-0.5-0.1c-0.2,0.2-0.3,0.4-0.1,0.6c0.1,0.1,0.2,0.2,0.3,0.4c0.4,0.6,0.4,1.2,0,1.8
		C18.5,10.9,18.4,11.1,18.3,11.2z"/>
	<path d="M23.4,16.1c0.2,0.1,0.4,0.1,0.5,0c0.2-0.1,0.2-0.4,0.1-0.6c-0.1-0.1-0.2-0.2-0.2-0.3c-0.2-0.3-0.3-0.7,0-1
		c0.1-0.1,0.2-0.3,0.3-0.4c0.3-0.4,0.6-0.8,0.5-1.4c0-0.1,0-0.1,0-0.2c0-0.5-0.2-0.8-0.5-1.2c-0.2-0.2-0.4-0.2-0.6-0.1
		c-0.2,0.2-0.2,0.4-0.1,0.6c0.1,0.1,0.1,0.2,0.2,0.3c0.2,0.4,0.2,0.8,0,1.2c-0.1,0.1-0.2,0.3-0.3,0.4c-0.5,0.7-0.6,1.6-0.1,2.4
		C23.2,15.9,23.3,16,23.4,16.1z"/>
	<path d="M13.5,13.3c-0.3,0.4-0.5,0.8-0.4,1.3c0,0.1,0,0.2,0,0.3c0,0.4,0.2,0.8,0.5,1.1c0,0,0.1,0.1,0.2,0.1c0.2,0.1,0.3,0,0.5-0.1
		c0.2-0.2,0.2-0.3,0.1-0.5c0-0.1-0.1-0.1-0.1-0.2c-0.4-0.6-0.4-1,0-1.6c0.4-0.4,0.6-0.9,0.5-1.4c0-0.2,0-0.3,0-0.5
		c-0.1-0.4-0.2-0.8-0.6-1c-0.2-0.1-0.4-0.1-0.5,0c-0.2,0.2-0.2,0.3-0.1,0.5c0.1,0.1,0.2,0.2,0.2,0.3c0.2,0.4,0.2,0.7,0,1.1
		C13.7,13.1,13.6,13.2,13.5,13.3z"/>
</g>
</svg>
