<?xml version="1.0" encoding="utf-8"?>
<!-- Generator: Adobe Illustrator 22.0.0, SVG Export Plug-In . SVG Version: 6.00 Build 0)  -->
<svg version="1.1" id="Layer_1" xmlns="http://www.w3.org/2000/svg" xmlns:xlink="http://www.w3.org/1999/xlink" x="0px" y="0px"
	 viewBox="0 0 40 40" style="enable-background:new 0 0 40 40;" xml:space="preserve">
<style type="text/css">
	.st0{fill:#FFFFFF;}
</style>
<g>
	<path d="M20,34.6c-2.7,0-5.3,0-8,0c-0.9,0-1.2-0.3-1.2-1.2c0-3.8-0.4-7.6,0.1-11.3c0.8-5.2,0.2-10.4,0.5-15.7
		c0-0.8,0.3-1.2,1.2-1.2c3.2,0,6.5,0,9.7,0c0.4,0,0.8,0.2,1.1,0.5c1.6,1.5,3.1,3.1,4.7,4.7c0.3,0.3,0.5,0.8,0.5,1.2
		c0,2.2-0.3,4.5,0.1,6.7c0.7,4.8,0.6,9.6,0.6,14.4c0,1.9,0,1.9-1.9,1.9C24.9,34.6,22.5,34.6,20,34.6z M15.3,30.2c3.2,0,6.4,0,9.5,0
		c0-2.6,0-5.2,0-7.7c-3.2,0-6.3,0-9.5,0C15.3,25.1,15.3,27.6,15.3,30.2z M12.3,22.5c0,3.6,0,7.2,0,10.7c5.2,0,10.4,0,15.5,0
		c0-3.6,0-7.2,0-10.7c-0.5,0-1,0-1.6,0c0,2.7,0,5.3,0,7.9c0,0.9-0.2,1.3-1.2,1.3c-3.3,0-6.7,0-10,0c-0.9,0-1.2-0.4-1.2-1.2
		c0-2.1,0-4.2,0-6.3c0-0.6,0-1.1,0-1.7C13.3,22.5,12.9,22.5,12.3,22.5z M13,20.9c1.2,0,2.4,0,3.7,0c0-1.2,0-2.4,0-3.5
		c-1.3,0-2.4,0-3.7,0C13,18.5,13,19.6,13,20.9z M23.5,17.3c0,1.2,0,2.4,0,3.6c1.3,0,2.5,0,3.7,0c0-1.2,0-2.3,0-3.6
		C25.9,17.3,24.7,17.3,23.5,17.3z M23.4,15.7c1.3,0,2.5,0,3.7,0c0-1.2,0-2.4,0-3.6c-1.3,0-2.5,0-3.7,0
		C23.4,13.3,23.4,14.4,23.4,15.7z M18.2,10.5c1.3,0,2.4,0,3.5,0c0-1.3,0-2.5,0-3.7c-1.2,0-2.4,0-3.5,0C18.2,8,18.2,9.2,18.2,10.5z
		 M13,6.8c0,1.3,0,2.4,0,3.6c1.3,0,2.5,0,3.7,0c0-1.3,0-2.4,0-3.6C15.4,6.8,14.2,6.8,13,6.8z M18.2,20.9c1.2,0,2.4,0,3.6,0
		c0-1.2,0-2.3,0-3.5c-1.2,0-2.4,0-3.6,0C18.2,18.6,18.2,19.7,18.2,20.9z M18.2,12.1c0,1.1,0,2,0,3c0,0.2,0.4,0.6,0.7,0.6
		c1,0.1,1.9,0,3,0c0-1.3,0-2.4,0-3.7C20.6,12.1,19.5,12.1,18.2,12.1z M13,15.6c1.3,0,2.5,0,3.7,0c0-1.2,0-2.4,0-3.5
		c-1.3,0-2.4,0-3.7,0C13,13.3,13,14.4,13,15.6z M25.9,10.5c-0.9-0.8-1.7-1.6-2.5-2.4c0,0.7,0,1.5,0,2.4
		C24.3,10.5,25.1,10.5,25.9,10.5z"/>
</g>
</svg>
