<?xml version="1.0" encoding="utf-8"?>
<!-- Generator: Adobe Illustrator 22.0.0, SVG Export Plug-In . SVG Version: 6.00 Build 0)  -->
<svg version="1.1" id="Layer_1" xmlns="http://www.w3.org/2000/svg" xmlns:xlink="http://www.w3.org/1999/xlink" x="0px" y="0px"
	 viewBox="0 0 40 40" style="enable-background:new 0 0 40 40;" xml:space="preserve">
<style type="text/css">
	.st0{fill:#FFFFFF;}
</style>
<g>
	<path d="M33,8.3c0-0.1,0-0.2,0-0.2c0.5-0.6,1.1-1.6,0.8-1.8c-1-1-1.2,0.7-2,0.8C30,5.7,29.4,5.5,28.2,6c-1.7,0.7-4,3.8-4,5.4
		c-1.1,0.6-2.2,0.9-2.9,1.6c-0.7,0.7-1,1.8-1.6,2.9c-2.6,0-5.5,2.9-5.6,5.8c-3.6,0.7-4.8,2.8-3.7,6.1c0.1,0.3-0.1,0.9-0.3,1.1
		C8.8,30.3,7.4,31.6,6,33c-0.2,0.2-0.2,0.7-0.3,1.1c0.3,0.1,0.6,0.2,0.9,0.1c0.3-0.1,0.4-0.4,0.7-0.6c1.5-1.5,3-3,4.4-4.4
		c3.2,1.7,6.1,0.1,6.7-3.4c2.9-0.1,5.6-2.8,5.8-5.8c2.5-0.3,3.9-1.8,4.1-4.3c2.2,0.5,3.2-1.1,4.4-2.3C34.7,11.4,34.8,10.5,33,8.3z
		 M14.2,28.6c-1.5,0-2.7-1.2-2.8-2.7c0-1.5,1.1-2.7,2.6-2.7c1.6-0.1,2.8,1.1,2.8,2.6C16.9,27.3,15.7,28.5,14.2,28.6z M22.3,21.8
		c-0.7,0.7-1.4,1.4-2.1,2.1c-0.6,0.6-1.3,0.6-1.9,0.1c-0.8-0.7-1.6-1.5-2.3-2.3c-0.3-0.3-0.4-1.2-0.2-1.4c0.8-1,1.8-1.9,2.8-2.9
		c0.1-0.1,0.4-0.1,0.7-0.3c0.3,0.2,0.7,0.3,1,0.6c0.7,0.6,1.4,1.4,2.1,2C23,20.4,23,21.2,22.3,21.8z M24.2,18.5
		c-1.4,0-2.7-1.2-2.7-2.6c-0.1-1.5,1.2-2.8,2.6-2.9c1.5-0.1,2.8,1.2,2.8,2.7C26.9,17.2,25.7,18.5,24.2,18.5z M32.1,12.1
		c-0.6,0.6-1.2,1.2-1.8,1.8c-0.7,0.6-1.4,0.6-2,0c-0.7-0.7-1.4-1.4-2.1-2.1c-0.7-0.7-0.6-1.4,0-2.1c0.5-0.6,1.1-1.1,1.7-1.7
		c1.2-1.2,1.7-1.2,2.7-0.1c-0.1,0.8-0.1,1.3-0.2,1.7c0.5-0.1,1-0.1,1.7-0.2C33.1,10.4,33.2,11,32.1,12.1z"/>
	<path d="M14.2,14.2c0.3,0.1,0.7-0.3,1-0.4c-0.2-0.3-0.3-0.6-0.5-0.9c-0.2-0.3-0.5-0.6-0.7-0.9c0.3-0.2,0.6-0.5,1-0.6
		c1-0.3,1.6-1,1.7-2.1c0-1.1-0.8-2.1-1.8-2.1c-0.3,0-0.7,0.2-0.8,0.4c-0.1,0.2,0.1,0.6,0.3,0.8c0.3,0.4,0.6,0.6,0.9,1
		c-0.4,0.2-0.8,0.5-1.2,0.7c-1,0.4-1.5,1.2-1.4,2.3C12.8,13.4,13.3,14,14.2,14.2z"/>
	<path d="M9.3,14.2c0.3,0.1,0.7-0.3,1-0.4c-0.2-0.3-0.3-0.6-0.5-0.8c-0.2-0.3-0.5-0.6-0.7-0.9c0.3-0.2,0.5-0.4,0.8-0.5
		c1.1-0.4,1.7-1,1.7-1.7c0-1.5-0.7-2.5-1.7-2.5c-0.3,0-0.7,0.1-0.8,0.4c-0.1,0.2,0,0.7,0.2,0.8c1.3,1.1,1.3,1.1-0.3,1.7
		c-1,0.4-1.5,1.1-1.4,2.1C7.8,13.3,8.3,14,9.3,14.2z"/>
	<path d="M18.1,12.9c0.1,0.1,0.6-0.1,0.6-0.2c0.1-1.1,1.2-1.1,1.8-1.5c0.6-0.4,0.9-1.1,1.1-1.4C21.6,8.2,21,7.5,20,7.3
		c-0.3-0.1-0.6,0.2-1,0.3c0.1,0.3,0.2,0.6,0.4,0.9c0.2,0.3,0.5,0.6,0.8,0.8c-0.3,0.2-0.6,0.6-1,0.7c-1,0.4-1.6,1-1.6,2
		C17.6,12.4,17.9,12.7,18.1,12.9z"/>
</g>
</svg>
