<?xml version="1.0" encoding="utf-8"?>
<!-- Generator: Adobe Illustrator 22.0.0, SVG Export Plug-In . SVG Version: 6.00 Build 0)  -->
<svg version="1.1" id="Layer_1" xmlns="http://www.w3.org/2000/svg" xmlns:xlink="http://www.w3.org/1999/xlink" x="0px" y="0px"
	 viewBox="0 0 40 40" style="enable-background:new 0 0 40 40;" xml:space="preserve">
<style type="text/css">
	.st0{fill:#FFFFFF;}
</style>
<g>
	<path d="M33.3,10.8c-0.7,0.3-1,0.7-1,1.3c0.1,0.6,0,1.3-0.1,2c-0.1,0.4-0.4,0.6-0.8,0.7c-0.6,0.1-1.3,0.2-2,0.3
		c0.7,0.2,1.4,0.4,2.2,0.4c0,0,0.1,0,0.1,0c1,0,1.6-0.9,1.6-1.9c-0.1-0.2-0.1-0.4-0.2-0.7C33,12.1,32.9,11.4,33.3,10.8z"/>
	<path d="M30.3,14.5c1,0,1.3-0.3,1.2-1.5c-0.1-0.6,0-1.3,0-1.9c-0.6,0.2-0.7,0.4-0.6,1.3c0,0.4-0.1,1-0.3,1.4
		c-0.1,0.3-0.4,0.4-0.7,0.6C30.1,14.5,30.2,14.5,30.3,14.5z"/>
	<path d="M31.6,16.4c-0.2,0-0.4,0-0.5,0c-0.3-0.1-0.5-0.2-0.8-0.3c-0.5-0.2-1.2-0.6-1.7-0.6c-0.5,0-1.1,0.4-1.7,0.5
		c1.1,0.4,2.2,0.3,3,1.2c-0.6,0.3-1.3,0.5-2,0.7c-2.5,0.5-4.9,0.7-7.4,0.7c-1.9,0-3.8-0.1-5.7-0.4c-1.2-0.2-2.2-0.5-3.4-0.8
		c-0.3-0.1-0.4-0.3-0.5-0.4c-0.2-0.4-0.1-0.7-0.2-1.2c-0.9,0.5-0.9,0.5-1.9,0.5c-0.4,0-0.8,0.1-1.2,0.2c-0.9,0.3-1.2,0.9-0.6,1.7
		c0.8,1.2,2,2,3.5,2.2c0,1.8,0,3.5,0,5.2c0,0.8,0,1.5,0.1,2.3c0,0.3,0.2,0.5,0.4,0.7c0.4,0.4,0.8,0.7,1.3,0.8
		c1.2,0.3,2.4,0.6,3.6,0.7c1.5,0.2,3.1,0.3,4.6,0.3c1.7,0,3.4-0.1,5.1-0.3c1.3-0.3,2.4-0.6,3.6-1.1c0.4-0.1,0.7-0.5,0.8-0.9
		c0.2-0.6,0.2-1.3,0.2-1.9c0-1.8,0-3.7,0-5.5c0-0.4,0.2-0.5,0.4-0.7c0.7-0.4,1.3-1,2-1.5c0.4-0.4,0.5-0.9,0.3-1.4
		S32.2,16.4,31.6,16.4z M9.6,18.9c-0.4-0.2-0.9-0.5-1.3-0.9c-0.2-0.1-0.3-0.2-0.4-0.4L8,17.6c0.1,0,0.3,0,0.4,0c0.2,0,0.4,0,0.6,0
		c0.4,0,0.9,0,1.2,0.3c0.2,0.3,0.1,0.7,0.2,1.1C10.2,19,9.8,19,9.6,18.9z M28.8,20.8v5.5c0,0.6,0,1-0.1,1.5c-1.1,0.4-2.2,0.8-3.3,1
		c-1.6,0.2-3.2,0.3-4.9,0.3c-1.4,0-2.9-0.1-4.3-0.2c0,0-1.3-0.3-2.1-0.5c-0.8,0-0.9-0.7-1.7-1c-0.1,0-0.2-0.3-0.2-0.4
		c0-2.5,0-5.1,0-7.6c0-0.1,0.1-0.2,0.1-0.3c0.8,0.2,1.6,0.3,2.4,0.4c0.8,0.4,1.4,0.4,1.4,0.4c1.5,0.1,2.9,0.2,4.3,0.2
		c2.7,0,5.2-0.2,7.7-0.8l0.1,0l0.1,0c0.2,0,0.4-0.1,0.5-0.2c0,0.1,0,0.2,0.1,0.2l0.1,0.6C28.9,20.2,28.8,20.5,28.8,20.8z M30.2,19
		c-0.2-0.9,0.2-1.3,1-1.3c0.2,0,0.3,0,0.5,0C31.3,18.1,30.7,18.6,30.2,19z"/>
	<path d="M11.8,16.6c0.5,0.2,1.2,0.3,1.7,0.4c0.7,0.1,1.5,0.1,2.2,0.1c1.9,0,3.8-0.2,5.7-0.6c2.4-0.4,4.8-0.9,7-1.9
		c0.5-0.3,1.1-0.6,1.5-1c0.5-0.4,0.4-0.7-0.1-1.1c-0.4-0.3-0.9-0.4-1.5-0.6c-1.6-0.4-3.2-0.6-4.8-0.6c-0.3,0-0.7,0-1,0
		c-0.2,0-0.4,0-0.5,0c-0.1-0.3-0.1-0.5-0.1-0.7c-0.1-0.8-0.4-1.2-1.3-1.2c-0.5,0-1.2,0-1.7,0.2c-1.8,0.4-1.9,0.8-1.4,2.5
		c-1,0.4-2,0.7-3,1.1c-1.1,0.5-2.2,1.1-3,2.2C11.1,16,11.2,16.4,11.8,16.6z M19.1,10.8c0.4-0.1,0.6-0.2,0.9-0.2c0.2,0,0.3,0,0.4,0
		c0.5,0,0.6,0.2,0.5,1c-0.8,0.1-1.5,0.2-2.2,0.4C18.2,11.1,18.2,10.9,19.1,10.8z M13,15.2c0.3-0.3,0.6-0.5,1-0.7
		c0.1-0.1,0.3-0.2,0.4-0.3v-0.1h0.2c1.6-0.8,4.4-1.7,5.3-1.8c0.8-0.1,2.4,0,2.4,0l1.2,0.2c1.5,0,2.9,0.4,4.4,0.7c0,0-0.1,0-0.1,0.1
		c-1.9,0.8-4,1.4-6.6,1.8l0,0l0,0c-1.6,0.3-2.9,0.4-4.2,0.5c-0.8,0-2.6,0.4-3,0.4c-0.2,0-0.5-0.1-0.7-0.1
		C12.9,15.8,12.8,15.5,13,15.2z"/>
</g>
</svg>
