<?xml version="1.0" encoding="utf-8"?>
<!-- Generator: Adobe Illustrator 22.0.0, SVG Export Plug-In . SVG Version: 6.00 Build 0)  -->
<svg version="1.1" id="Layer_1" xmlns="http://www.w3.org/2000/svg" xmlns:xlink="http://www.w3.org/1999/xlink" x="0px" y="0px"
	 viewBox="0 0 40 40" style="enable-background:new 0 0 40 40;" xml:space="preserve">
<style type="text/css">
	.st0{fill:#FFFFFF;}
</style>
<path d="M20.1,32.5c-6.2,0-11.7-5.2-11.9-11.4c-0.1-3.4,1-6.5,3.3-8.9c2.2-2.3,5.2-3.7,8.2-3.8c0.2,0,0.4,0,0.5,0
	c3.3,0,6.4,1.3,8.7,3.7c2.2,2.3,3.4,5.4,3.3,8.4c0.2,6.5-5.1,11.9-11.8,12.1C20.3,32.5,20.2,32.5,20.1,32.5z M10.2,22.4
	c0.7,3.8,3.6,7,7.4,8c0.9,0.2,1.7,0.3,2.6,0.3c3.3,0,6.4-1.6,8.4-4.3c1.9-2.6,2.5-6.4,1.5-9c-0.4,0.3-0.9,0.5-1.5,0.5
	c-0.3,0-0.6,0-0.9-0.1c0,0-0.1,0-0.2,0c-0.3,0-0.7,0.1-0.9,0.3c-0.5,0.4-0.9,0.8-1.4,1.3c-0.2,0.2-0.4,0.4-0.6,0.6
	c-0.1,2.6-1.3,4.3-3.4,4.5c-0.2,0-0.4,0-0.6,0c-0.8,0-1.6-0.2-2.3-0.5c-1.2-0.5-1.9-1.6-2.2-2.9c-0.1,0-0.3-0.1-0.4-0.1
	c-0.5-0.2-1-0.3-1.4-0.5c-0.2-0.1-0.3-0.1-0.5-0.1c-0.1,0-0.3,0-0.4,0.3c-0.5,0.7-1.4,1.7-2.7,1.7C10.5,22.4,10.3,22.4,10.2,22.4z
	 M20.2,17.8c-0.7,0-1.3,0.3-1.8,0.7c-0.5,0.5-0.7,1.1-0.7,1.8c0,1.4,1.1,2.6,2.5,2.6c1.4,0,2.6-1.2,2.6-2.5c0-0.7-0.3-1.3-0.7-1.8
	C21.6,18.1,20.9,17.8,20.2,17.8l0-0.5L20.2,17.8z M10,20c0,0.1,0.1,0.4,0.2,0.5c0.1,0.1,0.2,0.1,0.4,0.1c0.2,0,0.5-0.1,0.7-0.3
	c0.2-0.2,0.3-0.3,0.5-0.5c0.6-0.7,1.1-1.1,1.9-1.1c0.4,0,0.8,0.1,1.5,0.4c0.1,0,0.2,0.1,0.2,0.1c0.1,0.1,0.2,0.1,0.3,0.1
	c0.1,0,0.2,0.1,0.3,0.1c0,0,0.1,0,0.2-0.2c0.5-1.7,1.7-2.8,3.5-3c0.3,0,0.5-0.1,0.7-0.1c1.4,0,2.6,0.6,3.4,1.8
	c0.1,0.2,0.2,0.2,0.2,0.2l0,0c0,0,0.1,0,0.2-0.1c0.3-0.2,0.5-0.4,0.7-0.6c0.6-1,1.4-1.5,2.4-1.5c0.3,0,0.6,0,0.9,0.1
	c0.2,0.1,0.4,0.1,0.6,0.1c0.2,0,0.3,0,0.4-0.2c0.2-0.4,0.2-0.7-0.2-1.2c-1.9-2.9-5.1-4.6-8.6-4.6c-1.3,0-2.6,0.3-3.9,0.8
	c-3.8,1.6-6,4.5-6.5,9.1C9.9,19.9,10,20,10,20z"/>
<path d="M14.5,27.2c-0.3,0-0.4-0.1-0.6-0.2c0,0-0.1-0.1-0.1-0.1l-0.5-0.3l0.3-0.5c0,0,0-0.1,0.1-0.1c0.1-0.2,0.2-0.4,0.5-0.5
	c0.6-0.2,1.2-0.4,1.8-0.5l0.9-0.3l0.2,0.1c0.3,0.2,0.6,0.4,0.6,0.7c0,0.3-0.3,0.8-0.6,0.9c-0.8,0.2-1.5,0.5-2.3,0.6L14.5,27.2
	L14.5,27.2z"/>
<path d="M26.4,21.8L26.4,21.8c-0.3-0.2-0.6-0.4-0.6-0.7c0-0.3,0.2-0.8,0.6-0.9c0.7-0.2,1.5-0.5,2.3-0.6l0.1,0l0.1,0
	c0.2,0,0.4,0.1,0.6,0.2c0,0,0.1,0,0.1,0.1l0.6,0.2l-0.3,0.5c0,0,0,0.1-0.1,0.1c-0.1,0.2-0.2,0.5-0.5,0.6c-0.6,0.2-1.1,0.4-1.8,0.5
	l-0.9,0.3L26.4,21.8z"/>
<path d="M24.1,28.9c-0.1-0.1-0.2-0.1-0.3-0.2l-0.4-0.3c-0.5-0.3-0.9-0.7-1.4-1c-0.2-0.2-0.3-0.5-0.3-0.7c0-0.1,0-0.1,0-0.2l-0.2-0.6
	l0.6,0c0,0,0.1,0,0.1,0c0.1,0,0.2,0,0.2,0c0.2,0,0.4,0,0.5,0.1c0.6,0.4,1.2,0.9,1.9,1.4c0.3,0.3,0.4,0.7,0.4,0.9
	c0,0.4-0.3,0.5-0.5,0.6c0,0-0.1,0-0.1,0l-0.3,0.2L24.1,28.9z"/>
<path d="M14.4,23.8c-0.5-0.1-1.1-0.2-1.5-0.3c-0.3-0.1-0.4-0.3-0.6-0.5c0,0-0.1-0.1-0.1-0.1l-0.4-0.4l1.1-0.7l0.7,0.2
	c0.4,0.1,0.8,0.2,1.1,0.3c0.3,0.1,0.4,0.3,0.5,0.5c0,0,0.1,0.1,0.1,0.1l0.4,0.5l-0.5,0.3c0,0-0.1,0.1-0.1,0.1
	C14.9,23.7,14.7,23.8,14.4,23.8L14.4,23.8z"/>
<path d="M18.7,29.1c-0.2,0-0.6-0.1-0.7-0.4c-0.1-0.2-0.2-0.7,0-1c0.3-0.5,0.7-0.9,1.1-1.4c0.2-0.2,0.6-0.3,0.7-0.3
	c0.1,0,0.2,0,0.2,0c0.3,0.1,0.4,0.3,0.5,0.4c0,0,0.1,0.1,0.1,0.2l0.2,0.3l-0.6,0.6c-0.4,0.4-0.7,0.8-1.1,1.3l-0.1,0.2L18.7,29.1z"/>
<path d="M25.7,26l-0.1-0.3c0,0,0-0.1-0.1-0.2c-0.1-0.2-0.2-0.5,0-0.8c0.3-0.5,0.6-0.9,1-1.3c0.1-0.1,0.2-0.2,0.4-0.2
	c0.2,0,0.3,0,0.5,0.1c0.1,0,0.1,0,0.2,0l0.7,0.1l-1.7,2.7L25.7,26z"/>
<path d="M12.9,16.8c-0.1,0-0.2,0-0.2,0c-0.4-0.1-0.5-0.5-0.6-0.8c0-0.5,0.4-1.2,1.2-2c0.3-0.3,1.8-1.8,2.8-1.8h0.2l0.1,0.1
	c0.2,0.1,0.4,0.2,0.5,0.5c0.1,0.3-0.1,0.8-0.4,1c-1.2,0.6-2.1,1.5-2.8,2.7C13.5,16.8,13,16.8,12.9,16.8z"/>
</svg>
