<?xml version="1.0" encoding="utf-8"?>
<!-- Generator: Adobe Illustrator 22.0.0, SVG Export Plug-In . SVG Version: 6.00 Build 0)  -->
<svg version="1.1" id="Layer_1" xmlns="http://www.w3.org/2000/svg" xmlns:xlink="http://www.w3.org/1999/xlink" x="0px" y="0px"
	 viewBox="0 0 40 40" style="enable-background:new 0 0 40 40;" xml:space="preserve">
<style type="text/css">
	.st0{fill:#FFFFFF;}
</style>
<g>
	<path d="M27.3,6.5c-0.1-0.5-0.4-0.8-0.9-0.8c-4.3,0-8.5,0-12.8,0c-0.5,0-0.9,0.2-0.9,0.8c-0.1,0.5-0.1,1-0.2,1.5
		c-0.2,2.7-0.1,5.3,0.9,7.8c0.9,2.2,2.4,3.7,4.8,4.3c0.3,0.1,0.6,0.1,0.9,0.2c0,4.1,0,8.2,0,12.3c-1.1,0-2.1,0-3.1,0
		c-0.6,0-1,0.2-1,0.9c0,0.6,0.4,0.8,1,0.8c1.6,0,3.2,0,4.8,0c1.1,0,2.2,0,3.3,0c0.5,0,0.9-0.3,0.8-0.8c-0.1-0.3-0.4-0.6-0.7-0.8
		c-0.2-0.1-0.5,0-0.8,0c-0.8,0-1.7,0-2.6,0c0-4.2,0-8.2,0-12.3c0.1,0,0.3-0.1,0.4-0.1c2.4-0.4,4.1-1.8,5.1-4
		C27.8,13.1,27.8,9.8,27.3,6.5z M24.6,16.1c-1,1.8-2.7,2.5-4.7,2.5c-2,0-3.6-0.9-4.5-2.7c-0.7-1.3-1-2.8-1.1-4.2
		c-0.1-1.4,0-2.8,0-4.2c3.9,0,7.7,0,11.6,0C26,10.4,26.1,13.4,24.6,16.1z"/>
	<path d="M19.7,15.7C19.7,15.7,19.7,15.7,19.7,15.7c-1.1-0.1-1.7-0.7-2-1.6c-0.2-0.4-0.3-0.9-0.4-1.4c-0.1-0.8-0.2-1.6-0.3-2.4
		c0-0.5-0.3-0.9-0.8-0.9c-0.6,0-0.8,0.4-0.8,0.9c0,0.2,0,0.4,0,0.6c0.1,1.5,0.3,3,1,4.3c0.7,1.2,1.7,1.9,3.1,2c0.5,0,1-0.1,1-0.7
		C20.6,16,20.3,15.7,19.7,15.7z"/>
</g>
</svg>
