<?xml version="1.0" encoding="utf-8"?>
<!-- Generator: Adobe Illustrator 22.0.0, SVG Export Plug-In . SVG Version: 6.00 Build 0)  -->
<svg version="1.1" id="Layer_1" xmlns="http://www.w3.org/2000/svg" xmlns:xlink="http://www.w3.org/1999/xlink" x="0px" y="0px"
	 viewBox="0 0 40 40" style="enable-background:new 0 0 40 40;" xml:space="preserve">
<style type="text/css">
	.st0{fill:#FFFFFF;}
</style>
<g>
	<path d="M24.3,22.1C24.2,22,24,22,23.8,22c-0.3,0-0.4,0.2-0.4,0.5C23,23.8,22.3,25,21.3,26c-0.4,0.4-0.9,0.7-1.4,1
		c-0.2,0.1-0.3,0.3-0.3,0.6c0.1,0.2,0.2,0.4,0.4,0.4c0.2,0,0.3-0.1,0.5-0.1c1.8-1,3-2.5,3.7-4.5c0.1-0.3,0.2-0.6,0.3-0.9
		C24.4,22.3,24.4,22.2,24.3,22.1z"/>
	<path d="M12.7,16.8c0.3,0,0.6-0.2,0.6-0.5c0-0.3-0.2-0.5-0.5-0.5c-0.3,0-0.5,0.2-0.5,0.5C12.2,16.6,12.5,16.8,12.7,16.8z"/>
	<path d="M14.8,14.7c0.3,0,0.6-0.2,0.6-0.5c0-0.3-0.2-0.5-0.5-0.5c-0.3,0-0.5,0.2-0.5,0.5C14.3,14.5,14.5,14.7,14.8,14.7z"/>
	<path d="M17.4,16.8c0.3,0,0.5-0.2,0.5-0.5c0-0.3-0.2-0.5-0.5-0.5c-0.3,0-0.5,0.2-0.5,0.5C16.9,16.6,17.1,16.8,17.4,16.8z"/>
	<path d="M10.7,15.8c0.3,0,0.5-0.2,0.5-0.5c0-0.3-0.2-0.5-0.5-0.5c-0.3,0-0.5,0.2-0.5,0.5C10.2,15.5,10.4,15.8,10.7,15.8z"/>
	<path d="M35.7,9.8c-0.8-0.5-1.8-0.4-2.5,0.3c-1.9,2-3.9,3.9-5.8,5.9c-0.2,0.2-0.4,0.4-0.6,0.6c-0.4-0.4-0.8-0.7-1.3-0.7
		c-0.3,0-0.5,0-0.8,0c-0.1,0-0.2,0-0.3-0.1c-0.6-1.2-1.6-1.7-2.9-1.5c-0.2,0-0.2-0.1-0.3-0.2c-0.5-0.9-1.3-1.5-2.4-1.4
		c-0.5,0-0.7-0.1-0.9-0.5c-0.5-1.1-1.5-1.6-2.7-1.6c-1.2,0-2.1,0.5-2.7,1.6c0,0.1-0.1,0.1-0.1,0.2c-0.3-0.1-0.6-0.1-0.9-0.2
		c-1.9-0.3-3.7,1-4,2.9c0,0.1,0,0.2-0.2,0.2c-1.2,0.1-2.1,1.2-1.9,2.4c0,0.1,0,0.1,0,0.2c-0.8-0.1-1.5,0.1-1.9,0.7v1.7
		C4,20.8,4.4,21,5,21.1c0.1,0.4,0.1,0.8,0.2,1.2c0.6,4,3.7,7.3,7.7,8.1c0.7,0.2,1.5,0.2,2.3,0.2c0.9,0,1.8,0,2.8,0
		c4-0.1,7-2,8.9-5.6c0.6-1.1,0.9-2.4,1-3.7c0-0.2,0.1-0.3,0.3-0.3c0.8-0.1,1.4-0.8,1.3-1.7c-0.1-0.8-0.7-1.4-1.5-1.4
		c-0.2,0-0.4,0-0.5,0c-0.1-0.2,0-0.4,0.1-0.5c2.2-2.2,4.3-4.4,6.4-6.6c0.5-0.5,1.2-0.4,1.5,0.1c0.1,0.2,0.1,0.4,0.2,0.5
		c0,0.3,0,0.7,0,1c0,0.3,0.1,0.5,0.3,0.6c0.1,0.1,0.3,0.1,0.4,0v-2.6C36.2,10.2,36,9.9,35.7,9.8z M7.9,16.4c0.5,0.1,0.8-0.1,0.8-0.6
		c0-2,2.1-3.2,3.9-2.3c0.4,0.2,0.7,0.1,0.8-0.4c0.3-1,1.2-1.6,2.2-1.5c1,0.1,1.7,0.8,1.9,1.8c0.1,0.5,0.4,0.7,0.8,0.4
		c1-0.5,2.1,0,2.3,1.1c0.1,0.5,0.4,0.7,0.9,0.4c1-0.6,2.2,0.2,2.2,1.2c0,0.2,0.1,0.4,0.3,0.5c0.2,0.1,0.4,0,0.6-0.1
		c0.5-0.4,1.1-0.3,1.5,0.2c-0.2,0.2-0.3,0.3-0.5,0.5c-0.1,0.1-0.2,0.1-0.4,0.1c-1.9,0-3.9,0-5.8,0c-4.1,0-8.3,0-12.4,0
		c-0.4,0-0.4,0-0.5-0.4C6.5,16.7,7.1,16.2,7.9,16.4z M26.5,22.9c-1,3.4-3.2,5.5-6.6,6.4c-0.6,0.2-1.3,0.2-1.9,0.2c-1,0-2,0-3,0
		c-4,0-7.6-2.7-8.6-6.6c-0.1-0.5-0.2-1-0.3-1.6c0-0.3,0-0.3,0.3-0.3c1.4,0,2.8,0,4.3,0c3.2,0,6.3,0,9.5,0c2.1,0,4.2,0,6.3,0
		c0.1,0,0.2,0,0.3,0C26.7,21.7,26.6,22.3,26.5,22.9z M27.6,18.9c0.1,0,0.2,0,0.3,0c0.3,0,0.4,0.3,0.4,0.5c0,0.3-0.2,0.5-0.5,0.5
		c-0.3,0-0.5,0-0.8,0c-3.5,0-7.1,0-10.6,0c-3.7,0-7.5,0-11.2,0C5.1,20,5,20,5,20c-0.3,0-0.5-0.2-0.5-0.5C4.5,19.2,4.7,19,5,19
		c0.7,0,1.4,0,2.1,0c5,0,10.1,0,15.1,0C24,18.9,25.8,18.9,27.6,18.9z"/>
</g>
</svg>
