<?xml version="1.0" encoding="utf-8"?>
<!-- Generator: Adobe Illustrator 22.0.0, SVG Export Plug-In . SVG Version: 6.00 Build 0)  -->
<svg version="1.1" id="Layer_1" xmlns="http://www.w3.org/2000/svg" xmlns:xlink="http://www.w3.org/1999/xlink" x="0px" y="0px"
	 viewBox="0 0 40 40" style="enable-background:new 0 0 40 40;" xml:space="preserve">
<style type="text/css">
	.st0{fill:#FFFFFF;}
</style>
<g>
	<path d="M32.5,25.3c0.3-1.5,0-2.9,0-4.3c0.1-2,1-3.9,0.9-6c0-5.8-3.8-9.6-9.6-9.6c-2.5,0-5.1,0.1-7.6,0C10.4,5.2,5.7,9.6,6.6,17.3
		c0,0.2,0.1,0.4,0.2,0.4c1,0.5,0.7,1.4,0.7,2.2c0,1.5-0.1,3,0,4.4c0.1,1.2,0.4,2.4,0.6,3.7c-1.6,0.2-1.6,0.2-1.6,2.1
		c0,0.5,0,1.1,0,1.6c0.1,1.8,1,2.8,2.8,2.8c7.1,0,14.3,0,21.4,0c1.8,0,2.8-1,2.7-2.8c0-1.3,0.4-2.7-0.5-4
		C32.5,27.2,32.4,26.1,32.5,25.3z M15.9,6.8c2.7,0,5.3,0,8,0c5,0,8.3,3.3,8.3,8.3c0,0.5,0,1,0,1.5c-8.1,0-16,0-24,0
		C7,11.5,10.6,6.8,15.9,6.8z M31.3,23.9c-1,1.1-2.1,2.1-3.2,3.2c-1.1-1-2.2-1.8-3-2.8c-0.4-0.5-0.3-1.4-0.5-2.3c2.1,0,4-0.1,5.9,0
		C31.6,22.1,32,23.2,31.3,23.9z M31.4,27.4c-0.5,0.4-1.2,0.6-1.8,0.8c0-0.1-0.1-0.3-0.1-0.4c0.6-0.6,1.2-1.1,2-1.9
		C31.4,26.6,31.6,27.2,31.4,27.4z M19.4,21.2c-1.3,0-2.2,0.8-2.4,2.2c0,0,0,0.1,0,0.1c0,0.7,0.1,1.6-0.9,1.6c-1-0.1-0.8-1-0.9-1.7
		c-0.1-1.4-0.9-2.2-2.2-2.2c-1.3,0-2.2,0.8-2.3,2.2c-0.1,0.8,0,1.5-0.1,2.3c-0.1,0.3-0.5,0.6-0.7,0.9c-0.3-0.3-0.9-0.6-0.9-0.9
		c-0.1-2.4,0-4.9,0-7.5c5.6,0,11,0,16.4,0c1.6,0,3.3,0,4.9,0c0.9,0,1.4,0.4,1.4,1.2c0,0.8-0.6,1.1-1.4,1.1c-1.3,0-2.7,0-4,0
		c-0.6,0-1.4,0.2-1.5-0.8c0-0.1-0.6-0.4-0.7-0.3c-0.2,0.1-0.5,0.5-0.5,0.8c-0.1,1.6-0.1,3.1-0.1,4.7c0,0.3,0,0.7-0.2,1
		c-0.4,0.5-1.2,0.3-1.3-0.4c-0.1-0.7-0.1-1.3-0.2-2C21.5,22,20.7,21.2,19.4,21.2z M20.5,24.3c-0.9,0-1.4,0-2.2,0
		c0.2-0.6,0.3-1.1,0.6-1.6c0.1-0.1,0.7-0.2,0.8,0C20,23.1,20.2,23.6,20.5,24.3z M14.2,24.3c-0.9,0-1.4,0-2.2,0
		c0.2-0.6,0.3-1.1,0.5-1.6c0.1-0.1,0.7-0.2,0.8-0.1C13.6,23,13.8,23.5,14.2,24.3z M12.5,25.6c0.7,0.2,1.6,0.6,2.6,0.7
		c0.7,0.1,1.6,0.2,2.3-0.1c1.6-0.7,2.3-0.7,3.5,0.6c0.9,1,2.5,1,3.4,0.1c0.3-0.3,0.5-0.6,0.7-0.9c0.6,0.6,1.2,1.2,1.9,1.9
		c-5.3,0-10.5,0-15.7,0C11.5,27.2,11.9,26.6,12.5,25.6z M29,33.2c-6.1,0-12.2,0-18.3,0c-2.7,0-2.7,0-2.7-2.8c0-0.2,0-0.5,0.1-0.8
		c8,0,16,0,24,0C32.4,33.1,32.2,33.2,29,33.2z"/>
	<path d="M12.2,12.7c0.3,0,0.6-0.4,1.1-0.7c-0.5-0.4-0.8-0.8-1.1-0.8c-0.3,0-0.6,0.5-0.8,0.7C11.7,12.2,11.9,12.7,12.2,12.7z"/>
	<path d="M26,9.8c0.3,0,0.7-0.5,0.7-0.7c0-0.3-0.4-0.6-0.8-1.1c-0.3,0.5-0.7,0.8-0.7,1.1C25.2,9.4,25.7,9.8,26,9.8z"/>
	<path d="M24,12.7c0.3,0,0.6-0.4,1.1-0.7c-0.5-0.4-0.8-0.8-1.1-0.8c-0.3,0-0.8,0.5-0.8,0.7C23.2,12.2,23.7,12.7,24,12.7z"/>
	<path d="M20.1,12.7c0.3,0,0.6-0.4,1.1-0.8c-0.5-0.4-0.8-0.8-1.1-0.8c-0.3,0-0.8,0.5-0.8,0.7C19.3,12.2,19.8,12.7,20.1,12.7z"/>
	<path d="M27.9,12.7c0.3,0,0.6-0.4,1.1-0.7c-0.5-0.4-0.8-0.8-1.1-0.8c-0.3,0-0.6,0.5-0.8,0.7C27.4,12.2,27.6,12.7,27.9,12.7z"/>
	<path d="M18.1,9.8c0.3,0,0.6-0.3,1.2-0.6c-0.5-0.4-0.8-0.8-1.1-0.8c-0.3,0-0.7,0.4-0.8,0.7C17.3,9.3,17.8,9.8,18.1,9.8z"/>
	<path d="M14.9,9.1c0-0.3-0.4-0.7-0.7-0.8c-0.3,0-0.6,0.3-1.1,0.7c0.5,0.4,0.8,0.8,1.1,0.8C14.4,9.8,14.9,9.4,14.9,9.1z"/>
	<path d="M22,9.8c0.3,0,0.7-0.4,0.8-0.7c0-0.3-0.3-0.6-0.6-1.1c-0.4,0.5-0.8,0.8-0.8,1.1C21.3,9.3,21.7,9.8,22,9.8z"/>
	<path d="M16.2,12.7c0.3,0,0.6-0.4,1.1-0.8c-0.5-0.3-0.8-0.7-1.1-0.7c-0.3,0-0.7,0.5-0.7,0.8C15.4,12.3,15.9,12.7,16.2,12.7z"/>
</g>
</svg>
