<?xml version="1.0" encoding="utf-8"?>
<!-- Generator: Adobe Illustrator 22.0.0, SVG Export Plug-In . SVG Version: 6.00 Build 0)  -->
<svg version="1.1" id="Layer_1" xmlns="http://www.w3.org/2000/svg" xmlns:xlink="http://www.w3.org/1999/xlink" x="0px" y="0px"
	 viewBox="0 0 40 40" style="enable-background:new 0 0 40 40;" xml:space="preserve">
<style type="text/css">
	.st0{fill:#FFFFFF;}
</style>
<g>
	<path d="M20.9,9.6c0.3-1.7,1.3-2.6,3.1-3c0.5-0.1,1.3,0,1-0.8c-0.1-0.3-0.9-0.5-1.3-0.5c-1.8,0.2-3,1.2-3.9,2.7
		c-2.2-1.5-2.7-1.7-4.8-1.6c-0.9,0-1.2,0.4-1.2,1.2c0.1,1.1,0.2,2.1,0.3,3.2C7,14.5,6.2,21.3,7.9,26c2,5.8,7.9,9.5,13.7,8.6
		c6.5-1,11.1-6,11.3-12.3C33,15.6,29.1,11.4,20.9,9.6z M15.3,7.9c2.7-0.3,4,1,3.8,3.7C16.7,12.2,15,10.6,15.3,7.9z M16.3,32.6
		c-5.8-1.9-9-8.2-7.2-14c0.9-2.8,2.7-4.9,5.4-6.2c0.3-0.2,0.8,0,1.2,0.1c1,0.3,1.9,0.6,2.8,0.9c0.3,0.1,0.6,0.2,0.9,0.4
		c0.3,0.1,0.7,0.4,0.8,0.3c0.2-0.1,0.4-0.5,0.4-0.8c0.1-0.6,0-1.3,0-2c7.1,0.2,12.9,6.6,10,14.6C28.7,31.6,22.2,34.6,16.3,32.6z"/>
	<path d="M21.1,13.9c-0.4,0.4-0.8,0.8-1.1,1.2c-0.2,0.2-0.6,0.6-0.5,0.8c0,0.2,0.5,0.4,0.6,0.6c1.2,0,2.4-1.1,2.4-2.1
		c0-0.3-0.3-0.6-0.4-0.9C21.7,13.5,21.4,13.7,21.1,13.9z"/>
</g>
</svg>
