<?xml version="1.0" encoding="utf-8"?>
<!-- Generator: Adobe Illustrator 22.0.0, SVG Export Plug-In . SVG Version: 6.00 Build 0)  -->
<svg version="1.1" id="Layer_1" xmlns="http://www.w3.org/2000/svg" xmlns:xlink="http://www.w3.org/1999/xlink" x="0px" y="0px"
	 viewBox="0 0 40 40" style="enable-background:new 0 0 40 40;" xml:space="preserve">
<style type="text/css">
	.st0{fill:#FFFFFF;}
</style>
<g>
	<path d="M33.7,27.9c-7.2-7.2-14.4-14.4-21.6-21.6C11,5.2,10.8,5.2,9.8,6.4C5.3,11.8,4.2,17.9,7,24.4c2.9,6.6,8.3,9.8,14.6,10.1
		c5.1,0,8.8-1.4,12-4.2C34.9,29.2,34.9,29.1,33.7,27.9z M29.5,26.1c-4.2,3.8-11.1,3.5-15.1-0.9c-4-4.2-4.1-11-0.3-14.7
		C19.2,15.7,24.4,20.9,29.5,26.1z M12.1,29.2C5.2,23.1,5.5,12.8,11,7.3c0.7,0.7,1.4,1.4,2,2.1C8,15.5,9.8,22.5,13.2,26.1
		c4.7,4.9,10.2,5.2,17.5,1c0.6,0.7,1.2,1.4,1.8,2.1C28.8,33.4,19,35.4,12.1,29.2z"/>
	<path d="M17.8,17c-0.2-0.2-0.3-0.6-0.6-0.7c-0.2-0.1-0.6-0.1-0.9-0.1c0,0,0,0,0,0c-0.3,0-0.6-0.1-0.9,0c-0.3,0.1-0.4,0.4-0.6,0.6
		c0.4,0.3,0.8,0.7,1.2,0.7C16.7,17.6,17.2,17.2,17.8,17z"/>
	<path d="M17.9,23.3c0.6-0.9,1.1-1.5,1.6-2.2c0,0-0.6-0.6-0.6-0.5c-0.6,0.6-1.2,1.2-1.7,1.8C17.1,22.4,17.5,22.8,17.9,23.3z"/>
	<path d="M22.5,24.6c0.3,0.2,0.7,0.3,1.1,0.4c0.1-0.4,0.2-0.8,0.4-1.5c-0.2-0.3-0.5-1.2-0.8-1.2c-1,0-0.6,0.8-0.7,1.4
		C22.4,24.1,22.3,24.5,22.5,24.6z"/>
</g>
</svg>
