<?xml version="1.0" encoding="utf-8"?>
<!-- Generator: Adobe Illustrator 22.0.0, SVG Export Plug-In . SVG Version: 6.00 Build 0)  -->
<svg version="1.1" id="Layer_1" xmlns="http://www.w3.org/2000/svg" xmlns:xlink="http://www.w3.org/1999/xlink" x="0px" y="0px"
	 viewBox="0 0 40 40" style="enable-background:new 0 0 40 40;" xml:space="preserve">
<style type="text/css">
	.st0{fill:#FFFFFF;}
</style>
<g>
	<path d="M14.6,13.5c-2.5-1.8-2.9-4.2-2.8-6.9c0-0.8,0.4-1.1,1.2-1.1c2.9-0.2,5.4,0.4,7.1,3.2c1.7-2.7,4.1-3.3,6.9-3.2
		c0.9,0,1.3,0.3,1.3,1.3c0.1,2.6-0.3,5.1-2.8,6.8c1,0.4,1.9,0.7,2.8,1.1c3,1.5,4.4,4.1,3.7,7.4c-0.8,3.9-2.7,7.3-5.7,10
		c-3.9,3.6-8.4,3.7-12.4,0.2c-3-2.7-5-6.1-5.8-10c-0.8-3.5,0.7-6.2,4-7.7C12.8,14,13.6,13.8,14.6,13.5z M20.1,14.2
		c0,0.1,0,0.2,0,0.3c-0.8,0-1.6-0.1-2.3,0c-2,0.4-4.1,0.8-5.9,1.6c-2,0.8-2.9,2.7-2.6,4.9c0.8,4.6,3,8.3,6.8,11
		c2.6,1.8,5.2,1.7,7.8,0c3.4-2.3,5.3-5.6,6.4-9.4c1-3.6-0.2-6.1-3.8-7.2C24.5,14.7,22.3,14.6,20.1,14.2z M20.8,12.9
		c4.2,0.7,6.8-2.7,5.8-6C22.5,6.5,20.4,8.7,20.8,12.9z M13.3,7c-0.7,3.9,2.2,6.8,5.8,5.8C19.5,8.5,17.2,6.2,13.3,7z"/>
	<path d="M19.3,29.3c-0.7,0.5-1.1,1-1.5,0.9c-0.4,0-0.7-0.6-1.1-0.9c0.4-0.4,0.7-0.9,1.1-1C18.2,28.2,18.6,28.8,19.3,29.3z"/>
	<path d="M19.3,21.2c-0.7,0.5-1.1,1.1-1.4,1.1c-0.4-0.1-0.8-0.6-1.2-1c0.3-0.3,0.7-0.9,1-1C18.1,20.3,18.6,20.8,19.3,21.2z"/>
	<path d="M17.1,25.2c-0.7,0.5-1.1,1-1.5,1c-0.4,0-1-0.6-1-0.9c0-0.4,0.5-1.1,0.9-1.1C15.9,24.2,16.4,24.7,17.1,25.2z"/>
	<path d="M28.1,21.3c-0.7,0.5-1.1,1-1.4,1c-0.4,0-0.7-0.6-1.1-0.9c0.4-0.4,0.7-1,1.1-1.1C27,20.3,27.4,20.8,28.1,21.3z"/>
	<path d="M25.9,25.4c-0.7,0.4-1.1,0.9-1.5,0.9c-0.4-0.1-0.7-0.6-1-1c0.4-0.4,0.7-0.9,1.1-1C24.9,24.2,25.3,24.8,25.9,25.4z"/>
	<path d="M19.9,23.7c0.5,0.7,1.1,1.1,1,1.5c0,0.4-0.5,1-0.9,1c-0.4,0-1-0.5-1.1-0.8C19,25,19.5,24.5,19.9,23.7z"/>
	<path d="M17.1,17.7c-0.7,0.5-1.1,1.1-1.4,1c-0.4-0.1-0.7-0.7-1.1-1c0.4-0.3,0.7-0.9,1.1-0.9C16,16.8,16.4,17.3,17.1,17.7z"/>
	<path d="M25.9,17.7c-0.7,0.5-1.1,1.1-1.4,1c-0.4-0.1-0.8-0.7-1.1-1c0.3-0.3,0.7-0.9,1-0.9C24.8,16.7,25.2,17.2,25.9,17.7z"/>
	<path d="M13.3,22.8c-0.5-0.7-1-1.2-0.9-1.5c0.1-0.4,0.7-0.7,1.1-1c0.3,0.4,0.8,0.7,0.9,1.1C14.3,21.8,13.8,22.1,13.3,22.8z"/>
	<path d="M20,16.2c0.5,0.7,1,1.1,1,1.4c0,0.4-0.6,0.7-0.9,1.1c-0.4-0.4-1-0.7-1.1-1.1C18.9,17.4,19.5,17,20,16.2z"/>
	<path d="M22.2,27.6c0.5,0.8,1,1.2,1,1.5c0,0.4-0.6,1-0.9,1c-0.3,0-1-0.5-1-0.9C21.2,28.9,21.7,28.5,22.2,27.6z"/>
	<path d="M23.8,21.3c-0.7,0.5-1.2,1-1.5,1c-0.4-0.1-0.7-0.6-1.1-1c0.3-0.3,0.7-0.9,1-1C22.6,20.3,23,20.8,23.8,21.3z"/>
</g>
</svg>
