<?xml version="1.0" encoding="utf-8"?>
<!-- Generator: Adobe Illustrator 22.0.0, SVG Export Plug-In . SVG Version: 6.00 Build 0)  -->
<svg version="1.1" id="Layer_1" xmlns="http://www.w3.org/2000/svg" xmlns:xlink="http://www.w3.org/1999/xlink" x="0px" y="0px"
	 viewBox="0 0 40 40" style="enable-background:new 0 0 40 40;" xml:space="preserve">
<style type="text/css">
	.st0{fill:#FFFFFF;}
</style>
<g>
	<path d="M34.6,23.4c-0.1-1.8-0.1-3.7-0.6-5.5c-1.9-6.7-9.2-11-16.4-9.9c-5.7,0.8-10.8,5.4-12,11c-1.1,5.1,0.7,7.8,6,7.5
		c2-0.1,4-0.2,6.1-0.4c0,0.8,0.1,1.4,0.1,2.1c0,0.7,0,1.4,0,2c0.1,1.3,1,2.1,2.2,2.1c1.2,0,2-0.8,2.1-2.1c0-0.5,0-0.9,0-1.4
		c0-0.7-0.3-1.8,0.8-1.8c1.2-0.1,0.8,1,0.9,1.7c0.1,1.2,0.9,2,2.1,2.1c1.2,0.1,2-0.6,2.3-1.9c0.1-0.4,0-0.8,0.1-1.1
		c0.1-0.3,0.5-0.6,0.7-0.9c0.3,0.3,0.7,0.6,0.8,0.9c0.1,0.4,0,0.9,0,1.4c0.1,1.7,0.9,2.6,2.3,2.6c1.3,0,2.1-1,2.2-2.6
		C34.7,27.2,34.7,25.3,34.6,23.4z M33.2,29.2c0,0.4-0.5,0.8-0.8,1.2c-0.3-0.4-0.7-0.8-0.8-1.2c-0.1-0.5,0-1.1-0.1-1.6
		c-0.1-1.2-1.1-2-2.2-2c-1.2,0-2.1,0.9-2.2,2.1c0,0.3,0.1,0.6,0,0.7c-0.2,0.4-0.5,0.7-0.8,1c-0.3-0.3-0.7-0.5-0.9-0.9
		c-0.2-0.3-0.1-0.7-0.1-1.1c-0.2-1.1-1.1-1.9-2.2-1.9c-1.1,0-2,0.8-2.2,1.9c-0.1,0.8,0.1,1.5-0.1,2.3c-0.1,0.4-0.5,0.7-0.7,1.1
		c-0.3-0.4-0.9-0.7-0.9-1.1c-0.1-1.7,0-3.4-0.1-5.1c0-0.4-0.3-0.7-0.4-1.1c-0.3,0.2-0.6,0.4-0.9,0.6c-0.2,0.1-0.4,0.3-0.6,0.3
		c-2.4,0.1-4.9,0.3-7.3,0.3c-2.3,0-3.2-1.1-3.2-3.3c-0.1-3.3,1.3-6.1,3.6-8.4c3.8-3.7,8.4-5.1,13.5-3.5c4.7,1.5,8,4.6,9.1,9.6
		c0.4,1.7,0.2,3.6,0.3,5.4c0,0-0.1,0-0.1,0C33.2,26.2,33.3,27.7,33.2,29.2z"/>
	<path d="M14.1,14.5c-1.2,1.2-1.8,2.7-1.3,4.4c0.5,1.7,1.8,2.4,3.4,2.7c1.2,0.2,2.5,0.3,3.9,0.5c1.3-0.2,2.7-0.2,4-0.5
		c3.5-0.9,4.4-4.3,1.9-6.9C23,11.5,17.1,11.4,14.1,14.5z M24.2,20c-0.4,0.1-0.7,0.2-1.1,0.3c-1.1,0.1-2.2,0.2-3.4,0.3
		c-1.1-0.2-2.3-0.2-3.5-0.5c-2.4-0.6-3-2.7-1.2-4.5c2.1-2.1,4.7-2.4,7.4-1.6c1.3,0.4,2.5,1.1,3.2,2.4C26.4,17.9,25.9,19.4,24.2,20z"
		/>
	<path d="M18.8,14.8c-1-0.2-2.9,1.3-3,2.3c0,0.3,0.3,0.7,0.4,1.1c0.3-0.2,0.5-0.2,0.6-0.3c0.4-1,1.3-1.5,2.2-1.8
		c0.2-0.1,0.3-0.5,0.2-0.7C19.2,15.1,19,14.8,18.8,14.8z"/>
</g>
</svg>
