<?xml version="1.0" encoding="utf-8"?>
<!-- Generator: Adobe Illustrator 22.0.0, SVG Export Plug-In . SVG Version: 6.00 Build 0)  -->
<svg version="1.1" id="Layer_1" xmlns="http://www.w3.org/2000/svg" xmlns:xlink="http://www.w3.org/1999/xlink" x="0px" y="0px"
	 viewBox="0 0 40 40" style="enable-background:new 0 0 40 40;" xml:space="preserve">
<style type="text/css">
	.st0{fill:#FFFFFF;}
</style>
<g>
	<path d="M24.9,8c-0.5-0.5-1-1.1-1.5-1.5c-2.1-1.7-4.5-1.7-6.6,0c-1.1,1-2.1,2.1-2.9,3.3c-2.5,3.9-3.9,8.3-4.5,12.9
		c-0.9,6,3.4,11.4,9.5,11.9c6.8,0.5,12-4,12-10.4C30.7,19.5,28,11.7,24.9,8z M28.1,29.1c-1.9,3-4.8,4.2-8.1,4.3
		c-6.2-0.2-10.1-4.8-9.2-11c0.6-4.4,2.1-8.5,4.5-12.2c0.4-0.6,0.8-1.1,1.2-1.6c2.4-2.7,4.7-2.7,7,0.1c3,3.6,4.5,7.9,5.5,12.5
		C29.6,23.9,29.7,26.6,28.1,29.1z"/>
	<path d="M16.5,12.8c-2.4,3.2-3.7,6.8-3.9,10.8c-0.2,4.3,3,7.4,7.5,7.5c4.4,0,7.5-3.1,7.5-8c-0.3-3.4-1.5-7.1-3.9-10.3
		C21.4,10,18.6,10,16.5,12.8z M26,22.7c0.6,3.9-2.1,7-6.1,6.9c-3.9,0-6.5-2.9-6-6.8c0.3-2.9,1.3-5.7,2.8-8.2c0.4-0.7,1-1.4,1.6-1.9
		c1.2-1,2.2-1,3.3,0.1c2.2,2.2,3.2,5,3.9,7.9C25.9,21.5,26,22.1,26,22.7z"/>
	<path d="M15.1,23.4c0,2.6,2.3,4.9,5,4.9c2.6,0,4.8-2.3,4.8-4.9c0-2.9-2.4-5.7-4.9-5.6C17.4,17.8,15.1,20.5,15.1,23.4z M23.5,23.4
		c0,2-1.5,3.6-3.5,3.5c-2,0-3.5-1.6-3.5-3.6c0-2.1,1.7-4.1,3.5-4.1C21.8,19.2,23.5,21.2,23.5,23.4z"/>
	<path d="M18.1,22.6c0.5-0.6,1-1.1,1.4-1.8c0.1-0.1-0.3-0.5-0.7-1.1c-0.6,0.9-1,1.5-1.4,2.1C17.5,22,17.9,22.4,18.1,22.6z"/>
</g>
</svg>
