<?xml version="1.0" encoding="utf-8"?>
<!-- Generator: Adobe Illustrator 22.0.0, SVG Export Plug-In . SVG Version: 6.00 Build 0)  -->
<svg version="1.1" id="Layer_1" xmlns="http://www.w3.org/2000/svg" xmlns:xlink="http://www.w3.org/1999/xlink" x="0px" y="0px"
	 viewBox="0 0 40 40" style="enable-background:new 0 0 40 40;" xml:space="preserve">
<style type="text/css">
	.st0{fill:#FFFFFF;}
</style>
<g>
	<path d="M34.6,20.3c-0.6-3.2-2.9-5-6.5-5c-4.8,0-9.5,0-14.3,0c-1.2,0-2.4,0-3.5,0.1c-4.2,0.6-6.4,5.4-4.1,8.9
		c0.6,0.9,0.8,1.8,0.7,2.8c-0.1,1.3-0.2,2.5-0.3,3.8c-0.2,2.1,0.8,3.3,3,3.3c3.5,0,6.9,0,10.4,0c3.5,0,7.1,0,10.6,0
		c2.1,0,3.1-1.2,3-3.2c-0.1-1.5-0.3-2.9-0.3-4.4c0-0.7,0.2-1.4,0.5-1.9C34.5,23.3,34.9,21.9,34.6,20.3z M22.4,24.3
		c-0.3,0.3-0.5,0.9-0.4,1.3c0.1,1.7,0.2,3.4,0.4,5.2c0.1,1.5-0.2,1.9-1.7,2c-1.9,0-3.7,0-5.6,0c0,0,0,0,0,0c-1.9,0-3.7,0-5.6,0
		c-1.1,0-1.7-0.5-1.5-1.6C8,30.1,8.1,29,8.2,27.9c0.1-1.6,0.1-3-0.9-4.6c-1.8-2.7,0.4-6.4,3.7-6.5c2.7-0.1,5.4-0.1,8.1,0
		c1.9,0.1,3.4,1,4.1,2.8C23.8,21.3,23.6,22.9,22.4,24.3z M25.4,26.2c0.2,1.5,0.2,3.1,0.3,4.7c0.1,1.8-0.1,2-1.9,1.9
		c-0.1-1.1-0.1-2.2-0.2-3.2c-0.2-2.2-0.3-4.1,0.9-6.3c1.2-2.1,0.4-4.4-1.3-6.3c1.5,0.1,2.8,1,3.4,2.4c0.7,1.6,0.6,3.2-0.5,4.5
		C25.5,24.7,25.3,25.3,25.4,26.2z M29.1,30.9c0.1,1.7-0.1,1.9-1.8,1.9c-0.2-2.1-0.3-4.2-0.4-6.2c0-0.5,0.1-1.2,0.3-1.6
		c1.7-2.6,1.7-5.1-0.3-7.6c-0.1-0.1-0.2-0.3-0.3-0.4c2.9,0.1,5,4.2,2.8,7.1c-0.4,0.6-0.7,1.4-0.7,2.1C28.8,27.8,28.9,29.3,29.1,30.9
		z M33.2,22.4c-0.1,0.4-0.2,0.8-0.4,1c-1.3,1.2-1.1,2.7-0.9,4.2c0.1,1.2,0.2,2.4,0.3,3.7c0.1,1.1-0.4,1.6-1.5,1.4
		c-0.2-2.2-0.3-4.3-0.4-6.4c0-0.4,0-0.9,0.2-1.3c1.9-3.1,1.9-5-0.2-7.9C32.2,17.4,33.9,20.1,33.2,22.4z"/>
	<path d="M19.6,13.9c0.3,0,0.7-0.2,1-0.4c-0.2-0.3-0.4-0.6-0.6-0.9c-0.3-0.4-0.9-0.8-0.8-1.1c0.1-0.4,0.7-0.7,1.1-1
		c0.2-0.1,0.5-0.1,0.7-0.2c1-0.5,1.5-1.4,1.3-2.5c-0.1-1.1-0.8-1.9-1.9-2c-0.3,0-0.7,0.3-1,0.5C19.6,6.5,19.8,6.7,20,7
		c0.3,0.4,0.6,0.8,0.9,1.3c-0.4,0.3-0.8,0.7-1.2,0.8c-1.3,0.4-2,1.1-2,2.4C17.7,12.8,18.4,13.7,19.6,13.9z"/>
	<path d="M13.6,13.9c0.3,0,0.7-0.2,1.1-0.4c-0.2-0.3-0.3-0.6-0.6-0.9c-0.3-0.4-0.6-0.7-1-1.1c0.4-0.3,0.8-0.8,1.2-1
		c1.2-0.4,2-1.2,2-2.4c0-1.2-0.7-2.1-1.8-2.3c-0.4-0.1-0.8,0.2-1.1,0.4c0.2,0.3,0.4,0.6,0.7,0.9c0.3,0.4,0.8,0.7,0.8,1.1
		C15,8.9,14.2,9,13.6,9.2c-1.3,0.3-1.9,1.2-1.9,2.5C11.8,12.8,12.5,13.7,13.6,13.9z"/>
	<path d="M25.5,13.9c0.3,0.1,0.7-0.2,1.1-0.3c-0.2-0.3-0.4-0.7-0.6-1c-0.3-0.4-0.6-0.8-0.9-1.2c0.4-0.3,0.8-0.7,1.2-0.9
		c1.3-0.4,1.9-1.1,1.9-2.4c0-1.2-0.5-2-1.6-2.3c-0.4-0.1-0.8,0.2-1.3,0.3c0.3,0.3,0.5,0.6,0.8,0.9c0.3,0.3,0.8,0.7,0.7,1
		c-0.1,0.4-0.5,0.7-0.9,1c-0.3,0.2-0.7,0.2-0.9,0.3c-1,0.5-1.4,1.4-1.3,2.5C23.9,12.9,24.5,13.7,25.5,13.9z"/>
</g>
</svg>
