<?xml version="1.0" encoding="utf-8"?>
<!-- Generator: Adobe Illustrator 22.0.0, SVG Export Plug-In . SVG Version: 6.00 Build 0)  -->
<svg version="1.1" id="Layer_1" xmlns="http://www.w3.org/2000/svg" xmlns:xlink="http://www.w3.org/1999/xlink" x="0px" y="0px"
	 viewBox="0 0 40 40" style="enable-background:new 0 0 40 40;" xml:space="preserve">
<style type="text/css">
	.st0{fill:#FFFFFF;}
</style>
<g>
	<path d="M17.6,26.7c1.2,3.7,0.8,5.6-1.9,7.7c-0.3,0.2-1.1,0.3-1.4,0.1c-1.9-1.5-3.1-3.3-2.6-6.1c-2.5,0.5-4.4-0.6-6-2.3
		c-0.6-0.7-0.6-1.1,0-1.8c2.5-2.6,4.1-3,7.5-1.8c0-1.4-0.1-2.8,0-4.2C14.2,9.1,23.5,3.3,32.2,6.3c0.9,0.3,1.4,0.8,1.7,1.7
		c3.6,10.1-5,20.4-15.6,18.8C18,26.7,17.8,26.7,17.6,26.7z M32.8,12.5c-0.5,0.5-0.9,1.1-1.4,1.6c-0.8,0.8-1.9,1-2.9,0.4
		c-0.3-0.2-0.4-0.7-0.5-1c0.4-0.1,0.8-0.4,1-0.2c0.7,0.4,1.2,0.1,1.7-0.4c0.5-0.5,1.1-1.1,1.6-1.6c1.1-1.1,0.6-3.3-0.9-3.8
		C26.5,6,22,7,18.4,10.7c-3.7,3.6-4.6,8.1-3.1,13.1c0.1,0.5,0.8,1.1,1.2,1.2c2,0.3,4,0.6,6,0.4C28.6,24.5,33.5,18.6,32.8,12.5z
		 M7,25.1c2.4,2.7,5.1,2.6,6.8-0.2C11.6,22.4,9.1,22.5,7,25.1z M15,33.1c2.6-2.3,2.6-4.8,0-6.9C12.4,28.5,12.3,30.9,15,33.1z"/>
	<path d="M20.7,20.4c-2.1,0-2.2,0-2-2.1c0.1-1.2,0.5-2.6,1.1-3.6c0.8-1.4,2.2-1.4,3.4-0.3c0.5,0.5,1.1,1,1.6,1.6c1,1,1,2,0,3
		C23.6,20.2,22.1,20.4,20.7,20.4z M21.8,14.7c-1.7,1.2-2.1,2.3-1.6,4.5c1.1-0.4,2.3-0.7,3.3-1.1c0.2-0.1,0.3-0.9,0.1-1.2
		C23.1,16.2,22.4,15.5,21.8,14.7z"/>
	<path d="M27.6,10.9c-0.5-0.8-1.1-1.3-1-1.6c0.1-0.4,0.7-1,1.1-1c0.4,0,1,0.7,1,1.1C28.8,9.7,28.2,10.2,27.6,10.9z"/>
</g>
</svg>
