<?xml version="1.0" encoding="utf-8"?>
<!-- Generator: Adobe Illustrator 22.0.0, SVG Export Plug-In . SVG Version: 6.00 Build 0)  -->
<svg version="1.1" id="Layer_1" xmlns="http://www.w3.org/2000/svg" xmlns:xlink="http://www.w3.org/1999/xlink" x="0px" y="0px"
	 viewBox="0 0 40 40" style="enable-background:new 0 0 40 40;" xml:space="preserve">
<style type="text/css">
	.st0{fill:#FFFFFF;}
</style>
<path d="M22.3,12.2c-3-1.1-4-2.6-3.8-5.7c0-0.8,0.3-1,1.1-1.1c1.6,0,3.1,0,4.3,1.3c0.7-0.4,1.2-1,1.9-1.3c1.7-0.7,3.7,0.5,3.8,2.3
	c0,0.3-0.3,0.7-0.4,1c-0.3-0.2-0.7-0.4-0.8-0.7c-0.3-0.9-0.8-1.6-1.9-1.4c-1.1,0.2-1.3,1.1-1.3,2c0,0.6,0,1.2,0.1,1.8
	c0.1,0.3,0.3,0.7,0.5,0.9c4.2,2.6,6,6.5,5.8,11.2c-0.3,5.2-2.9,9-7.8,11c-4.9,2-9.4,1.1-13.4-2.4c-0.4-0.4-0.9-0.8-1.2-1.3
	c-1-1.5-0.9-2.9,0.6-4c1.2-0.9,2.4-1.7,3.7-2.4c3-1.7,5.2-4.2,6.8-7.3C20.9,14.9,21.6,13.6,22.3,12.2z M18.8,33.2
	c4.8,0.1,9-2.8,10.7-7.4c1.6-4.3,0.3-9.5-3.3-12.4c-1.5-1.3-2.2-1.2-3.2,0.5c-0.3,0.5-0.6,0.9-0.8,1.4c-2,4.5-5,7.9-9.4,10.2
	c-0.7,0.3-1.3,0.8-1.9,1.2c-1.3,1-1.4,1.6-0.3,2.8C12.8,32,15.5,33.2,18.8,33.2z M23.7,10.6C23.8,8,22.3,6.5,20,7
	C19.7,9.6,21.1,11,23.7,10.6z"/>
</svg>
