<?xml version="1.0" encoding="utf-8"?>
<!-- Generator: Adobe Illustrator 22.0.0, SVG Export Plug-In . SVG Version: 6.00 Build 0)  -->
<svg version="1.1" id="Layer_1" xmlns="http://www.w3.org/2000/svg" xmlns:xlink="http://www.w3.org/1999/xlink" x="0px" y="0px"
	 viewBox="0 0 40 40" style="enable-background:new 0 0 40 40;" xml:space="preserve">
<style type="text/css">
	.st0{fill:#FFFFFF;}
</style>
<path d="M22.7,28.3c0,1.3,0,2.4,0,3.5c0,1.7-1,2.8-2.5,2.9c-1.6,0-2.7-1.1-2.8-2.8c0-1.1,0-2.3,0-3.6c-0.7,0-1.2,0-1.8,0
	c-2,0-3.5-1.3-3.5-3.4c-0.1-4.1-0.1-8.1,0-12.2c0.2-4.4,3.8-7.6,8.2-7.5c4.2,0.1,7.6,3.5,7.6,7.9c0.1,3.8,0,7.6,0,11.4
	c0,2.5-1.3,3.8-3.9,3.8C23.7,28.3,23.2,28.3,22.7,28.3z M26.7,16.7c-0.1-1.6,0-3.1-0.2-4.6C26,8.9,23,6.5,19.9,6.6
	c-3.3,0.1-6.2,2.6-6.3,5.8c-0.2,3.1-0.1,6.2,0,9.4c0,0.4,0.6,0.7,1,1.1c0.4-0.4,1-0.7,1.1-1.1c0.2-1.1,0.1-2.2,0.2-3.3
	c0.2-1.1,1.2-1.9,2.3-1.9c1.2,0,2,0.6,2.4,1.7c0.2,0.5,0.2,1,0.2,1.5c0,0.8,0.2,1.5,1.2,1.5c0.8,0,1-0.7,1-1.5
	C23,17.2,24,16.3,26.7,16.7z M13.5,24.2c-0.1,2,0.5,2.7,2.3,2.7c2.9,0,5.7,0,8.6,0c1.4,0,2.1-0.7,2.1-2.1c0-1.9,0-3.9-0.1-5.8
	c0-0.4-0.6-1-0.8-1c-0.4,0-0.9,0.4-1.2,0.8c-0.2,0.3-0.1,0.8-0.1,1.2c-0.1,1.4-1.2,2.5-2.5,2.5c-1.4,0-2.4-1-2.5-2.5
	c0-0.3,0.1-0.8,0-1c-0.3-0.4-0.8-1-1.1-1c-0.4,0-0.9,0.6-1,1.1c-0.2,0.6,0,1.3,0,1.9C17.1,23.5,16.1,24.4,13.5,24.2z M21.3,28.4
	c-0.9,0-1.7,0-2.5,0c0,1.2,0,2.3,0,3.5c0,0.8,0.4,1.4,1.2,1.4c0.9,0,1.2-0.7,1.2-1.4C21.3,30.8,21.3,29.7,21.3,28.4z"/>
</svg>
