<?xml version="1.0" encoding="utf-8"?>
<!-- Generator: Adobe Illustrator 22.0.0, SVG Export Plug-In . SVG Version: 6.00 Build 0)  -->
<svg version="1.1" id="Layer_1" xmlns="http://www.w3.org/2000/svg" xmlns:xlink="http://www.w3.org/1999/xlink" x="0px" y="0px"
	 viewBox="0 0 40 40" style="enable-background:new 0 0 40 40;" xml:space="preserve">
<style type="text/css">
	.st0{fill:#FFFFFF;}
</style>
<g>
	<path d="M25.4,33.1c0.8-2.8,1.7-5.6,2.5-8.3c0.4-1.3,0.7-2.6,1.3-3.8c0.7-1.4,0.8-2.2-0.1-3.5c-0.1-0.2-0.4-0.4-0.4-0.6
		c-0.1-1.9-1.2-2.7-2.9-2.9c-0.2-1.7-1.2-2.4-2.9-2.6c0-2-1-3-2.9-3.2c-0.4-2.2-1.3-3.1-2.7-3.1c-1.5,0-2.3,1-2.6,3.1
		C12.9,8.5,12,9.5,12,11.1c-0.9,0.6-2,1-2.4,1.7c-0.5,0.8-0.9,1.4-1.9,1.7c-1.2,0.3-2.9,4.4-2.4,5.6c0.2,0.6,0.7,1.1,0.9,1.6
		c1.2,3.8,2.3,7.6,3.4,11.2c-0.5,0.5-0.9,0.9-1.3,1.2c0.5,0.2,0.9,0.6,1.4,0.6c3.8,0.1,7.5,0.1,11.3,0.1c1.6,0,3.2,0,4.8-0.1
		c0.4,0,0.7-0.4,1.1-0.6c-0.3-0.3-0.6-0.5-0.9-0.8C25.7,33.3,25.6,33.2,25.4,33.1z M25.1,16.6c-0.1-0.2,0.6-0.9,1.1-0.9
		c0.3-0.1,1.1,0.6,1,0.8c-0.4,1.2,0.3,1.8,1.1,2.4c0.1,0.1,0.1,0.2,0.1,0.5c-1.5,0-2.9,0-4.4,0c0-0.2,0-0.5,0.1-0.6
		C24.9,18.2,25.4,17.6,25.1,16.6z M22.6,13.3c0.3-0.2,0.9-0.3,1.2-0.1c0.3,0.2,0.6,0.8,0.5,1.2c-0.2,1-0.7,2-1.1,3.2
		c-0.4-1.2-0.8-2.1-1-3C22.2,14.1,22.3,13.5,22.6,13.3z M20.4,9.8c0.4,0.4,1,0.8,1,1.2c-0.1,1.1-0.5,2.1-0.8,3.2c-0.2,0-0.3,0-0.5,0
		c-0.3-1.1-0.6-2.2-0.7-3.3C19.3,10.5,20,10.1,20.4,9.8z M19.3,17c0.2-0.5,0.3-1,0.6-1.4c0.1-0.1,0.7-0.1,0.9,0.1
		c0.3,0.4,0.4,0.9,0.5,1.3c0.2,0.4,0.3,0.8,0.5,1.2c0.2,0.3,0.4,0.6,0.8,1c-1.6,0-3,0-4.7,0c0.4-0.5,0.6-0.7,0.7-1
		C18.9,17.9,19.1,17.5,19.3,17z M17.5,17.7c-0.5-1.4-0.9-2.4-1-3.4c-0.1-0.4,0.5-0.9,0.8-1.3c0.4,0.3,1.3,0.7,1.2,0.9
		C18.3,15.1,17.9,16.2,17.5,17.7z M16.4,7.1c0.2-0.3,0.9-0.6,1.1-0.5c0.4,0.2,0.8,0.7,0.9,1.2c0.1,0.5-0.1,1.1-0.2,1.7
		c-0.1,0.5-0.3,1.1-0.5,1.6C16.8,10.6,15.9,7.8,16.4,7.1z M16.5,18.7c0.1,0.1,0,0.4,0.1,0.6c-1.4,0-2.6,0-3.9,0
		c-0.1-0.1-0.1-0.2-0.1-0.2c0.7-0.9,1.2-1.8,1.2-3c0-0.2,0.7-0.6,1-0.5c0.4,0.1,0.9,0.7,0.8,0.9C15.3,17.6,15.7,18.2,16.5,18.7z
		 M14.4,9.8c0.7-0.1,1.3,0.4,1.1,1.3c-0.2,1-0.5,2-0.8,3c-0.2,0-0.3,0-0.5,0c-0.3-1-0.7-2-0.8-3C13.4,10.7,14,9.9,14.4,9.8z
		 M11.7,13c0.4,0.1,1,0.9,1,1.2c-0.1,1-0.6,2-1,3.4c-0.4-1.4-0.9-2.4-1.1-3.5C10.4,13.4,11,12.8,11.7,13z M6.6,18.9
		c0.9-0.6,1.4-1.3,1.1-2.5c0-0.2,0.6-0.7,0.9-0.8c0.3-0.1,1,0.4,1,0.5c-0.1,1.2,0.4,2.2,1.4,2.9c-0.1,0.1-0.2,0.2-0.3,0.3
		c-1.4,0-2.8,0-4.2,0C6.5,19.2,6.5,18.9,6.6,18.9z M11,33.2C9.8,29.2,8.6,25.1,7.3,21c1.7,0,3.2,0,4.8,0c0.5,4.1,1,8.1,1.5,12.3
		C12.8,33.2,11.9,33.2,11,33.2z M19.7,33.2c-1.5,0-3,0-4.6,0c-0.5-4.1-1-8.1-1.6-12.3c2.6,0,5,0,7.7,0
		C20.8,25.1,20.3,29.1,19.7,33.2z M21.1,33.2c0.5-4.1,1-8.2,1.5-12.3c1.6,0,3.2,0,4.9,0c-1.2,4.2-2.4,8.2-3.7,12.3
		C23,33.2,22.2,33.2,21.1,33.2z"/>
	<path d="M28.8,13.7c0.5,0.2,1.1,0.5,1.6,0.6c0.9,0,2,0.2,2.6-0.3c0.6-0.4,0.9-1.5,1-2.4c0.1-0.8-0.2-1.7-0.3-2.5
		c0.2-1.2-0.5-2.1-1.6-2.4c-1.2-0.3-2.1,0.1-2.8,1.1c-0.3,0.5-0.8,0.9-1.2,1.3c-0.8,0.7-1.3,1.5-1.1,2.5
		C27.1,12.7,27.8,13.4,28.8,13.7z M28.3,11.1c0.1-0.4,0.5-0.9,0.8-0.9c0.8-0.1,1-0.5,1.2-1.3c0.1-0.4,1-0.8,1.4-0.8
		c0.8,0.1,1.1,0.8,0.6,1.6c-0.4,0.6-0.4,1.1,0.1,1.7c0.6,0.8,0.1,1.8-0.6,1.8c-1.2-0.4-2.2-0.7-3.1-1.1
		C28.4,11.9,28.2,11.3,28.3,11.1z"/>
	<path d="M33.3,27.6c-0.5-0.3-1.1-0.6-1.5-1c-0.8-0.8-1.7-1-2.8-0.6c-1.1,0.4-1.7,1.3-1.6,2.5c0.1,1.1,0.2,2.3,0.5,3.4
		c0.2,0.6,0.8,1.3,1.4,1.7c1.8,0.9,5.5-1.5,5.5-3.5C34.9,28.8,34.3,28.1,33.3,27.6z M30,32.2c-0.4-0.3-0.6-1.1-0.5-1.5
		c0.2-0.7,0.3-1-0.3-1.5c-0.6-0.5-0.6-1.2,0.1-1.7c0.7-0.5,1.4-0.3,1.7,0.5c0.3,0.7,0.6,0.9,1.4,0.9c0.5,0,0.9,0.6,1.2,0.8
		C33.5,30.8,30.5,32.7,30,32.2z"/>
</g>
</svg>
