<?xml version="1.0" encoding="utf-8"?>
<!-- Generator: Adobe Illustrator 22.0.0, SVG Export Plug-In . SVG Version: 6.00 Build 0)  -->
<svg version="1.1" id="Layer_1" xmlns="http://www.w3.org/2000/svg" xmlns:xlink="http://www.w3.org/1999/xlink" x="0px" y="0px"
	 viewBox="0 0 40 40" style="enable-background:new 0 0 40 40;" xml:space="preserve">
<style type="text/css">
	.st0{fill:#FFFFFF;}
</style>
<path d="M17.2,21.9c-4.1-2-6-5.1-5.2-8.6c0.8-3.5,3.6-5.8,7.1-5.8c3.4,0,6.3,2.3,7.1,5.6c0.9,3.7-0.9,6.7-5.2,8.8
	c0,3.9,0,7.9,0,11.9c0,0.4,0,0.8,0,1.3c-0.1,1.3-0.8,2.1-1.9,2.1c-1,0-1.9-0.9-1.9-2.1c0-3.9,0-7.9,0-11.8
	C17.2,22.8,17.2,22.3,17.2,21.9z M25,14.8c0-3.2-2.6-5.9-5.9-5.9c-3.2,0-5.9,2.6-5.9,5.9c0,3.3,2.7,5.9,6,5.9
	C22.3,20.6,25,17.9,25,14.8z M18.9,22c-0.1,0.1-0.2,0.2-0.3,0.2c0,4.2,0,8.4,0,12.6c0,0.3,0.3,0.5,0.4,0.8c0.2-0.3,0.6-0.6,0.6-0.9
	c0-4,0-7.9,0-11.9C19.6,22.6,19.2,22.3,18.9,22z"/>
<path d="M14.4,14.7c0-2.4,2.4-4.7,4.5-4.6c0.3,0,0.5,0.4,0.8,0.6c-0.2,0.3-0.4,0.7-0.6,0.7c-2,0.3-3.1,1.3-3.4,3.3
	c0,0.2-0.6,0.7-0.7,0.6C14.7,15.2,14.5,14.8,14.4,14.7z"/>
</svg>
