<?xml version="1.0" encoding="utf-8"?>
<!-- Generator: Adobe Illustrator 22.0.0, SVG Export Plug-In . SVG Version: 6.00 Build 0)  -->
<svg version="1.1" id="Layer_1" xmlns="http://www.w3.org/2000/svg" xmlns:xlink="http://www.w3.org/1999/xlink" x="0px" y="0px"
	 viewBox="0 0 40 40" style="enable-background:new 0 0 40 40;" xml:space="preserve">
<style type="text/css">
	.st0{fill:#FFFFFF;}
</style>
<path d="M10.5,30.9c0-0.1,0-0.2,0-0.3c0-0.2,0-0.5,0.1-0.8c1-3,2-6,3-9L17,10.7c0.2-0.6,0.4-1.1,0.6-1.7c0.3-1,1.1-1.5,2.1-1.5
	l0.1,0c6.5,0.3,12.9,5.8,14.1,12.3c0.1,0.5,0.2,1.1,0.3,1.5l0.1,0.4c0,1.5-0.4,2.1-1.7,2.6c-3.1,1-6.1,2-9.2,3.1l-4.1,1.4
	c-2.5,0.8-4.9,1.6-7.4,2.5c-0.2,0.1-0.5,0.1-0.7,0.1c-0.1,0-0.2,0-0.3,0l-0.3,0L10.5,30.9z M18.6,11.1c-0.1,0-0.4,0.2-0.4,0.2
	c-0.7,2-1.3,4-2,6l-1,2.9c-0.7,2.1-1.4,4.2-2.1,6.4l-1,2.9l6.8-2.3c3.7-1.2,7.4-2.5,11.2-3.7c0.4-0.1,0.5-0.3,0.5-0.8
	C29.9,16.4,25.2,11.7,18.6,11.1v-0.3V11.1z M18.8,9.8C27,11.3,30.2,14.4,32,22.9c0.9-0.2,1-0.4,0.9-1.2c-0.1-0.8-0.3-1.7-0.5-2.5
	c-1.5-5.4-6.5-9.7-12-10.3c-0.2,0-0.4,0-0.5,0c-0.4,0-0.6,0.1-0.7,0.2C18.9,9.2,18.9,9.4,18.8,9.8z"/>
<path d="M26.2,23.7c-1.5,0-2.7-1.2-2.7-2.8c0-1.5,1.3-2.7,2.8-2.7c1.5,0,2.7,1.2,2.8,2.8c0,0.7-0.3,1.4-0.8,1.9
	C27.7,23.4,27,23.7,26.2,23.7L26.2,23.7z M26.3,19.6c-0.7,0-1.3,0.6-1.4,1.3c0,0.4,0.1,0.8,0.4,1c0.3,0.3,0.6,0.4,1,0.4
	c0.7,0,1.3-0.6,1.4-1.3C27.7,20.2,27.1,19.6,26.3,19.6v-0.3V19.6z"/>
<path d="M18.1,26.6c-1.5,0-2.7-1.3-2.7-2.8c0-1.5,1.2-2.7,2.8-2.7c1.6,0,2.8,1.3,2.8,2.8C21,25.3,19.7,26.6,18.1,26.6L18.1,26.6z
	 M18.2,22.4c-0.7,0-1.3,0.6-1.3,1.4c0,0.4,0.1,0.7,0.4,1c0.3,0.3,0.6,0.4,1,0.4l0,0c0.8,0,1.4-0.6,1.4-1.4c0-0.4-0.1-0.7-0.4-1
	C18.9,22.5,18.5,22.4,18.2,22.4l0-0.3L18.2,22.4z"/>
<path d="M20.8,19.4c-1.6-0.1-2.5-1-2.7-2.8c-0.1-0.6,0.2-1.2,0.7-1.8c0.6-0.6,1.4-1,2.1-1c1.6,0,2.8,1.3,2.8,2.8
	C23.6,18.2,22.3,19.4,20.8,19.4L20.8,19.4z M20.7,15.2c-0.8,0-1.4,0.6-1.4,1.3c0,0.7,0.7,1.4,1.5,1.4c0.4,0,0.8-0.2,1-0.4
	c0.2-0.3,0.4-0.6,0.4-1C22.2,15.8,21.5,15.2,20.7,15.2l0-0.3L20.7,15.2z"/>
</svg>
