<?xml version="1.0" encoding="utf-8"?>
<!-- Generator: Adobe Illustrator 22.0.0, SVG Export Plug-In . SVG Version: 6.00 Build 0)  -->
<svg version="1.1" id="Layer_1" xmlns="http://www.w3.org/2000/svg" xmlns:xlink="http://www.w3.org/1999/xlink" x="0px" y="0px"
	 viewBox="0 0 40 40" style="enable-background:new 0 0 40 40;" xml:space="preserve">
<style type="text/css">
	.st0{fill:#FFFFFF;}
</style>
<path d="M12.3,19.6c0-2.8,0-5.6,0-8.4c0-2.1,1.7-4.3,3.7-4.4c2.8-0.2,5.6-0.1,8.4,0c1,0,1.6,0.7,2.3,1.6c1.1,1.5,1,3,1,4.7
	c0,5,0,9.9,0,14.9c0,1.9-1.7,4.2-3.5,4.7c-2.9,0.8-5.7,0.8-8.6,0c-1-0.3-1.7-1-2.3-1.9c-1.2-1.8-1-3.7-1-5.6
	C12.2,23.3,12.3,21.5,12.3,19.6z M13.4,11.4c0,0.3,0,0.7,0,1.1c0,4.4,0,8.8,0,13.2c0,3.6,0,3.6,3.6,4.1c2.8,0.4,2.8,0.3,4-2.1
	c1.4-2.7,1.6-5.4,0.2-8.2c-0.6-1.2-0.8-2.6-1.1-3.9c-0.2-1-0.2-2.1-0.2-3C17.7,12.1,15.6,11.8,13.4,11.4z M25.1,29.3
	c1.2-0.1,1.6-0.7,1.5-1.8c0-5.1,0-10.1,0-15.2c0-0.3,0-0.7-0.1-1c-2.4,0.5-2.4,0.5-2.7,2.8c-0.2,1.7,0,3.3,0.7,4.9
	c0.9,2.1,1.2,4.3,1,6.6C25.4,26.9,25.2,28.1,25.1,29.3z M21.3,29.9c0.2,0,0.5,0,0.7,0c0.4,0,0.8,0,1.1-0.2c0.3-0.1,0.7-0.4,0.7-0.7
	c0.7-3.3,1-6.6-0.5-9.8c-0.9-2-0.9-4.1-0.5-6.3c0-0.3,0.1-0.6,0.1-0.9c-1.8,0-1.9,0.1-1.7,1.6c0.2,1.9,0.7,3.7,1.3,5.5
	c0.7,1.9,1.3,3.8,0.7,5.8C22.7,26.7,22,28.3,21.3,29.9z M13.6,9.8c2,1.7,10.5,1.7,12.7,0.1c-0.5-0.1-0.8-0.4-1.1-0.3
	c-3.5,1-7,1-10.6,0C14.5,9.5,14.2,9.7,13.6,9.8z M15,8.2c0.6,0.4,1.1,0.7,1.9,0.3c0.9-0.4,1.9,0.2,3,0.5c1.6,0.5,3.5,0.1,5.1-0.8
	C21.7,7.5,18.4,7.5,15,8.2z M14.8,30.9c1.6,1.7,9.3,1.6,10.3,0C21.7,30.9,18.3,30.9,14.8,30.9z"/>
</svg>
