<?xml version="1.0" encoding="utf-8"?>
<!-- Generator: Adobe Illustrator 22.0.0, SVG Export Plug-In . SVG Version: 6.00 Build 0)  -->
<svg version="1.1" id="Layer_1" xmlns="http://www.w3.org/2000/svg" xmlns:xlink="http://www.w3.org/1999/xlink" x="0px" y="0px"
	 viewBox="0 0 40 40" style="enable-background:new 0 0 40 40;" xml:space="preserve">
<style type="text/css">
	.st0{fill:#FFFFFF;}
</style>
<g>
	<path d="M23.3,13.2c-1.6-1.2-4.8-1.2-6.5,0c-1.2,0.8-1.2,2.1-0.1,3c1,0.7,2.1,0.9,3.3,0.9c1.2,0,2.3-0.2,3.3-0.9
		C24.5,15.3,24.4,14,23.3,13.2z"/>
	<path d="M27.5,21.3c-0.2,0.2-0.5,0.4-0.5,0.6c0,0.2,0.2,0.4,0.5,0.8c0.3-0.4,0.6-0.6,0.6-0.8C28,21.7,27.7,21.5,27.5,21.3z"/>
	<path d="M22,21.9c0.2,0.2,0.4,0.5,0.6,0.5c0.2,0,0.4-0.3,0.8-0.5c-0.4-0.3-0.6-0.5-0.8-0.5C22.3,21.4,22.2,21.7,22,21.9z"/>
	<path d="M12.6,18.5c0.2,0,0.4-0.2,0.8-0.5c-0.4-0.3-0.6-0.6-0.8-0.6c-0.2,0-0.4,0.3-0.6,0.5C12.2,18.1,12.3,18.5,12.6,18.5z"/>
	<path d="M20.1,27.2c-0.2,0.2-0.5,0.3-0.6,0.6c0,0.2,0.2,0.4,0.5,0.8c0.3-0.4,0.6-0.6,0.5-0.8C20.6,27.6,20.3,27.4,20.1,27.2z"/>
	<path d="M17,21.8c0.2,0.2,0.3,0.5,0.6,0.6c0.2,0,0.4-0.3,0.8-0.5c-0.4-0.3-0.6-0.5-0.8-0.5C17.4,21.4,17.2,21.7,17,21.8z"/>
	<path d="M12,21.9c0.2,0.2,0.4,0.5,0.6,0.5c0.2,0,0.4-0.3,0.8-0.6c-0.4-0.2-0.6-0.5-0.8-0.5C12.3,21.4,12.2,21.7,12,21.9z"/>
	<path d="M17.6,25.3c-0.2,0.2-0.5,0.4-0.6,0.6c0,0.2,0.3,0.4,0.5,0.8c0.3-0.4,0.5-0.6,0.5-0.8C18.1,25.6,17.8,25.4,17.6,25.3z"/>
	<path d="M22.6,25.3c-0.2,0.2-0.5,0.4-0.5,0.6c0,0.2,0.3,0.4,0.6,0.8c0.2-0.4,0.5-0.6,0.5-0.8C23,25.6,22.7,25.4,22.6,25.3z"/>
	<path d="M19.5,20c0.2,0.2,0.4,0.5,0.6,0.5c0.2,0,0.4-0.3,0.8-0.5c-0.4-0.3-0.6-0.6-0.8-0.5C19.8,19.4,19.7,19.8,19.5,20z"/>
	<path d="M27,25.8c0.2,0.2,0.3,0.5,0.6,0.6c0.2,0,0.4-0.3,0.8-0.5c-0.4-0.3-0.6-0.6-0.8-0.5C27.4,25.3,27.2,25.6,27,25.8z"/>
	<path d="M20,24.4c0.2-0.2,0.5-0.3,0.6-0.6c0-0.2-0.3-0.4-0.5-0.8c-0.3,0.4-0.6,0.6-0.6,0.8C19.5,24,19.8,24.2,20,24.4z"/>
	<path d="M25.1,20.5c0.2-0.2,0.4-0.4,0.5-0.6c0-0.2-0.3-0.4-0.6-0.8c-0.2,0.4-0.5,0.6-0.5,0.8C24.6,20.1,24.9,20.3,25.1,20.5z"/>
	<path d="M15,20.4c0.2,0,0.4-0.2,0.8-0.5c-0.4-0.3-0.6-0.6-0.7-0.6c-0.2,0-0.4,0.3-0.6,0.5C14.7,20.1,14.8,20.4,15,20.4z"/>
	<path d="M12,25.8c0,0.2,0.3,0.4,0.5,0.6c0.2-0.2,0.5-0.4,0.5-0.6c0-0.2-0.3-0.4-0.5-0.8C12.3,25.4,12,25.6,12,25.8z"/>
	<path d="M27.6,18.5c0.2-0.2,0.5-0.4,0.5-0.6c0-0.2-0.3-0.4-0.5-0.8c-0.3,0.4-0.5,0.6-0.5,0.8C27.1,18.2,27.4,18.3,27.6,18.5z"/>
	<path d="M24.5,23.9c0.2,0.2,0.4,0.5,0.6,0.5c0.2,0,0.4-0.3,0.8-0.5c-0.4-0.3-0.6-0.6-0.8-0.5C24.8,23.4,24.7,23.7,24.5,23.9z"/>
	<path d="M14.5,23.9c0.2,0.2,0.3,0.5,0.6,0.5c0.2,0,0.4-0.2,0.8-0.5c-0.4-0.3-0.6-0.6-0.8-0.6C14.9,23.4,14.7,23.7,14.5,23.9z"/>
	<path d="M24.5,27.8c0.1,0.2,0.4,0.4,0.6,0.6c0.2-0.2,0.5-0.4,0.5-0.6c0-0.2-0.3-0.4-0.5-0.8C24.8,27.3,24.5,27.6,24.5,27.8z"/>
	<path d="M14.5,27.8c0,0.2,0.3,0.4,0.5,0.5c0.2-0.2,0.5-0.4,0.5-0.6c0-0.2-0.3-0.4-0.6-0.8C14.8,27.4,14.5,27.6,14.5,27.8z"/>
	<path d="M32.4,24.4c-0.1-0.2,0-0.5,0-0.8c0-1.4,0.1-2.8,0.1-4.2c0-0.1-0.1-0.2-0.1-0.3c0-0.3,0-0.6,0-0.8c0-1.4,0.1-2.8,0.1-4.1
		c0-0.3-0.1-0.6-0.2-0.8c-0.8-1.1-1.6-2.3-2.6-3.2c-0.9-0.8-2.2-1.3-3.3-1.6c-0.9-0.3-1.9-0.5-2.9-0.7c-1.1-0.2-2.3-0.2-3.4-0.3
		c-0.5,0-1,0.4-1.5,0.2c-1.6-0.4-3,0.7-4.6,0.7c-0.3,0-0.5,0.1-0.7,0.3c0,0,0,0,0,0c0,0-0.9,0.5-1.9,1.2c-0.3-0.2-0.5-0.1-0.8,0.2
		c-0.6,0.7-1.1,1.3-1.7,2c-0.1,0.1-0.2,0.2-0.2,0.3c-0.1,0-0.1-0.1-0.2-0.1c0,0.2-0.1,0.4-0.1,0.6c-0.2,0.4-0.3,0.8-0.4,1.2
		c0,0,0,0,0,0c0,0.1,0,0.2,0,0.3c-0.2,1.4,0,2.6,0,2.6h0c0,0.9,0,1.8,0,2.7c0,1,0,1.9,0,2.9c0,0.3,0.1,0.6,0.1,0.9
		c0,0.2,0.1,0.4,0,0.6c-0.4,1.4-0.1,2.7,1,3.7c0.9,0.9,1.5,2.3,3,2.5c0,0,0.1,0,0.1,0c0.2,0.1,0.5,0.2,0.7,0.3
		c0.9,0.6,4.4,1.6,5.5,1.4c0.3,0,0.7,0,1,0.1c1.7,0.2,3.3-0.1,5-0.3c0.1,0,0.2-0.1,0.3-0.1c1.4-0.3,2.8-0.7,4.1-1.4
		c1-0.5,1.9-0.9,2.4-1.9c0.1-0.2,0.3-0.4,0.5-0.6C32.3,27,32.7,25.8,32.4,24.4z M30.2,18.7c0.6,0.8,0.7,1.7,0,2.6
		c0.7,0.9,0.7,1.8,0,2.6c0.9,1.5,0.8,2-0.6,3.1c-0.1,0.1-0.2,0.3-0.3,0.5c-0.3,0.9-0.9,1.3-1.9,1.3c-0.2,0-0.5,0.1-0.7,0.3
		c-0.6,0.7-1.2,0.9-2.1,0.7c-0.2,0-0.6,0-0.7,0.2c-0.6,0.5-1.3,0.7-2.1,0.4c-0.2-0.1-0.6-0.1-0.8,0.1c-0.7,0.4-1.3,0.4-1.9,0
		c-0.3-0.2-0.6-0.3-1-0.1c-0.7,0.3-1.3,0.2-1.9-0.3c-0.2-0.2-0.5-0.2-0.8-0.2c-0.9,0.2-1.5,0-2.1-0.8c-0.1-0.2-0.4-0.3-0.6-0.3
		c-1.1,0-1.6-0.4-1.9-1.4c-0.1-0.2-0.2-0.3-0.3-0.4c-1.3-0.8-1.4-1.7-0.5-3c-0.7-1.2-0.7-1.5-0.1-2.7c-0.7-1.1-0.7-1.4,0-2.6
		c-0.6-0.8-0.7-1.7,0-2.6c-0.5-0.7-0.7-1.3-0.3-2.1c0-0.1,0-0.2,0-0.3c0-0.3-0.1-0.8,0.1-1c0.3-0.2,0.7-0.2,1.2-0.2
		c0.3-0.7,1-1.3,2.1-1.1c0.1,0,0.3-0.2,0.5-0.3c0.6-0.7,1.2-0.9,2.1-0.7c0.2,0,0.5,0,0.7-0.2c0.6-0.5,1.3-0.6,2.1-0.3
		c0.2,0.1,0.6,0.1,0.7,0c0.7-0.4,1.4-0.4,2.1,0c0.2,0.1,0.5,0.1,0.7,0c0.8-0.3,1.5-0.2,2.1,0.3c0.2,0.1,0.5,0.2,0.7,0.2
		c1-0.2,1.6,0,2.2,0.7c0.1,0.2,0.4,0.3,0.6,0.3c1,0,1.6,0.4,1.9,1.3c0.1,0.2,0.2,0.4,0.3,0.5c1.2,0.8,1.4,1.6,0.6,2.9
		C30.9,17.2,30.9,17.6,30.2,18.7z"/>
</g>
</svg>
