<?xml version="1.0" encoding="utf-8"?>
<!-- Generator: Adobe Illustrator 22.0.0, SVG Export Plug-In . SVG Version: 6.00 Build 0)  -->
<svg version="1.1" id="Layer_1" xmlns="http://www.w3.org/2000/svg" xmlns:xlink="http://www.w3.org/1999/xlink" x="0px" y="0px"
	 viewBox="0 0 40 40" style="enable-background:new 0 0 40 40;" xml:space="preserve">
<style type="text/css">
	.st0{fill:#FFFFFF;}
</style>
<g>
	<path d="M22.3,5.3c-0.9,0-1.2,0.3-1.2,1.2c0,1.1,0,2.1,0,3.2c0,3.8,0,7.7,0,11.5c-0.6,0-1.3,0-2.3,0c0-0.6,0-1,0-1.5
		c0-3.1-0.1-6.2,0-9.2c0-1.1-0.3-1.5-1.4-1.4c-2.6,0.2-4.8,1-6.9,2.5c-5.4,3.9-6.7,11.7-3.1,17.3c3.7,5.6,11.4,7.5,17.1,4.1
		c4.3-2.5,6.4-6.4,6.5-11.4c1.5-0.1,1.9-1.3,1.9-2.6c1.1,0,1.8,0,1.8-1.5C34.5,11.1,28.7,5.4,22.3,5.3z M20,22.7c1.9,0,3.8,0,5.8,0
		c-0.4,4-3.8,6.9-7.9,6.9c-4-0.1-7.4-3.3-7.6-7.2c-0.2-4.2,2.7-7.6,7-8.2c0,2,0,3.9,0,5.9C17.4,22.9,17,22.7,20,22.7z M22.7,20.4
		c0-3.2,0-6.4,0-9.5c2.5-0.2,6.2,2.7,6.5,6c-1.7,0-1.8,1.4-2.2,2.7c-0.5-1.2-0.4-2.8-2.2-2.6C22.5,17.1,23.4,19.2,22.7,20.4z
		 M18,33.3c-6.3,0-11.5-5.3-11.4-11.6c0.1-6,5.1-11.2,10.6-11.1c0.4,1.9,0.4,2-1.4,2.5c-4.3,1.2-7.2,5.2-6.9,9.2
		c0.4,4.8,3.7,8.3,8.2,8.7c4.7,0.4,8.6-2.3,9.9-6.7c0.5-1.7,0.5-1.7,2.4-1.3C29.4,28.4,24,33.3,18,33.3z M24.4,21.2
		c0.1-1,0.1-1.9,0.2-2.8c0.1-0.1,0.3-0.1,0.4-0.2c0.3,1.2,0.2,2.8,2,2.7c1.6-0.1,1.6-1.5,1.8-2.7c0.1,0,0.2,0.1,0.4,0.1
		c0.2,1,0.4,1.9,0.5,2.9C28,21.2,26.2,21.2,24.4,21.2z M32,16.6c-0.2,0.5-0.5,0.9-0.5,1.4c-0.1,0.7,0,1.4-0.3,2.3
		c-0.1-5.9-2.5-9.8-8.6-11c0-0.4,0-0.8,0-1.2c0-0.4,0-0.7,0-1.1c5.5-0.3,10.8,5.4,10.6,10.4C32.7,17.1,32.3,16.8,32,16.6z"/>
	<path d="M25,23.8c0-0.3-0.5-0.5-0.8-0.8c-0.3,0.3-0.7,0.6-0.8,0.9c0,0.2,0.4,0.6,0.8,1.1C24.6,24.5,25,24.2,25,23.8z"/>
	<path d="M13.6,26.4c0.1,0.3,0.5,0.7,0.8,0.8c0.2,0.1,0.6-0.4,1.1-0.8c-0.6-0.4-0.9-0.7-1.2-0.7C14.1,25.6,13.6,26.2,13.6,26.4z"/>
	<path d="M19.3,24.8c-0.1-0.3-0.5-0.6-0.8-0.9c-0.3,0.3-0.7,0.5-0.7,0.8c0,0.3,0.4,0.6,0.7,1.1C18.9,25.4,19.4,25.1,19.3,24.8z"/>
	<path d="M22,26.4c0.2,0.1,0.6-0.4,1.1-0.8c-0.6-0.4-0.9-0.7-1.2-0.7c-0.3,0-0.5,0.5-0.8,0.8C21.4,25.9,21.7,26.3,22,26.4z"/>
	<path d="M14.8,17.6c0.1,0.3,0.6,0.6,0.9,0.8c0.2-0.3,0.7-0.6,0.7-0.9c0-0.3-0.4-0.6-0.8-1C15.2,17.1,14.7,17.5,14.8,17.6z"/>
	<path d="M11.5,21.1c0.3,0.2,0.6,0.6,0.9,0.6c0.3,0,0.6-0.4,1.1-0.8c-0.5-0.4-0.9-0.8-1.1-0.7C12,20.4,11.8,20.8,11.5,21.1z"/>
	<path d="M13.8,23.6c0,0.3,0.5,0.8,0.7,0.8c0.3,0,0.7-0.4,1.3-0.8c-0.6-0.4-1-0.8-1.3-0.8C14.2,22.8,13.8,23.3,13.8,23.6z"/>
	<path d="M15.5,20.2c-0.3,0.3-0.7,0.5-0.8,0.9c-0.1,0.2,0.4,0.6,0.7,1.1c0.4-0.5,0.9-0.8,0.8-1C16.1,20.8,15.7,20.5,15.5,20.2z"/>
	<path d="M18,28.5c0.3-0.5,0.7-0.9,0.7-1.1c0-0.3-0.5-0.5-0.7-0.8c-0.3,0.3-0.7,0.6-0.8,0.9C17.1,27.7,17.6,28,18,28.5z"/>
</g>
</svg>
