<?xml version="1.0" encoding="utf-8"?>
<!-- Generator: Adobe Illustrator 22.0.0, SVG Export Plug-In . SVG Version: 6.00 Build 0)  -->
<svg version="1.1" id="Layer_1" xmlns="http://www.w3.org/2000/svg" xmlns:xlink="http://www.w3.org/1999/xlink" x="0px" y="0px"
	 viewBox="0 0 40 40" style="enable-background:new 0 0 40 40;" xml:space="preserve">
<style type="text/css">
	.st0{fill:#FFFFFF;}
</style>
<g>
	<path d="M29.8,14.2c-1.6-0.8-3-0.4-4.3,0.8c-2.3-1.6-3.2-1.6-5.6,0c-1.9-1.6-3.1-1.6-5.4,0c-2.2-1.6-4.4-1.4-5.6,0.4
		c-1.2,1.9-0.5,3.8,2.3,5.4c-0.2,2.7,0.2,3.5,2.8,4.6c-0.4,2.5,0.3,3.6,2.8,4.6c-0.4,1.6-0.1,3.1,1.4,4.1c1.2,0.8,2.4,0.8,3.6,0.1
		c1.7-1,1.9-2.5,1.6-4.2c2.4-0.9,2.9-1.7,2.9-4.7c2.3-0.9,2.8-1.8,2.7-4.7c1.6-0.5,2.6-1.5,2.8-3.2C31.7,15.9,31.1,14.8,29.8,14.2z
		 M22.7,15.1c1.2,0,2,0.8,2,2.1c0,1.1-0.9,2-2,2c-1.1,0-1.9-0.9-1.9-2.1C20.8,16,21.6,15.2,22.7,15.1z M20.1,19.9c1.1,0,2,0.9,2,2
		c0,1-1.1,2-2,2c-1,0-1.9-1-1.9-2.1C18.1,20.7,18.9,19.9,20.1,19.9z M17.3,15.1c1.1,0,2,0.9,2.1,2c0,1.1-1,2.1-2.1,2.1
		c-1.1,0-2-0.9-1.9-2C15.3,16,16.1,15.1,17.3,15.1z M11.9,19.2c-1.1,0-2-0.9-2.1-2c0-1.1,0.9-2.1,2.1-2.1c1.1,0,1.9,0.8,1.9,2
		C13.8,18.3,13,19.2,11.9,19.2z M14.5,23.9c-1.1,0-2-0.9-2-2c0-1.1,0.9-2,2-2c1.1,0,2,0.9,2,2C16.6,22.9,15.6,23.9,14.5,23.9z
		 M17.2,28.6c-1.1-0.1-1.9-1-1.9-2.1c0-1.1,1-2,2.1-1.9c1.1,0.1,2,1,2,2.1C19.3,27.7,18.3,28.6,17.2,28.6z M20.1,33.3
		C19,33.4,18,32.4,18,31.3c0-1.1,0.9-2,2-2c1.1,0,2,0.8,2.1,2C22.1,32.3,21.2,33.3,20.1,33.3z M22.8,28.6c-1.1,0-2-0.9-2-2
		c0-1.1,0.9-2,2-2c1,0,2,1,2,2C24.8,27.7,23.9,28.6,22.8,28.6z M25.5,23.9c-1.1-0.1-2-1-2-2.1c0-1.1,0.9-2,2.1-1.9c1.2,0,2,0.9,2,2
		C27.5,23,26.5,24,25.5,23.9z M28.1,19.2c-1.1-0.1-2-1.1-1.9-2.1c0.1-1.1,1-2,2.1-1.9c1.1,0,2,0.9,2,2
		C30.3,18.3,29.3,19.3,28.1,19.2z"/>
	<path d="M18.3,13.5c1,0.1,2.1,0,3.2,0c2.9,0,5.1-2.2,4.6-6c0-0.3-0.7-0.8-1.1-0.7c-1.4,0.1-2.8,0.4-4.3,0.6c0-0.4,0.1-1,0-1.6
		c0-0.2-0.4-0.6-0.6-0.6c-0.2,0-0.6,0.4-0.6,0.6c-0.1,0.6,0,1.3,0,1.6c-1.6-0.2-3-0.5-4.4-0.6c-0.3,0-0.9,0.3-0.9,0.6
		C13.6,10.3,14.6,13.2,18.3,13.5z M24.6,8.3c0.5,2.4-0.9,4-3.6,3.8C20.6,9.4,22,7.9,24.6,8.3z M15.5,8.3c2.5-0.4,4.1,1.2,3.8,3.8
		C16.5,12.3,15,10.8,15.5,8.3z"/>
</g>
</svg>
