<?xml version="1.0" encoding="utf-8"?>
<!-- Generator: Adobe Illustrator 22.0.0, SVG Export Plug-In . SVG Version: 6.00 Build 0)  -->
<svg version="1.1" id="Layer_1" xmlns="http://www.w3.org/2000/svg" xmlns:xlink="http://www.w3.org/1999/xlink" x="0px" y="0px"
	 viewBox="0 0 35.1 35.1" style="enable-background:new 0 0 35.1 35.1;" xml:space="preserve">
<style type="text/css">
	.st0{fill:#4B85E2;}
</style>
<g>
	<path class="st0" d="M16.2,17.1c-2.9,5.5-2.7,10.8-0.1,16.2c-2.2,1.4-4.6,2.3-7.4,1.5c-3.4-1-5.8-3.7-6.3-7.3
		c-0.3-2.2-0.3-4.5,0.3-6.7C3,19.5,2.5,18.2,2.1,17c-0.3-1-0.5-2-0.9-2.9c-0.6-1.5,0-3.7,1.5-5C3,8.8,3.1,8.6,3,8.2
		C1.8,5.3,2.2,2.4,3.4-0.5c0.7,0.3,1.3,0.6,2.1,0.9c-1.4,2.4-1.8,5-1.2,7.7C4.6,8.1,4.9,8,5.1,8c2.2-0.4,4,0.4,5.1,2.3
		c0.9,1.6,2,3.1,3.1,4.6c0.6,0.7,1.4,1.3,2.2,1.9C15.7,16.9,15.9,17,16.2,17.1z M3.3,12.3c-0.1,0-0.2,0-0.3,0c0,0.6-0.2,1.2,0,1.7
		c0.2,1,0.7,1.9,1,2.9c0.5,1.5,1,3,0.4,4.6c-0.6,1.6-0.6,3.3-0.1,5c0.2,0.7,0.6,1.4,0.8,2.1C5.8,26,6.4,23.7,7,21.3
		c0.2-0.7,0.3-1.4,0.1-2.1C6.6,16.5,4.9,14.4,3.3,12.3z"/>
	<path class="st0" d="M25.1,18.1c-0.1,0.8-0.2,1.8-0.3,2.7c-0.1,0.5,0.2,0.7,0.7,0.8c1.7,0.3,3.2,0,4.4-0.9c1.1,0.5,2.1,1,3.3,1.6
		c0.3,1.1,0.1,2.3-0.3,3.5c-1.5,3.7-4.3,6.2-7.9,7.7c-1,0.4-2,0.7-3,0.9c-1.9,0.4-3.6-0.5-4.4-2.3c-1.8-4.1-2-8.3-0.2-12.4
		c0.9-2,2.3-3.6,4.5-4.2c0.4-0.1,0.7,0,1,0.3C23.5,16.7,24.3,17.4,25.1,18.1z M22.3,16.8c-2.4,0.5-4.3,2.7-4.6,5.4
		C19.3,20.3,20.8,18.6,22.3,16.8z M19.2,30.4c0.1,0.1,0.2,0.3,0.4,0.4c0.4,0.1,1-0.8,0.9-1.3c0-0.2-0.2-0.5-0.4-0.5
		C19.8,28.8,19.2,29.7,19.2,30.4z M26.5,25c0.1,0.1,0.2,0.3,0.4,0.3c0.4,0.1,1-0.8,0.9-1.3c0-0.2-0.3-0.4-0.5-0.5
		C27,23.5,26.5,24.2,26.5,25z M19.4,26c-0.3-0.4-0.5-0.9-0.7-0.8c-0.6,0.1-0.7,0.7-0.7,1.1c0,0.3,0.3,0.5,0.5,0.8
		C18.7,26.7,19,26.4,19.4,26z M26.2,29c-0.4-0.3-0.6-0.5-0.7-0.5c-0.5,0-1.2,0.7-1.1,1.2c0,0.2,0.3,0.3,0.5,0.4c0,0,0.1,0,0.1,0
		C25.3,29.9,25.7,29.5,26.2,29z M19.9,23.5c0.1,0.1,0.2,0.3,0.4,0.3c0.4,0.1,0.9-0.7,0.9-1.3c0-0.2-0.2-0.5-0.4-0.6
		C20.5,21.9,19.9,22.7,19.9,23.5z M21.3,33c0.7,0,1.4-0.7,1.4-1.1c0-0.2-0.3-0.4-0.5-0.4c-0.5,0-1.2,0.6-1.2,1.1
		C21.1,32.8,21.3,32.9,21.3,33z M29.4,28.2c-0.6,0-1.3,0.7-1.3,1.2c0,0.2,0.3,0.4,0.4,0.5c0.4,0.1,1.1-0.7,1.1-1.2
		C29.7,28.5,29.5,28.3,29.4,28.2z M30,25.3c0.1,0.1,0.2,0.4,0.4,0.4c0.4,0.1,0.8-0.6,0.8-1.2c0-0.2-0.2-0.6-0.4-0.6
		C30.5,23.7,30,24.4,30,25.3z M21.9,27.2c0.1,0.1,0.2,0.3,0.4,0.3c0.4,0.1,1-0.8,0.9-1.3c0-0.2-0.3-0.4-0.4-0.5
		C22.4,25.7,21.9,26.5,21.9,27.2z M21.9,20.9c0.1,0.1,0.2,0.3,0.4,0.4c0.4,0.1,1.1-0.6,1.1-1.2c0-0.2-0.2-0.5-0.3-0.5
		C22.7,19.4,22,20.1,21.9,20.9z"/>
	<path class="st0" d="M34.2,21c-2,0.2-3.3-0.8-4.3-2.3c-0.7,1.6-2.2,2.3-4,1.8c-0.1-1.3,0.2-2,1.4-3.3c-2.2,0.1-3.2-1.4-4.4-2.9
		c1.6-0.3,3-0.2,4.3,0.6c0.3-0.6,0.7-1.1,1-1.6c1.7,0.6,2.5,2,2,3.7C32.2,17.6,33.3,19.1,34.2,21z"/>
</g>
</svg>
