<?xml version="1.0" encoding="utf-8"?>
<!-- Generator: Adobe Illustrator 22.0.0, SVG Export Plug-In . SVG Version: 6.00 Build 0)  -->
<svg version="1.1" id="Layer_1" xmlns="http://www.w3.org/2000/svg" xmlns:xlink="http://www.w3.org/1999/xlink" x="0px" y="0px"
	 viewBox="0 0 35.1 35.1" style="enable-background:new 0 0 35.1 35.1;" xml:space="preserve">
<style type="text/css">
	.st0{fill:#4B85E2;}
</style>
<g>
	<path class="st0" d="M4.7,11c-0.1,0.5-0.1,1-0.2,1.4c0,0.1-0.2,0.2-0.4,0.3c-0.5,0.2-1.1,0.4-1.6,0.6c0,0.1,0,0.2,0,0.2
		c0.3,0.2,0.6,0.4,1,0.4c1.8,0.4,3.6,0.8,5.4,1c4.2,0.5,8.5,0.5,12.7,0.1c2.1-0.2,4.2-0.7,6.3-1c0.4-0.1,0.8-0.3,1.1-0.4
		c0-0.1,0-0.1,0-0.2c-0.3-0.1-0.6-0.4-1-0.4c-0.8-0.1-1.2-0.5-1.4-1.3c0-0.2-0.1-0.4-0.2-0.6c1.3,0.3,2.5,0.6,3.5,1.4
		c0.8,0.6,0.8,1.4,0,2.1c-0.1,0.1-0.3,0.2-0.4,0.3c-1.6,0.8-2.8,2.1-3.6,3.7c-0.7,1.5-2,2-3.5,2.3c-3.9,0.7-7.8,0.7-11.7,0.2
		c-1-0.1-2-0.4-2.9-0.6c-0.9-0.2-1.5-0.9-1.9-1.6c-0.3-0.6-0.6-1.2-1-1.7c-0.6-0.8-1.3-1.5-2.2-1.9c-0.4-0.2-0.8-0.4-1.2-0.7
		c-0.8-0.6-0.7-1.5,0-2.1C2.4,11.6,3.5,11.3,4.7,11z M10,20c-0.5-0.8-1-1.5-1.4-2.3c-0.3-0.5-0.5-1.1-0.8-1.7
		c-0.1-0.1-0.2-0.3-0.3-0.3c-0.5-0.1-1.1-0.1-1.5-0.1c0.6,1,1.2,2,1.8,3C8.4,19.5,9.2,19.9,10,20z"/>
	<path class="st0" d="M31.8,22.3c-3.1,0-6.1,0.8-9,1.8c-0.3,0.1-0.4,0.3-0.4,0.6c0.1,2.1-1.1,3.5-3.3,3.7c-1.3,0.1-2.6,0.1-3.8-0.6
		c-0.9-0.5-1.4-1.4-1.7-2.3c-0.4-1,0.1-1.9,0.8-2.6c1.2-1.2,2.7-1.5,4.3-1.3c0.6,0.1,1.2,0.2,1.7,0.4c0.5,0.2,0.8,0.1,1.2-0.1
		c2.2-1.1,4.6-2.1,7-2.6c1.4-0.3,2.9-0.3,4.3-0.4c0.2,0,0.4,0.2,0.5,0.4c0.2,0.5,0.4,1,0.5,1.6c0.2,0.8-0.2,1.3-1,1.3
		C32.7,22.3,32.3,22.3,31.8,22.3z M17.4,26.4c1.2-0.1,2.3-0.3,3.1-1.2c0.8-0.9,0.6-1.9-0.7-2.1C18.9,23,17.9,23,17,23.1
		c-0.8,0.1-1.5,0.5-1.9,1.2c-0.5,0.7-0.3,1.3,0.5,1.7C16.1,26.2,16.7,26.3,17.4,26.4z M24.9,22.1c2.6-0.7,5.3-1.1,7.9-1.1
		c0-0.6-0.2-0.9-0.8-0.8c-0.6,0.1-1.3,0.1-1.9,0.2C28.2,20.8,26.5,21.3,24.9,22.1z"/>
	<path class="st0" d="M26.2,13.7c-0.6,0-1,0.1-1.5,0.1c-0.2-0.6-0.3-1.2-0.5-1.7c-0.4-1.1-1.3-1.5-2.4-1.2c-0.2,0.1-0.5,0-0.6-0.1
		c-0.3-0.3-0.7-0.6-0.8-1.2c-0.3-0.8-1.7-1.3-2.6-1c-0.2,0.1-0.4,0.1-0.6,0c-0.6-0.2-1.2-0.4-1.9-0.6c-0.6-0.1-1.1,0-1.5,0.5
		c-0.3,0.4-0.8,0.4-1.1,0c-0.5-0.6-1.2-0.8-2-0.6c-0.7,0.2-1.1,0.8-1,1.5c0,0.3-0.1,0.5-0.4,0.4c-2-0.2-3,1.5-3,3.3
		c0,0.2,0,0.4,0,0.6c-0.4,0-0.7,0-1,0c-0.4-1.9,0.2-4.4,2.7-5.1c0.2-0.1,0.5-0.2,0.5-0.4C9,7.2,10.4,6.5,12,7.1
		c0.3,0.1,0.5,0.2,0.8,0.3c0.3-0.2,0.6-0.4,0.9-0.6c1.1-0.5,2.2-0.4,3.2,0.2c0.2,0.1,0.5,0.2,0.7,0.1c1.5-0.4,3.6,0.5,4.3,2
		c0.1,0.1,0.3,0.2,0.4,0.2c1.9-0.2,3.1,1,3.5,2.7C26,12.6,26,13.1,26.2,13.7z"/>
	<path class="st0" d="M18.8,12.3c-0.1-1.2-0.4-2.2-1.4-2.9c0,0,0.1-0.1,0.1-0.1c0.3,0.2,0.6,0.3,0.9,0.5c0.2,0.2,0.5,0.4,0.6,0.6
		c0.3,0.6,0.7,1,1.5,1.2c1,0.2,1.7,1.4,1.6,2.7c-0.3,0-0.6,0-0.9,0c-0.2,0-0.3-0.2-0.4-0.3c-0.1-0.2-0.2-0.5-0.3-0.8
		c-0.2-0.6-0.7-0.9-1.3-0.8C19.1,12.3,18.9,12.3,18.8,12.3z"/>
	<path class="st0" d="M10,20c-0.8-0.1-1.6-0.6-2.1-1.4c-0.6-1-1.2-2-1.8-3c0.4,0,1,0.1,1.5,0.1c0.1,0,0.2,0.2,0.3,0.3
		c0.3,0.6,0.5,1.1,0.8,1.7C9.1,18.5,9.6,19.3,10,20z"/>
	<path class="st0" d="M24.9,22.1c1.7-0.8,3.4-1.3,5.2-1.6c0.6-0.1,1.3-0.1,1.9-0.2c0.6-0.1,0.8,0.2,0.8,0.8
		C30.1,21,27.5,21.4,24.9,22.1z"/>
</g>
</svg>
