<?xml version="1.0" encoding="utf-8"?>
<!-- Generator: Adobe Illustrator 22.0.0, SVG Export Plug-In . SVG Version: 6.00 Build 0)  -->
<svg version="1.1" id="Layer_1" xmlns="http://www.w3.org/2000/svg" xmlns:xlink="http://www.w3.org/1999/xlink" x="0px" y="0px"
	 viewBox="0 0 35.1 35.1" style="enable-background:new 0 0 35.1 35.1;" xml:space="preserve">
<style type="text/css">
	.st0{fill:#4B85E2;}
</style>
<g>
	<path class="st0" d="M26.5,3.6c-7.6,0-15.2,0-22.8,0c0,9.5,0,19,0,28.5c0.2,0,0.3,0,0.5,0c3.3,0,6.6,0,9.9,0c1,0,1.6,0.7,1.6,1.6
		c0,0.8-0.7,1.4-1.5,1.4c-1.1,0-2.2,0-3.4,0c-2.8,0-5.6,0-8.4,0c-1.1,0-1.7-0.6-1.7-1.7c0-10.4,0-20.8,0-31.2c0-1.1,0.6-1.7,1.7-1.7
		c8.5,0,16.9,0,25.4,0c1.1,0,1.8,0.8,1.8,1.7c0,5.5,0,11,0,16.5c0,0.9-0.6,1.6-1.5,1.6c-0.8,0-1.5-0.6-1.5-1.4c0-0.1,0-0.3,0-0.4
		c0-4.8,0-9.6,0-14.4C26.5,3.9,26.5,3.8,26.5,3.6z"/>
	<path class="st0" d="M24.2,30.6c1.8-2,3.7-4.1,5.5-6.1c0.6-0.7,1.3-1.4,1.9-2.2c0.6-0.7,1.5-0.8,2.2-0.2c0.7,0.6,0.7,1.5,0.1,2.2
		c-2.8,3.1-5.6,6.3-8.5,9.4c-0.6,0.7-1.5,0.7-2.2,0.1c-1.6-1.5-3.2-3.1-4.8-4.6c-0.6-0.6-0.7-1.6-0.1-2.2c0.6-0.6,1.5-0.6,2.2,0
		c1.1,1.1,2.3,2.2,3.4,3.2C24,30.4,24.1,30.5,24.2,30.6z"/>
	<path class="st0" d="M15.4,11.6c-2,0-4.1,0-6.1,0c-0.8,0-1.4-0.4-1.5-1.1c-0.2-1,0.4-1.8,1.4-1.9c0.1,0,0.2,0,0.2,0c4,0,8,0,12.1,0
		c0.9,0,1.4,0.4,1.6,1.1c0.3,0.9-0.3,1.9-1.3,1.9c-0.5,0-1.1,0-1.6,0C18.5,11.6,16.9,11.6,15.4,11.6z"/>
	<path class="st0" d="M15.4,16.2c2.1,0,4.2,0,6.2,0c0.8,0,1.3,0.5,1.5,1.2c0.1,0.6-0.2,1.3-0.8,1.6c-0.2,0.1-0.5,0.2-0.8,0.2
		c-4.1,0-8.2,0-12.3,0c-0.9,0-1.6-0.7-1.6-1.5c0-0.9,0.7-1.5,1.6-1.5C11.3,16.2,13.3,16.2,15.4,16.2z"/>
	<path class="st0" d="M11,26.6c-0.6,0-1.2,0-1.8,0c-0.8,0-1.5-0.6-1.5-1.5c0-0.8,0.6-1.5,1.4-1.6c1.3,0,2.6,0,3.8,0
		c0.9,0,1.5,0.7,1.4,1.6c0,0.8-0.7,1.4-1.5,1.4c0,0-0.1,0-0.1,0C12.2,26.6,11.6,26.6,11,26.6z"/>
</g>
</svg>
