<?xml version="1.0" encoding="utf-8"?>
<!-- Generator: Adobe Illustrator 22.0.0, SVG Export Plug-In . SVG Version: 6.00 Build 0)  -->
<svg version="1.1" id="Layer_1" xmlns="http://www.w3.org/2000/svg" xmlns:xlink="http://www.w3.org/1999/xlink" x="0px" y="0px"
	 viewBox="0 0 35.1 35.1" style="enable-background:new 0 0 35.1 35.1;" xml:space="preserve">
<style type="text/css">
	.st0{fill:#4B85E2;}
	.st1{fill:#FFFFFF;}
</style>
<path class="st0" d="M31.9,35.1c-0.8-0.2-1.3-0.6-1.8-1.2c-2.2-2.2-4.4-4.4-6.6-6.5c-0.1-0.1-0.2-0.2-0.2-0.3
	C16.3,32,7,29.5,2.8,23.5C-1.5,17.3-0.7,9.1,4.7,4c5.4-5,13.8-5.3,19.6-0.6c5.6,4.6,7.4,13.3,2.8,20c0.1,0.1,0.3,0.1,0.4,0.2
	c2.2,2.2,4.5,4.5,6.7,6.7c1.8,1.7,0.9,4.3-1.2,4.8c0,0,0,0-0.1,0C32.5,35.1,32.2,35.1,31.9,35.1z M14.8,24.3c5.2,0,9.5-4.2,9.5-9.4
	c0-5.2-4.2-9.4-9.4-9.5c-5.1-0.1-9.6,4.2-9.5,9.5C5.4,20.1,9.6,24.3,14.8,24.3z"/>
</svg>
