<?xml version="1.0" encoding="utf-8"?>
<!-- Generator: Adobe Illustrator 22.0.0, SVG Export Plug-In . SVG Version: 6.00 Build 0)  -->
<svg version="1.1" id="Layer_1" xmlns="http://www.w3.org/2000/svg" xmlns:xlink="http://www.w3.org/1999/xlink" x="0px" y="0px"
	 viewBox="0 0 35.1 35.1" style="enable-background:new 0 0 35.1 35.1;" xml:space="preserve">
<style type="text/css">
	.st0{fill:#4B85E2;}
	.st1{fill:none;}
	.st2{fill:#FFFFFF;}
</style>
<g>
	<path d="M23.7,27.5c0.2,0,0.3,0,0.5,0c0-0.4,0-0.9,0-1.3c0-0.4,0.2-0.6,0.6-0.6c0,0,0,0,0.1,0c1.4,0,1.6-0.1,1.6,0.7
		c0.7-0.7,1.1-1.6,1.1-2.6c0-0.7-0.2-1.3-0.5-1.8c-0.1-0.1-0.2-0.2-0.2-0.3c0-0.1-0.1-0.1-0.1-0.2c-0.7-0.9-1.8-1.5-3-1.5l-0.1,0
		c-0.6,0-1.1,0.2-1.6,0.4c0.2,0.6,0.6,1,1.2,1.3c0.4,0.2,0.1,0.6,0,0.7c-0.5,0.6-1,1.2-1.6,1.7c-0.4,0.4-0.9,0.9-1.3,1.3
		C20.9,26.6,22.2,27.5,23.7,27.5z"/>
	<path d="M31.3,27.9c0.2,0.2,0.5,0.5,0.7,0.7c0.5,0.5,1,1,1.5,1.5c0-0.4,0-0.9-0.2-1.4c-0.2-0.6-0.4-1.1-0.6-1.7
		c-0.2-0.4-0.4-0.9-0.6-1.3C31.9,26.5,31.7,27.2,31.3,27.9z"/>
	<path d="M28.6,32l-0.7-0.7c-1.3,0.7-2.7,1.1-4.1,1.1c0,0,0,0,0,0c-2.8,0-5.5-1.4-7.1-3.6c-0.6-0.9-1.1-1.9-1.3-2.9
		c-1.1-1-2.1-2.1-3.1-3.1c-0.3-0.3-0.4-0.6-0.7-0.9c0.9-0.4,1.6-0.9,1.7-1.9c0.7,0.6,1.4,1.2,2.2,1.5c0.1-0.4,0.3-0.9,0.5-1.3
		c-0.5-0.2-1-0.5-1.5-1c-1.2-1.1-2.1-2.4-2.7-3.9c-0.1-0.3-0.4-0.5-0.6-0.8c-0.4-0.5-0.7-1.1-0.8-1.7c-0.1-0.6-0.3-1.3,0.6-1.6
		c0.1,0,0.1-0.3,0.2-0.5c0.4-0.8,0.6-1.7,1.1-2.4c0.7-1.1,1.8-1.3,3-0.7c2.5,1.3,4.9,2.5,7.4,3.8c0.6,0.3,1.3,0.9,1.8-0.2
		c0.6,0.6,0.6,1.1,0.5,1.7c-0.2,0.8-0.2,1.6-1.2,1.9c-0.1,0-0.2,0.3-0.2,0.4c0,0,0,0,0,0.1c0.1,0,0.2,0,0.2,0c0.8,0,1.6,0.1,2.4,0.3
		c0.1-0.8,0.2-1.7,0.3-2.5c0.4-2.7,0.1-5.3-0.9-7.8c-0.9-2.5-2.6-4.3-5.2-4.9c-1.8-0.4-3.6-0.4-5.3,0c-1.6,0.3-3,1.2-4,2.5
		c-2,2.7-2.4,5.9-2.3,9.1C8.7,13.5,9,15,9,16.6c0,1.4-0.2,2.8-0.4,4.2C8.5,21.6,8,22.2,7,22.4c-0.7,0.1-1.3,0.5-1.9,0.9
		c-1.9,1.4-2.8,3.5-3.4,5.8c-0.4,1.5,0.3,2.9,1.7,3.6c1,0.5,2,0.9,3.1,1.2c4,1,8.2,1.2,12.3,1.3c2.6-0.3,5.2-0.5,7.8-0.8
		c1.2-0.2,2.4-0.4,3.5-0.9C29.6,33,29.1,32.5,28.6,32z"/>
</g>
<path class="st0" d="M32.5,34.1c-0.4-0.1-0.7-0.3-0.9-0.6c-1.1-1.1-2.2-2.2-3.4-3.3c0,0-0.1-0.1-0.1-0.2c-3.6,2.5-8.4,1.3-10.5-1.8
	c-2.2-3.2-1.8-7.4,1-10c2.8-2.6,7-2.7,10-0.3c2.9,2.3,3.8,6.8,1.4,10.2c0.1,0,0.1,0.1,0.2,0.1c1.2,1.1,2.3,2.3,3.5,3.4
	c0.9,0.9,0.5,2.2-0.6,2.4c0,0,0,0,0,0C32.8,34.1,32.6,34.1,32.5,34.1z M23.7,28.6c2.7,0,4.8-2.2,4.8-4.8c0-2.7-2.1-4.8-4.8-4.8
	c-2.6,0-4.9,2.1-4.9,4.9C18.9,26.4,21,28.5,23.7,28.6z"/>
</svg>
