<?xml version="1.0" encoding="utf-8"?>
<!-- Generator: Adobe Illustrator 22.0.0, SVG Export Plug-In . SVG Version: 6.00 Build 0)  -->
<svg version="1.1" id="Layer_1" xmlns="http://www.w3.org/2000/svg" xmlns:xlink="http://www.w3.org/1999/xlink" x="0px" y="0px"
	 viewBox="0 0 35.1 35.1" style="enable-background:new 0 0 35.1 35.1;" xml:space="preserve">
<style type="text/css">
	.st0{fill:#FFFFFF;}
</style>
<path class="st0" d="M22,20.5c0.4-0.2,0.8-0.4,1.2-0.6c-0.6,0.1-1.3,0.4-1.8,0.8C21.6,20.7,21.8,20.6,22,20.5z"/>
<path class="st0" d="M20.4,21.8c-0.4,0.6-0.6,1.2-0.5,1.9c0,0.2,0,0.4,0.1,0.7c0.2-0.1,0.4-0.3,0.6-0.5C21.3,23,21.2,22.2,20.4,21.8
	z"/>
<path class="st0" d="M15.2,24.4c-0.1-0.7,0-1.3,0.1-2c-0.1,0.1-0.2,0.2-0.3,0.4C14.5,23.5,14.6,24.1,15.2,24.4z"/>
<path class="st0" d="M23.7,15.1c1.1,0,2.2,0.2,3.2,0.6c0.8-1.3,1.9-2.3,3.2-2.9c0.2-0.1,0.3-0.2,0.5-0.3c0.8-0.7,0.7-1.6-0.1-2.2
	c-1-0.9-2.3-1.2-3.7-1.5C26.9,9,27,9.2,27,9.4c0.1,0.8,0.6,1.3,1.4,1.4c0.4,0.1,0.7,0.3,1,0.5c0,0.1,0,0.2,0,0.2
	c-0.4,0.2-0.8,0.4-1.2,0.5c-2.2,0.4-4.4,0.9-6.6,1.1c-4.5,0.5-8.9,0.4-13.4-0.1c-1.9-0.2-3.8-0.7-5.7-1c-0.4-0.1-0.7-0.3-1-0.5
	c0-0.1,0-0.2,0-0.3c0.6-0.2,1.1-0.4,1.7-0.6c0.2-0.1,0.4-0.2,0.4-0.3c0.2-0.5,0.3-1,0.4-1.5c-1.2,0.3-2.4,0.6-3.4,1.4
	c-0.8,0.7-0.8,1.6,0,2.3c0.4,0.3,0.8,0.6,1.2,0.7c1,0.4,1.7,1.1,2.4,1.9c0.4,0.6,0.7,1.2,1.1,1.8c0.5,0.8,1.1,1.5,2,1.7
	c1,0.3,2,0.5,3.1,0.7c1.9,0.2,3.9,0.4,5.8,0.3c0.4-0.8,1-1.6,1.8-2.3C19.4,15.9,21.5,15.1,23.7,15.1z M7.4,16.8
	c-0.6-1.1-1.3-2.1-1.9-3.2c0.5,0,1,0.1,1.6,0.2c0.1,0,0.2,0.2,0.3,0.3c0.3,0.6,0.5,1.2,0.8,1.8c0.5,0.8,1,1.6,1.5,2.4
	C8.7,18.2,7.9,17.7,7.4,16.8z"/>
<path class="st0" d="M14.9,22.8c0.1-0.1,0.2-0.3,0.3-0.4c0.1-0.6,0.3-1.3,0.5-1.9c-0.5,0.2-1,0.5-1.4,1c-0.7,0.7-1.3,1.7-0.9,2.7
	c0.4,0.9,0.9,1.8,1.8,2.4c0.2,0.1,0.3,0.2,0.5,0.2c-0.3-0.8-0.5-1.6-0.6-2.4C14.6,24.1,14.5,23.5,14.9,22.8z"/>
<path class="st0" d="M22.6,23.4c0-0.4,0.1-0.5,0.4-0.7c1.2-0.5,2.5-0.9,3.8-1.2c-0.7-1-1.8-1.6-3.1-1.6v-0.2l0,0v0.2
	c-0.2,0-0.3,0-0.5,0.1c-0.4,0.2-0.8,0.4-1.2,0.6c-0.2,0.1-0.4,0.2-0.6,0.2c-0.1,0.1-0.3,0.2-0.4,0.3c-0.2,0.2-0.4,0.5-0.6,0.8
	c0.8,0.4,0.9,1.2,0.2,2c-0.2,0.2-0.4,0.4-0.6,0.5c0.2,0.9,0.6,1.6,1.2,2.2C22.2,25.9,22.7,24.8,22.6,23.4z"/>
<path class="st0" d="M32.6,20.7c0.5,0,0.9,0,1.4,0c0.9,0,1.3-0.5,1.1-1.4c-0.2-0.6-0.3-1.1-0.5-1.6c-0.1-0.2-0.3-0.4-0.5-0.4
	c-1.4,0.1-2.8,0.1-4.1,0.3c0.9,0.9,1.5,1.9,1.9,3.1C32.1,20.8,32.3,20.7,32.6,20.7z"/>
<path class="st0" d="M5.8,12c0-0.3,0-0.5,0-0.7c-0.1-2,1.1-3.7,3.1-3.5c0.3,0,0.4-0.1,0.4-0.4c0-0.8,0.4-1.4,1.1-1.6
	c0.8-0.2,1.6,0,2.1,0.6c0.3,0.4,0.8,0.4,1.2,0c0.4-0.5,1-0.7,1.6-0.6c0.7,0.2,1.3,0.4,2,0.6c0.2,0.1,0.5,0.1,0.7,0
	c0.9-0.3,2.5,0.2,2.7,1c0.2,0.5,0.5,0.9,0.9,1.2c0.1,0.1,0.4,0.2,0.6,0.1c1.2-0.4,2.1,0.1,2.5,1.2c0.2,0.6,0.3,1.2,0.5,1.8
	c0.5,0,1-0.1,1.6-0.1c-0.1-0.7-0.2-1.2-0.4-1.8c-0.5-1.8-1.7-3-3.7-2.8c-0.1,0-0.4-0.1-0.4-0.2c-0.7-1.6-2.9-2.5-4.5-2.1
	c-0.2,0.1-0.5,0-0.7-0.1C16,4,14.9,3.9,13.7,4.4c-0.4,0.2-0.7,0.4-1,0.6c-0.3-0.1-0.5-0.2-0.8-0.4C10,4,8.6,4.8,8.2,6.2
	c0,0.2-0.4,0.4-0.6,0.4C4.9,7.3,4.3,10,4.7,12C5.1,12,5.4,12,5.8,12z"/>
<path class="st0" d="M20.6,9.4c-0.8-0.1-1.2-0.6-1.6-1.2c-0.1-0.3-0.4-0.5-0.6-0.7c-0.3-0.2-0.6-0.3-0.9-0.5l-0.1,0.1
	c1.1,0.7,1.4,1.9,1.5,3.1c0.2,0,0.3,0,0.4,0c0.7-0.1,1.1,0.3,1.4,0.9c0.1,0.3,0.1,0.6,0.3,0.8c0.1,0.2,0.3,0.3,0.4,0.4
	c0.3,0.1,0.6,0,1,0C22.4,10.9,21.7,9.6,20.6,9.4z"/>
<path class="st0" d="M32.5,34.1c-0.4-0.1-0.7-0.3-0.9-0.6c-1.1-1.1-2.2-2.2-3.4-3.3c0,0-0.1-0.1-0.1-0.2c-3.6,2.5-8.4,1.3-10.5-1.8
	c-2.2-3.2-1.8-7.4,1-10s7-2.7,10-0.3c2.9,2.3,3.8,6.8,1.4,10.2c0.1,0,0.1,0.1,0.2,0.1c1.2,1.1,2.3,2.3,3.5,3.4
	c0.9,0.9,0.5,2.2-0.6,2.4l0,0C32.8,34.1,32.6,34.1,32.5,34.1z M23.7,28.6c2.7,0,4.8-2.2,4.8-4.8c0-2.7-2.1-4.8-4.8-4.8
	c-2.6,0-4.9,2.1-4.9,4.9C18.9,26.4,21,28.5,23.7,28.6z"/>
</svg>
