<?xml version="1.0" encoding="utf-8"?>
<!-- Generator: Adobe Illustrator 22.0.0, SVG Export Plug-In . SVG Version: 6.00 Build 0)  -->
<svg version="1.1" id="Layer_1" xmlns="http://www.w3.org/2000/svg" xmlns:xlink="http://www.w3.org/1999/xlink" x="0px" y="0px"
	 viewBox="0 0 35.1 35.1" style="enable-background:new 0 0 35.1 35.1;" xml:space="preserve">
<style type="text/css">
	.st0{fill:#4B85E2;}
	.st1{fill:#FFFFFF;}
</style>
<g>
	<path class="st0" d="M23.4,27.5c0-1,0-2,0-2.9c0-1.5,1-2.7,2.5-2.9c0.3-0.1,0.7,0,1,0c-0.7-1-1.8-1.7-3.2-1.7l-0.1,0
		c-0.4,0-0.8,0.1-1.2,0.2c-1.2,1-1.9,2.4-2,4.2c0,0.5,0,0.9,0,1.4C21.1,26.7,22.2,27.4,23.4,27.5z"/>
	<path class="st0" d="M32.2,26.4c0-0.5,0-1,0-1.6c-0.1,1-0.5,2.1-1,3c0.2,0.2,0.5,0.5,0.7,0.7c0.8,0.8,1.5,1.6,2.3,2.3
		c0.3,0.3,0.6,0.7,0.7,1.1c0.2-0.6,0.3-1.3,0.2-1.9c-0.3-1.6-1.2-2.8-2.7-3.4C32.3,26.6,32.2,26.5,32.2,26.4z"/>
	<path class="st0" d="M30.8,34.2c-0.7-0.7-1.5-1.5-2.2-2.2l-0.7-0.7c-0.4,0.2-0.9,0.4-1.4,0.6c0.4,1.6,1.7,2.9,3.5,3.2
		c0.1,0,0.2,0,0.4,0.1c0.3,0,0.5,0,0.8,0c0.2,0,0.4-0.1,0.6-0.1c0,0,0.1,0,0.1,0C31.4,34.8,31.1,34.5,30.8,34.2z"/>
	<path class="st0" d="M19.4,31.1c-0.8,0.8-2,1.2-3.3,1c-1.6-0.3-2.9-1.7-2.9-3.3c-0.1-1.7,0-3.5,0-5.2c0-0.1,0.1-0.1,0.1-0.2
		c0.4-0.2,0.8-0.5,1-0.9c0.4-0.6,0.7-1.4,0.8-2.1c0-0.1,0.1-0.2,0.2-0.2c0.2,0,0.4-0.1,0.6-0.2c0.5-1,1.1-1.9,1.9-2.6
		c0.9-0.9,2-1.5,3.2-1.9c0.1-0.2,0.2-0.3,0.3-0.5c1.4-2.9,2-6,2.1-9.2c0-0.5-0.1-1.1-0.3-1.6c-0.4-1.1-1.2-1.9-2.3-2.4
		c-1.1-0.6-2.4-0.8-3.6-0.9c-0.1,0-0.2-0.1-0.3-0.2c-0.7-0.7-1.7-0.9-2.6-0.4c-0.8,0.4-1.3,1.4-1.2,2.3c0.1,0.8,0.6,1.4,1.4,1.7
		c0.8,0.3,1.5,0.1,2.2-0.4c0.1-0.1,0.2-0.1,0.2-0.1c0.5,0.1,0.9,0.1,1.4,0.2c0.5,0.1,1.1,0.3,1.5,0.6c0.3,0.2,0.5,0.5,0.5,1
		c0,0.5,0,1,0,1.6c-0.1,1.6-0.4,3.2-0.9,4.7c-0.4,1.3-1,2.6-2,3.6c-0.7,0.8-1.5,1.4-2.6,1.8c-0.1,0-0.2,0-0.2,0
		c-0.5-0.5-1-0.7-1.7-0.6c-0.9,0-1.9,0-2.8,0c-0.6,0-1.2,0.2-1.6,0.6c-0.1,0.1-0.1,0.1-0.2,0c-0.6-0.2-1.1-0.5-1.6-0.9
		c-1-0.8-1.7-1.9-2.3-3c-0.6-1.3-1-2.7-1.3-4.1C3,8.1,2.8,6.9,2.8,5.7c0-0.4,0.2-0.8,0.5-1c0.3-0.2,0.5-0.3,0.8-0.4
		c0.7-0.3,1.4-0.3,2.1-0.4c0.1,0,0.2,0,0.3,0.1c0.7,0.6,1.5,0.7,2.4,0.3c0.8-0.4,1.3-1.1,1.2-2c0-0.9-0.5-1.6-1.3-1.9
		C8-0.2,7.2,0,6.5,0.6C6.3,0.8,6.1,0.9,5.9,0.9c-0.1,0-0.3,0-0.4,0C4.4,1.1,3.3,1.3,2.3,1.8C1.2,2.4,0.4,3.2,0.1,4.5
		C0,4.8,0,5.1-0.1,5.4c0,0.4,0,0.8,0,1.3c0,0.3,0,0.6,0.1,0.9c0.3,2.9,0.9,5.7,2.4,8.2c0.8,1.4,1.9,2.6,3.2,3.5
		c0.7,0.5,1.5,0.8,2.4,1c0.2,0,0.2,0.1,0.3,0.3c0.1,0.7,0.4,1.3,0.7,1.9c0.3,0.5,0.7,0.8,1.2,1c0,0.1,0,0.2,0,0.2c0,1.7,0,3.3,0,5
		c0.1,2.4,1.2,4.3,3.3,5.5c0.8,0.5,1.8,0.8,2.8,0.9c0,0,0.1,0,0.1,0c0.3,0,0.6,0,0.9,0c0.4-0.1,0.7-0.1,1.1-0.2
		c1.6-0.4,3-1.4,3.9-2.7C21.2,32,20.3,31.7,19.4,31.1z"/>
</g>
<path class="st0" d="M32.5,34.1c-0.4-0.1-0.7-0.3-0.9-0.6c-1.1-1.1-2.2-2.2-3.4-3.3c0,0-0.1-0.1-0.1-0.2c-3.6,2.5-8.4,1.3-10.5-1.8
	c-2.2-3.2-1.8-7.4,1-10c2.8-2.6,7-2.7,10-0.3c2.9,2.3,3.8,6.8,1.4,10.2c0.1,0,0.1,0.1,0.2,0.1c1.2,1.1,2.3,2.3,3.5,3.4
	c0.9,0.9,0.5,2.2-0.6,2.4c0,0,0,0,0,0C32.8,34.1,32.6,34.1,32.5,34.1z M23.7,28.6c2.7,0,4.8-2.2,4.8-4.8c0-2.7-2.1-4.8-4.8-4.8
	c-2.6,0-4.9,2.1-4.9,4.9C18.9,26.4,21,28.5,23.7,28.6z"/>
</svg>
