<?xml version="1.0" encoding="utf-8"?>
<!-- Generator: Adobe Illustrator 22.0.0, SVG Export Plug-In . SVG Version: 6.00 Build 0)  -->
<svg version="1.1" id="Layer_1" xmlns="http://www.w3.org/2000/svg" xmlns:xlink="http://www.w3.org/1999/xlink" x="0px" y="0px"
	 viewBox="0 0 35.1 35.1" style="enable-background:new 0 0 35.1 35.1;" xml:space="preserve">
<style type="text/css">
	.st0{fill:#FFFFFF;}
</style>
<path class="st0" d="M7.3,14.1C7.2,14,7.1,13.8,7,13.8c-0.6-0.1-1.1-0.1-1.6-0.2c0.6,1.1,1.3,2.1,1.9,3.2c0.5,0.9,1.3,1.4,2.2,1.5
	c-0.5-0.8-1-1.6-1.5-2.4C7.8,15.3,7.6,14.7,7.3,14.1z"/>
<path class="st0" d="M22.7,19.1c1.6-0.3,2.9-0.8,3.7-2.4c0.8-1.8,2.1-3.1,3.8-3.9c0.2-0.1,0.3-0.2,0.5-0.3c0.8-0.7,0.7-1.6-0.1-2.2
	c-1-0.9-2.3-1.2-3.7-1.5c0,0.2,0.1,0.4,0.2,0.6c0.1,0.8,0.6,1.3,1.4,1.4c0.4,0.1,0.7,0.3,1,0.5c0,0.1,0,0.2,0,0.2
	c-0.4,0.2-0.8,0.4-1.2,0.5c-2.2,0.4-4.4,0.9-6.6,1.1c-4.5,0.5-8.9,0.4-13.4-0.1c-1.9-0.2-3.8-0.7-5.7-1c-0.4-0.1-0.7-0.3-1-0.5
	c0-0.1,0-0.2,0-0.3c0.6-0.2,1.1-0.4,1.7-0.6c0.2-0.1,0.4-0.2,0.4-0.3c0.2-0.5,0.2-1,0.3-1.5c-1.2,0.3-2.4,0.6-3.4,1.4
	c-0.8,0.7-0.8,1.6,0,2.3C1,12.8,1.4,13,1.8,13.2c1,0.4,1.7,1.1,2.4,1.9c0.4,0.6,0.7,1.2,1.1,1.8c0.5,0.8,1.1,1.5,2,1.7
	c1,0.3,2,0.5,3.1,0.7C14.4,19.9,18.6,19.9,22.7,19.1z M7.4,16.8c-0.6-1.1-1.3-2.1-1.9-3.2c0.5,0,1,0.1,1.6,0.2
	c0.1,0,0.2,0.2,0.3,0.3c0.3,0.6,0.5,1.2,0.8,1.8c0.5,0.8,1,1.6,1.5,2.4C8.8,18.2,8,17.7,7.4,16.8z"/>
<path class="st0" d="M35.1,19.4c-0.2-0.6-0.3-1.1-0.5-1.6c-0.1-0.2-0.3-0.4-0.5-0.4c-1.5,0.1-3.1,0.1-4.6,0.4
	c-2.6,0.5-5,1.5-7.4,2.7c-0.4,0.2-0.8,0.3-1.3,0.1c-0.6-0.2-1.2-0.4-1.8-0.4c-1.7-0.2-3.3,0.1-4.6,1.3c-0.7,0.7-1.3,1.7-0.9,2.7
	c0.4,0.9,0.9,1.8,1.8,2.4c1.2,0.7,2.6,0.8,4,0.6c0.5-0.1,1-0.2,1.4-0.3c0.5-3.6,3.5-6.4,7.2-6.4c0.8,0,1.6,0.1,2.3,0.4
	c0.8-0.1,1.7-0.2,2.5-0.2c0.5,0,0.9,0,1.4,0C34.8,20.8,35.3,20.2,35.1,19.4z M20.6,23.8c-0.9,1-2,1.1-3.2,1.2
	c-0.7-0.2-1.4-0.2-2-0.5c-0.8-0.4-1-1-0.5-1.7s1.2-1.2,2-1.3c1-0.1,2-0.1,3,0.1C21.2,21.8,21.5,22.8,20.6,23.8z"/>
<path class="st0" d="M5.8,12c0-0.3,0-0.5,0-0.7c-0.1-2,1.1-3.7,3.1-3.5c0.3,0,0.4-0.1,0.4-0.4c0-0.8,0.4-1.4,1.1-1.6
	c0.8-0.2,1.6,0,2.1,0.6c0.3,0.4,0.8,0.4,1.2,0c0.4-0.5,1-0.7,1.6-0.6c0.7,0.2,1.3,0.4,2,0.6c0.2,0.1,0.5,0.1,0.7,0
	c0.9-0.3,2.5,0.2,2.7,1c0.2,0.5,0.5,0.9,0.9,1.2c0.1,0.1,0.4,0.2,0.6,0.1c1.2-0.4,2.1,0.1,2.5,1.2c0.2,0.6,0.3,1.2,0.5,1.8
	c0.5,0,1-0.1,1.6-0.1c-0.1-0.7-0.2-1.2-0.4-1.8c-0.5-1.8-1.7-3-3.7-2.8c-0.1,0-0.4-0.1-0.4-0.2c-0.7-1.6-2.9-2.5-4.5-2.1
	c-0.2,0.1-0.5,0-0.7-0.1C16,4,14.9,3.9,13.7,4.4c-0.4,0.2-0.7,0.4-1,0.6c-0.3-0.1-0.5-0.2-0.8-0.4C10.1,4,8.6,4.8,8.2,6.2
	c0,0.2-0.4,0.4-0.6,0.4C5,7.3,4.3,10,4.8,12C5.1,12,5.5,12,5.8,12z"/>
<path class="st0" d="M20.6,9.4c-0.8-0.1-1.2-0.6-1.6-1.2c-0.1-0.3-0.4-0.5-0.6-0.7c-0.3-0.2-0.6-0.3-0.9-0.5l-0.1,0.1
	c1.1,0.7,1.4,1.9,1.5,3.1c0.2,0,0.3,0,0.4,0c0.7-0.1,1.1,0.3,1.4,0.9c0.1,0.3,0.1,0.6,0.3,0.8c0.1,0.2,0.3,0.3,0.4,0.4
	c0.3,0.1,0.6,0,1,0C22.4,10.9,21.7,9.6,20.6,9.4z"/>
<path class="st0" d="M27.8,21.8c-3.3,0-6,2.7-6,6s2.7,6,6,6s6-2.7,6-6S31.1,21.8,27.8,21.8z M30.9,28.5c0,0.3-0.2,0.5-0.5,0.5H29
	v1.4c0,0.3-0.2,0.5-0.5,0.5h-1.3c-0.3,0-0.5-0.2-0.5-0.5V29h-1.4c-0.3,0-0.5-0.2-0.5-0.5v-1.3c0-0.3,0.2-0.5,0.5-0.5h1.4v-1.4
	c0-0.3,0.2-0.5,0.5-0.5h1.3c0.3,0,0.5,0.2,0.5,0.5v1.4h1.4c0.3,0,0.5,0.2,0.5,0.5V28.5z"/>
</svg>
