<?xml version="1.0" encoding="utf-8"?>
<!-- Generator: Adobe Illustrator 22.0.0, SVG Export Plug-In . SVG Version: 6.00 Build 0)  -->
<svg version="1.1" id="Layer_1" xmlns="http://www.w3.org/2000/svg" xmlns:xlink="http://www.w3.org/1999/xlink" x="0px" y="0px"
	 viewBox="0 0 35.1 35.1" style="enable-background:new 0 0 35.1 35.1;" xml:space="preserve">
<style type="text/css">
	.st0{fill:#4B85E2;}
	.st1{fill:none;}
	.st2{fill:#FFFFFF;}
</style>
<path d="M20.5,27.8c0-1.3,0.4-2.6,1-3.7c-1.2,1.2-2.4,2.3-3.5,3.5c-0.3,0.3-0.5,0.3-0.9,0c-1.6-1.6-3.3-3.2-4.9-4.9
	c-0.3-0.3-0.4-0.6-0.7-0.9c0.9-0.4,1.6-0.9,1.7-1.9c1.3,1.2,2.7,2,4.4,2c1.7,0,3-0.8,4.3-2c0.2,0.9,0.6,1.4,1.3,1.7
	c0.2,0.1,0.3,0.3,0.2,0.4c0.9-0.7,1.9-1.1,3-1.3c-0.1-0.2-0.1-0.3-0.2-0.5c-0.5-2.4-0.3-4.8,0-7.2c0.4-2.7,0.1-5.3-0.9-7.8
	c-0.9-2.5-2.6-4.3-5.2-4.9c-1.8-0.4-3.6-0.4-5.3,0c-1.6,0.3-3,1.2-4,2.5c-2,2.7-2.4,5.9-2.3,9.1C8.7,13.5,9,15,9,16.6
	c0,1.4-0.2,2.8-0.4,4.2C8.5,21.6,8,22.2,7,22.4c-0.7,0.1-1.3,0.5-1.9,0.9c-1.9,1.4-2.8,3.5-3.4,5.8c-0.4,1.5,0.3,2.9,1.7,3.6
	c1,0.5,2,0.9,3.1,1.2c4,1,8.2,1.2,12.3,1.3c2-0.2,4.1-0.4,6.1-0.6C22.3,33.3,20.5,30.8,20.5,27.8z M10.3,12.7
	c-0.1-0.6-0.3-1.3,0.6-1.6c0.1,0,0.1-0.3,0.2-0.5c0.4-0.8,0.6-1.7,1.1-2.4c0.7-1.1,1.8-1.3,3-0.7c2.5,1.3,4.9,2.5,7.4,3.8
	c0.6,0.3,1.3,0.9,1.8-0.2c0.6,0.6,0.6,1.1,0.5,1.7c-0.2,0.8-0.2,1.6-1.2,1.9c-0.1,0-0.2,0.3-0.2,0.4c-0.7,1.6-1.6,3.1-2.9,4.2
	c-1.9,1.6-4.3,1.5-6.1-0.2c-1.2-1.1-2.1-2.4-2.7-3.9c-0.1-0.3-0.4-0.5-0.6-0.8C10.7,14,10.4,13.3,10.3,12.7z"/>
<path class="st0" d="M27.8,21.8c-3.3,0-6,2.7-6,6c0,3.3,2.7,6,6,6c3.3,0,6-2.7,6-6C33.8,24.5,31.1,21.8,27.8,21.8z M30.9,28.5
	c0,0.3-0.2,0.5-0.5,0.5H29v1.4c0,0.3-0.2,0.5-0.5,0.5h-1.3c-0.3,0-0.5-0.2-0.5-0.5V29h-1.4c-0.3,0-0.5-0.2-0.5-0.5v-1.3
	c0-0.3,0.2-0.5,0.5-0.5h1.4v-1.4c0-0.3,0.2-0.5,0.5-0.5h1.3c0.3,0,0.5,0.2,0.5,0.5v1.4h1.4c0.3,0,0.5,0.2,0.5,0.5V28.5z"/>
</svg>
