<?xml version="1.0" encoding="utf-8"?>
<!-- Generator: Adobe Illustrator 22.0.0, SVG Export Plug-In . SVG Version: 6.00 Build 0)  -->
<svg version="1.1" id="Layer_1" xmlns="http://www.w3.org/2000/svg" xmlns:xlink="http://www.w3.org/1999/xlink" x="0px" y="0px"
	 viewBox="0 0 35.1 35.1" style="enable-background:new 0 0 35.1 35.1;" xml:space="preserve">
<style type="text/css">
	.st0{fill:#4B85E2;}
</style>
<g>
	<path class="st0" d="M6.9,18.1c-1.7-0.2-3-1.1-3.9-2.4c-0.6-0.9-0.3-1.6,0.7-1.9c0.4-0.1,0.9-0.2,1.3-0.2c1.1,0,1.1,0,2.1-0.6
		c0.1,0.5,0,0.9,0.2,1.3c0.1,0.2,0.3,0.4,0.6,0.5c1.3,0.3,2.5,0.7,3.8,0.9c4.9,0.6,9.7,0.6,14.6-0.4c0.7-0.2,1.5-0.5,2.2-0.8
		c-0.9-1-2.1-0.9-3.3-1.3c0.7-0.2,1.3-0.6,1.9-0.6c0.6,0,1.3,0.5,1.9,0.7c0.3,0.1,0.6,0.2,0.9,0.3c0.2,0,0.4,0,0.6,0
		c0.6,0,1.1,0.2,1.4,0.8c0.3,0.6,0.1,1.2-0.3,1.6c-0.7,0.6-1.4,1.2-2.2,1.7c-0.3,0.2-0.5,0.4-0.5,0.8c0,2,0,4.1,0,6.1
		c0,0.7,0,1.4-0.2,2.1c-0.1,0.4-0.5,0.9-0.9,1c-1.3,0.5-2.6,0.9-4,1.2c-3.6,0.5-7.2,0.5-10.8,0.1c-1.3-0.1-2.7-0.5-4-0.8
		c-0.6-0.1-1.1-0.5-1.5-0.9C7.2,27.1,7,26.8,7,26.5c-0.1-0.9-0.1-1.7-0.1-2.6C6.9,22,6.9,20.1,6.9,18.1z M9,16.5
		c0,0.1-0.1,0.2-0.1,0.3c0,2.8,0,5.7,0,8.5c0,0.1,0.1,0.4,0.2,0.4c0.8,0.4,1.7,0.5,2.6,0.5c0-3.1,0-6.1,0-9.2
		C10.8,16.8,9.9,16.7,9,16.5z M4.2,14.9c0,0-0.1,0.1-0.1,0.1c0.1,0.2,0.2,0.3,0.4,0.4c0.5,0.4,1,0.8,1.5,1c0.2,0.1,0.6,0.1,0.9,0.1
		c-0.1-0.4,0-0.9-0.2-1.2C6,14.7,5,15,4.2,14.9z M28.9,16.5c0.6-0.5,1.2-1,1.7-1.4C29.4,14.9,28.6,15.3,28.9,16.5z"/>
	<path class="st0" d="M14.7,8.9c-0.5-1.9-0.4-2.3,1.6-2.8c0.6-0.2,1.3-0.2,1.9-0.2c0.9,0,1.3,0.4,1.4,1.3c0,0.2,0,0.5,0.1,0.8
		c0.2,0,0.4,0,0.6,0c2.2-0.1,4.4,0.1,6.5,0.6C27.5,8.8,28,9,28.5,9.3c0.6,0.4,0.7,0.8,0.1,1.2c-0.5,0.4-1.1,0.8-1.7,1.1
		c-2.5,1.1-5.1,1.7-7.8,2.1c-2.9,0.5-5.8,0.8-8.8,0.5c-0.6-0.1-1.3-0.2-1.9-0.4c-0.7-0.2-0.8-0.7-0.3-1.3c0.8-1.2,2.1-1.8,3.3-2.4
		C12.5,9.7,13.6,9.3,14.7,8.9z M17.5,9.1c-1.2,0.1-5,1.4-6.6,2.4c-0.4,0.2-0.8,0.5-1.1,0.8C9.5,12.6,9.6,12.9,10,13
		c0.7,0.2,1.4,0.3,1.9-0.5c0.3-0.4,0.6-0.6,1-0.9C14.5,10.8,16.1,9.9,17.5,9.1z M18.6,8.2c0.1-1.1,0-1.2-1-1.1c-0.3,0-0.6,0.1-1,0.2
		c-1,0.2-1.1,0.4-0.5,1.3C16.9,8.4,17.7,8.3,18.6,8.2z"/>
	<path class="st0" d="M32.4,7.3C31.9,8,32,8.8,32.2,9.6c0.1,0.3,0.1,0.6,0.2,0.8c0.1,1.2-0.7,2.2-1.9,2.1c-0.8,0-1.6-0.2-2.4-0.4
		c0.7-0.1,1.5-0.2,2.2-0.3c0.5-0.1,0.8-0.4,0.9-0.8c0.1-0.7,0.2-1.5,0.1-2.2C31.3,8.1,31.6,7.6,32.4,7.3z"/>
	<path class="st0" d="M30.4,7.6c0,0.7-0.1,1.4,0,2.1c0.1,1.5-0.3,1.8-1.8,1.7c0.3-0.3,0.7-0.4,0.8-0.7c0.2-0.5,0.3-1.1,0.3-1.6
		C29.6,8.1,29.7,7.8,30.4,7.6z"/>
</g>
</svg>
