<?xml version="1.0" encoding="utf-8"?>
<!-- Generator: Adobe Illustrator 22.0.0, SVG Export Plug-In . SVG Version: 6.00 Build 0)  -->
<svg version="1.1" id="Layer_1" xmlns="http://www.w3.org/2000/svg" xmlns:xlink="http://www.w3.org/1999/xlink" x="0px" y="0px"
	 viewBox="0 0 35.1 35.1" style="enable-background:new 0 0 35.1 35.1;" xml:space="preserve">
<style type="text/css">
	.st0{fill:#4B85E2;}
</style>
<g>
	<path class="st0" d="M16.5,17.4c-2.1,4-2,7.9-0.1,11.8c-1.6,1-3.4,1.7-5.4,1.1c-2.5-0.7-4.2-2.7-4.6-5.3c-0.2-1.6-0.2-3.3,0.2-4.9
		c0.2-1-0.1-1.9-0.4-2.8c-0.2-0.7-0.4-1.4-0.7-2.1c-0.5-1.1,0-2.7,1.1-3.6c0.3-0.2,0.3-0.4,0.2-0.7C6,8.7,6.3,6.6,7.2,4.5
		c0.5,0.2,1,0.4,1.5,0.6c-1,1.8-1.3,3.6-0.9,5.7c0.2,0,0.4-0.1,0.6-0.1c1.6-0.3,2.9,0.3,3.7,1.7c0.7,1.2,1.4,2.3,2.3,3.4
		c0.4,0.5,1.1,0.9,1.6,1.4C16.2,17.2,16.4,17.3,16.5,17.4z M7.1,13.9c-0.1,0-0.1,0-0.2,0c0,0.4-0.1,0.8,0,1.2
		c0.2,0.7,0.5,1.4,0.7,2.1C8,18.3,8.4,19.4,8,20.6c-0.4,1.2-0.4,2.4-0.1,3.6c0.1,0.5,0.4,1,0.6,1.5c0.5-1.7,0.9-3.5,1.3-5.2
		c0.1-0.5,0.2-1,0.1-1.5C9.6,17,8.3,15.4,7.1,13.9z"/>
	<path class="st0" d="M23.1,18.2c-0.1,0.6-0.2,1.3-0.2,2c-0.1,0.4,0.1,0.5,0.5,0.6c1.2,0.3,2.3,0,3.2-0.7c0.8,0.4,1.6,0.8,2.4,1.2
		c0.2,0.8,0.1,1.7-0.2,2.6c-1.1,2.7-3.1,4.6-5.8,5.7c-0.7,0.3-1.5,0.5-2.2,0.7c-1.4,0.3-2.6-0.4-3.2-1.7c-1.3-3-1.5-6.1-0.1-9.1
		c0.6-1.5,1.7-2.6,3.3-3.1c0.3-0.1,0.5,0,0.7,0.2C21.9,17.1,22.5,17.6,23.1,18.2z M21.1,17.2c-1.8,0.3-3.1,1.9-3.4,3.9
		C18.8,19.8,19.9,18.5,21.1,17.2z M18.8,27.1c0.1,0.1,0.2,0.3,0.3,0.3c0.3,0.1,0.7-0.6,0.7-1c0-0.1-0.2-0.4-0.3-0.4
		C19.2,26,18.8,26.6,18.8,27.1z M24.1,23.2c0.1,0,0.2,0.2,0.3,0.2c0.3,0,0.7-0.6,0.7-1c0-0.1-0.2-0.3-0.3-0.3
		C24.5,22.1,24.1,22.6,24.1,23.2z M18.9,23.9c-0.2-0.3-0.4-0.6-0.5-0.6c-0.4,0.1-0.5,0.5-0.5,0.8c0,0.2,0.2,0.4,0.3,0.6
		C18.4,24.5,18.6,24.2,18.9,23.9z M23.9,26.1c-0.3-0.2-0.4-0.3-0.5-0.3c-0.3,0-0.8,0.5-0.8,0.9c0,0.1,0.2,0.2,0.3,0.3c0,0,0,0,0,0
		C23.2,26.7,23.5,26.5,23.9,26.1z M19.3,22.1c0.1,0,0.2,0.2,0.3,0.2c0.3,0,0.7-0.5,0.7-0.9c0-0.1-0.1-0.4-0.3-0.4
		C19.7,20.9,19.3,21.5,19.3,22.1z M20.3,29.1c0.5,0,1-0.5,1-0.8c0-0.1-0.2-0.3-0.4-0.3c-0.4,0-0.9,0.5-0.9,0.8
		C20.1,28.9,20.3,29,20.3,29.1z M26.2,25.5c-0.4,0-1,0.5-0.9,0.9c0,0.1,0.2,0.3,0.3,0.3c0.3,0,0.8-0.5,0.8-0.9
		C26.4,25.7,26.3,25.6,26.2,25.5z M26.7,23.4c0.1,0.1,0.2,0.3,0.3,0.3c0.3,0.1,0.6-0.5,0.6-0.9c0-0.2-0.1-0.4-0.3-0.5
		C27,22.2,26.7,22.8,26.7,23.4z M20.8,24.8c0.1,0,0.2,0.2,0.3,0.2c0.3,0,0.7-0.6,0.6-1c0-0.1-0.2-0.3-0.3-0.3
		C21.1,23.7,20.7,24.2,20.8,24.8z M20.7,20.1c0.1,0.1,0.1,0.2,0.3,0.3c0.3,0.1,0.8-0.5,0.8-0.8c0-0.1-0.1-0.3-0.2-0.4
		C21.3,19.1,20.8,19.6,20.7,20.1z"/>
	<path class="st0" d="M29.7,20.3c-1.5,0.1-2.4-0.6-3.2-1.7c-0.5,1.2-1.6,1.7-2.9,1.3c-0.1-0.9,0.1-1.4,1.1-2.4
		c-1.6,0.1-2.3-1-3.2-2.1c1.2-0.2,2.2-0.1,3.1,0.4c0.3-0.4,0.5-0.8,0.7-1.1c1.2,0.5,1.8,1.4,1.5,2.7C28.3,17.8,29.1,18.9,29.7,20.3z
		"/>
</g>
</svg>
