<?xml version="1.0" encoding="utf-8"?>
<!-- Generator: Adobe Illustrator 22.0.0, SVG Export Plug-In . SVG Version: 6.00 Build 0)  -->
<svg version="1.1" id="Layer_1" xmlns="http://www.w3.org/2000/svg" xmlns:xlink="http://www.w3.org/1999/xlink" x="0px" y="0px"
	 viewBox="0 0 35.1 35.1" style="enable-background:new 0 0 35.1 35.1;" xml:space="preserve">
<style type="text/css">
	.st0{fill:#4B85E2;}
</style>
<g>
	<path class="st0" d="M34,16.4c0.1-0.3,0.2-0.7,0.4-1c0-0.5,0-0.9,0-1.4c0,0-0.1,0-0.1-0.1c-0.2-1.7-1-3.1-2.1-4.3
		c-1.9-2.1-4.4-3.3-7.1-4.1c-2.2-0.7-4.5-1-6.9-1.1c-2.5-0.1-5,0.2-7.4,0.8C8.4,5.9,6.2,6.8,4.2,8.4c-1.7,1.4-3,3-3.4,5.3
		c-0.3,1.4-0.1,2.8,1,3.9C2,17.8,2.3,18,2.6,18.2c-0.5,1-0.4,1.9,0.3,2.7c-0.4,0.5-0.7,1.1-0.8,1.7c-0.1,0.6,0.1,1.2,0.4,1.8
		c-1.5,0.5-1.9,1.5-1.8,2.8c0,0.3,0.1,0.6,0.2,0.9c0.4,1.5,1.7,2.5,3.2,2.5c9,0,17.9,0,26.9,0c0.3,0,0.6,0,0.8-0.1
		c1.2-0.3,2-1.2,2.4-2.3c0.1-0.2,0.1-0.4,0.2-0.6c0-0.4,0-0.8,0-1.2c-0.1-0.3-0.2-0.7-0.4-1c-0.3-0.5-0.8-0.8-1.4-1
		c0.7-1.3,0.5-2.4-0.3-3.5c0.8-1,0.7-1.9,0.3-2.8C33.2,17.7,33.7,17.2,34,16.4z M32.8,27.6c-0.2,0.7-0.6,1.2-1.3,1.4
		c-0.2,0-0.3,0.1-0.5,0.1c-8.9,0-17.8,0-26.8,0c-1.3,0-2.3-1.4-1.9-2.7c0.1-0.2,0.3-0.4,0.5-0.5c0.4-0.1,0.8-0.2,1.2-0.2
		c4.9,0,9.9,0,14.8,0c0,0,0,0,0.1,0c0.3,0.2,0.6,0.4,0.9,0.7c0.2,0.2,0.3,0.4,0.5,0.6c0.4,0.4,0.8,0.4,1.2,0
		c0.4-0.4,0.7-0.7,1.1-1.1c0.1-0.1,0.2-0.2,0.4-0.2c2.8,0,5.7,0,8.5,0C32.7,25.9,33.1,26.4,32.8,27.6z M27.4,22.3
		c0.4-0.2,0.9-0.4,1.3-0.6c0.4-0.2,0.7-0.2,1.1-0.2c1.1,0,1.7,0.8,1.5,1.9c-0.3,0.6-0.8,0.9-1.4,0.9c-1.8,0-3.5,0-5.3,0
		c0,0,0,0-0.1,0C25.5,23.6,26.4,22.9,27.4,22.3z M21.7,24.7c-0.3,0.2-0.5,0.5-0.8,0.8c-1.9-1.8-4.2-2.9-6.6-3.9c0.6,0,1.2,0,1.8,0
		c2.1,0,4.3,0,6.4,0c1,0,2,0,3,0.1C24.2,22.5,22.9,23.6,21.7,24.7z M30.8,20c-0.1,0-0.3,0-0.4,0c-8.2,0-16.4,0-24.6,0
		c-0.1,0-0.2,0-0.2,0c-0.4,0-0.7,0-1.1,0c-0.4,0-0.7-0.3-0.7-0.6c0-0.4,0.3-0.6,0.7-0.6c0.4,0,0.7,0,1.1,0c0.1,0,0.2,0,0.3,0
		c8.2,0,16.3,0,24.5,0c0.1,0,0.2,0,0.4,0c0.3,0.1,0.5,0.3,0.5,0.6C31.3,19.6,31.1,19.9,30.8,20z M5,21.5c1.4,0,2.8,0,4.1,0
		c0.5,0,0.9,0.2,1.4,0.3c0.5,0.1,1,0.3,1.4,0.4c1.6,0.6,3.1,1.2,4.7,2c-0.2,0-0.2,0-0.3,0c-3.7,0-7.4,0-11.1,0
		c-0.2,0-0.3-0.1-0.5-0.1c-0.7-0.2-1.1-0.8-1-1.5C3.7,22.1,4.3,21.5,5,21.5z M32.3,16.3c-0.4,0.4-0.8,0.8-1.4,0.8
		c-0.1,0-0.1,0-0.2,0.1c-0.1,0-0.3,0.1-0.4,0.1c-8.5,0-16.9,0-25.4,0c-0.1,0-0.3,0-0.4-0.1c-0.4,0-0.8-0.2-1.2-0.4
		c-0.8-0.6-1.1-1.4-1-2.3c0.1-1.5,0.8-2.8,1.9-3.8c1.9-1.9,4.2-3,6.8-3.8c2.7-0.8,5.4-1,8.2-0.8c2.8,0.2,5.5,0.7,8.1,2
		c1.7,0.8,3.3,1.9,4.4,3.4c0.2,0.2,0.3,0.5,0.4,0.7l0,0c0,0,0,0,0,0.1c0.5,0.6,0.6,1.3,0.7,2C32.9,14.9,32.8,15.7,32.3,16.3z"/>
	<path class="st0" d="M11.1,11c-0.4,0-0.7,0.3-0.7,0.7c0,0.4,0.3,0.8,0.7,0.8c0.4,0,0.8-0.3,0.8-0.7C11.9,11.4,11.5,11,11.1,11z"/>
	<path class="st0" d="M24,11c-0.4,0-0.8,0.3-0.8,0.7c0,0.4,0.3,0.8,0.7,0.8c0.4,0,0.7-0.3,0.8-0.7C24.7,11.4,24.4,11.1,24,11z"/>
	<path class="st0" d="M17.5,8.9c-0.4,0-0.7,0.3-0.7,0.7c0,0.4,0.3,0.8,0.7,0.8c0.4,0,0.7-0.3,0.7-0.8C18.3,9.2,17.9,8.9,17.5,8.9z"
		/>
</g>
</svg>
