<?xml version="1.0" encoding="utf-8"?>
<!-- Generator: Adobe Illustrator 22.0.0, SVG Export Plug-In . SVG Version: 6.00 Build 0)  -->
<svg version="1.1" id="Layer_1" xmlns="http://www.w3.org/2000/svg" xmlns:xlink="http://www.w3.org/1999/xlink" x="0px" y="0px"
	 viewBox="0 0 31 31" style="enable-background:new 0 0 31 31;" xml:space="preserve">
<style type="text/css">
	.st0{fill:none;}
</style>
<g>
	<path d="M24.1,23.1c2-2.6,1.8-6.4-0.5-8.7c-2.6-2.6-6.8-2.6-9.4,0c-2.6,2.6-2.6,6.8,0,9.4c2.4,2.4,6.1,2.6,8.7,0.5l6.2,6.2l1.2-1.2
		L24.1,23.1z M22.7,22.9c-0.2,0.2-0.4,0.4-0.6,0.5c-2.1,1.5-5.1,1.4-7-0.5c-2.1-2.1-2.1-5.5,0-7.6c2.1-2.1,5.5-2.1,7.6,0
		c1.9,1.9,2.1,4.9,0.5,7C23.1,22.5,22.9,22.7,22.7,22.9z"/>
	<circle class="st0" cx="24.4" cy="9.5" r="2.1"/>
	<path d="M17.4,3.3v8c0,0.2,0,0.5,0,0.7c0.6-0.1,1.2-0.2,1.8-0.2c0-0.2,0-0.3,0-0.5v-8c0.4-0.3,0.7-0.8,0.7-1.3
		c0-0.9-0.7-1.6-1.6-1.6s-1.6,0.7-1.6,1.6C16.7,2.6,17,3.1,17.4,3.3z"/>
	<path d="M24.4,5.7c-2.1,0-3.9,1.7-3.9,3.9c0,1.3,0.6,2.4,1.5,3.1c0.3,0.1,0.6,0.3,0.9,0.5c0.2,0.1,0.4,0.1,0.6,0.2v0.3
		c0.2,0.1,0.3,0.3,0.4,0.4c0.6,0.6,1,1.2,1.3,1.9v-2.6c1.7-0.4,2.9-1.9,2.9-3.7C28.3,7.4,26.5,5.7,24.4,5.7z M24.4,11.6
		c-1.1,0-2.1-0.9-2.1-2.1s0.9-2.1,2.1-2.1c1.1,0,2.1,0.9,2.1,2.1S25.6,11.6,24.4,11.6z"/>
	<path d="M18.2,28.5h-1.7c-3,0-5.4-2.4-5.4-5.4v-4.6h0.6c0-0.6,0.2-1.2,0.4-1.8c0,0,0,0-0.1,0H8.5c-3,0-5.4-2.4-5.4-5.4v-8
		c0.4-0.3,0.7-0.8,0.7-1.3c0-0.9-0.7-1.6-1.6-1.6S0.7,1.2,0.7,2.1c0,0.5,0.2,0.9,0.6,1.2v8c0,4,3.2,7.2,7.2,7.2h0.8v4.6
		c0,4,3.2,7.2,7.2,7.2h1.7c2.5,0,4.7-1.3,6-3.3l-1.3-1.3C22,27.4,20.2,28.5,18.2,28.5z"/>
</g>
</svg>
