<?xml version="1.0" encoding="utf-8"?>
<!-- Generator: Adobe Illustrator 22.0.0, SVG Export Plug-In . SVG Version: 6.00 Build 0)  -->
<svg version="1.1" id="Layer_1" xmlns="http://www.w3.org/2000/svg" xmlns:xlink="http://www.w3.org/1999/xlink" x="0px" y="0px"
	 viewBox="0 0 31 31" style="enable-background:new 0 0 31 31;" xml:space="preserve">
<style type="text/css">
	.st0{fill:none;}
</style>
<g>
	<path d="M8.5,0.7C8,0.7,7.5,1.1,7.5,1.5v5.9c0,0.9-0.5,1.6-1.3,2V1.5c0-0.5-0.4-0.9-0.9-0.9S4.4,1,4.4,1.5v7.9
		c-0.8-0.3-1.3-1.1-1.3-2V1.5c0-0.5-0.4-0.9-0.9-0.9c-0.5,0-0.9,0.4-0.9,0.9v5.9c0,1.7,1.1,3.1,2.6,3.7v17.8c0,0.8,0.7,1.4,1.5,1.4
		s1.5-0.6,1.5-1.4V11.1c1.5-0.6,2.6-2,2.6-3.7V1.5C9.4,1.1,9,0.7,8.5,0.7z"/>
	<g>
		<path d="M17.9,19.2c0.7-1.1,1.7-2,2.9-2.5V8.7V0.7c-3.4,0-6.1,2.7-6.1,5.9v5.6c0,2.4,1.3,4.5,3.2,5.7V19.2z"/>
		<path d="M17.9,27.1v1.8c0,0.8,0.7,1.4,1.5,1.4c0.6,0,1-0.3,1.3-0.8C19.6,29,18.6,28.2,17.9,27.1z"/>
	</g>
	<path d="M23.9,17.3c-3.2,0-5.8,2.6-5.8,5.8c0,3.2,2.6,5.8,5.8,5.8c3.2,0,5.8-2.6,5.8-5.8C29.7,20,27.1,17.3,23.9,17.3z M27.5,23.2
		c0,0.7-0.6,1.2-1.2,1.2h-1.1v1.1c0,0.7-0.6,1.2-1.2,1.2s-1.2-0.6-1.2-1.2v-1.1h-1.1c-0.7,0-1.2-0.6-1.2-1.2v0
		c0-0.7,0.6-1.2,1.2-1.2h1.1v-1.1c0-0.7,0.6-1.2,1.2-1.2s1.2,0.6,1.2,1.2v1.1h1.1C27,21.9,27.5,22.5,27.5,23.2L27.5,23.2z"/>
</g>
</svg>
