<?xml version="1.0" encoding="utf-8"?>
<!-- Generator: Adobe Illustrator 22.0.0, SVG Export Plug-In . SVG Version: 6.00 Build 0)  -->
<svg version="1.1" id="Layer_1" xmlns="http://www.w3.org/2000/svg" xmlns:xlink="http://www.w3.org/1999/xlink" x="0px" y="0px"
	 viewBox="0 0 31 31" style="enable-background:new 0 0 31 31;" xml:space="preserve">
<style type="text/css">
	.st0{fill:none;}
</style>
<g>
	<g>
		<path d="M19.1,28.6c-0.1,0-0.1,0-0.2,0h-1.7c-3,0-5.4-2.4-5.4-5.4v-4.6h0.9c4,0,7.2-3.2,7.2-7.2v-8c0.4-0.3,0.7-0.8,0.7-1.3
			c0-0.9-0.7-1.6-1.6-1.6c-0.9,0-1.6,0.7-1.6,1.6c0,0.5,0.3,1,0.7,1.3v8c0,3-2.4,5.4-5.4,5.4H9.1c-3,0-5.4-2.4-5.4-5.4v-8
			c0.4-0.3,0.7-0.8,0.7-1.3c0-0.9-0.7-1.6-1.6-1.6C2,0.6,1.3,1.3,1.3,2.2c0,0.5,0.2,0.9,0.6,1.2v8c0,4,3.2,7.2,7.2,7.2H10v4.6
			c0,4,3.2,7.2,7.2,7.2h1.7c0.9,0,1.7-0.2,2.5-0.4C20.5,29.7,19.7,29.2,19.1,28.6z"/>
		<path d="M24.3,13.4v2.7c0.6,0,1.2,0.2,1.8,0.3v-3.1c1.7-0.4,2.9-1.9,2.9-3.7c0-2.1-1.7-3.9-3.9-3.9s-3.9,1.7-3.9,3.9
			C21.2,11.4,22.5,13,24.3,13.4z M25.1,7.5c1.1,0,2.1,0.9,2.1,2.1s-0.9,2.1-2.1,2.1S23,10.7,23,9.6S24,7.5,25.1,7.5z"/>
	</g>
	<path d="M23.8,17.4c-3.2,0-5.8,2.6-5.8,5.8c0,3.2,2.6,5.8,5.8,5.8c3.2,0,5.8-2.6,5.8-5.8C29.7,20,27,17.4,23.8,17.4z M27.4,23.2
		c0,0.7-0.6,1.2-1.2,1.2h-1.1v1.1c0,0.7-0.6,1.2-1.2,1.2c-0.7,0-1.2-0.6-1.2-1.2v-1.1h-1.1c-0.7,0-1.2-0.6-1.2-1.2v0
		c0-0.7,0.6-1.2,1.2-1.2h1.1v-1.1c0-0.7,0.6-1.2,1.2-1.2c0.7,0,1.2,0.6,1.2,1.2V22h1.1C26.9,22,27.4,22.5,27.4,23.2L27.4,23.2z"/>
</g>
</svg>
