<?xml version="1.0" encoding="utf-8"?>
<!-- Generator: Adobe Illustrator 22.0.0, SVG Export Plug-In . SVG Version: 6.00 Build 0)  -->
<svg version="1.1" id="Layer_1" xmlns="http://www.w3.org/2000/svg" xmlns:xlink="http://www.w3.org/1999/xlink" x="0px" y="0px"
	 viewBox="0 0 31 31" style="enable-background:new 0 0 31 31;" xml:space="preserve">
<style type="text/css">
	.st0{fill:none;}
</style>
<g>
	<path d="M8.6,0.5c-0.5,0-0.9,0.4-0.9,0.9v5.9c0,0.9-0.5,1.6-1.3,2V1.4c0-0.5-0.4-0.9-0.9-0.9C5,0.5,4.5,0.9,4.5,1.4v7.9
		C3.8,9,3.2,8.2,3.2,7.3V1.4c0-0.5-0.4-0.9-0.9-0.9S1.4,0.9,1.4,1.4v5.9C1.4,9,2.5,10.4,4,11v17.8c0,0.8,0.7,1.4,1.5,1.4
		c0.8,0,1.5-0.6,1.5-1.4V11c1.5-0.6,2.6-2,2.6-3.7V1.4C9.5,0.9,9.1,0.5,8.6,0.5z"/>
	<g>
		<path d="M21,12.4V8.6V0.5h0c-3.4,0-6.1,2.7-6.1,5.9V12c0,0.2,0,0.4,0,0.6C16.8,11.7,19,11.6,21,12.4z"/>
		<path d="M18.1,26.3v2.5c0,0.8,0.7,1.4,1.5,1.4c0.8,0,1.5-0.6,1.5-1.4v-3C20.1,26.1,19.1,26.3,18.1,26.3z"/>
	</g>
	<path d="M29.6,29.3l-6.2-6.2c2-2.6,1.8-6.4-0.5-8.7c-2.6-2.6-6.8-2.6-9.4,0c-2.6,2.6-2.6,6.8,0,9.4c2.4,2.4,6.1,2.6,8.7,0.5
		l6.2,6.2L29.6,29.3z M14.4,22.9c-2.1-2.1-2.1-5.5,0-7.6c2.1-2.1,5.5-2.1,7.6,0c1.9,1.9,2.1,4.9,0.5,7c-0.2,0.2-0.3,0.4-0.5,0.6
		c-0.2,0.2-0.4,0.4-0.6,0.5C19.2,25,16.3,24.8,14.4,22.9z"/>
</g>
</svg>
