<?xml version="1.0" encoding="utf-8"?>
<!-- Generator: Adobe Illustrator 22.0.0, SVG Export Plug-In . SVG Version: 6.00 Build 0)  -->
<svg version="1.1" id="Layer_1" xmlns="http://www.w3.org/2000/svg" xmlns:xlink="http://www.w3.org/1999/xlink" x="0px" y="0px"
	 viewBox="0 0 31 31" style="enable-background:new 0 0 31 31;" xml:space="preserve">
<style type="text/css">
	.st0{fill:none;}
</style>
<g>
	<path d="M19.7,9.9c-0.6-2-1.9-3.4-3.6-4c-1.4-0.5-3-0.5-4.5,0.2c0.3-2,1.5-2.8,1.6-2.9l-0.5-0.8l-0.5-0.8c-0.1,0-1,0.6-1.7,2
		c-0.2-0.7-0.7-1.4-1.4-1.9c-0.9-0.6-2-0.6-2.9-0.2c0,0.9,0.5,1.9,1.5,2.5c0.8,0.5,1.7,0.6,2.5,0.4c-0.2,0.5-0.3,1-0.4,1.7
		C8.3,5.4,6.7,5.3,5.2,5.9c-1.7,0.6-3,2.1-3.6,4c-0.6,1.9-0.5,4,0.3,6c1.5,4.1,5.4,6.4,8.7,5.4c0.5,0.2,1,0.2,1.6,0.2
		c2.9,0,5.9-2.2,7.2-5.7C20.2,13.9,20.3,11.8,19.7,9.9z M17.5,15.1c-1.2,3.1-4.1,5-6.4,4.1l-0.4-0.1l-0.4,0.1
		c-2.3,0.9-5.2-0.9-6.4-4.1c-0.6-1.6-0.7-3.2-0.2-4.6C4,9.2,4.9,8.2,6,7.8C7.2,7.3,8.7,7.6,10,8.6l0.6,0.5l0.6-0.5
		c1.3-1,2.8-1.3,4.1-0.8c1.1,0.4,1.9,1.4,2.3,2.7C18.1,11.9,18.1,13.6,17.5,15.1z"/>
	<path d="M23.9,18.1c-3.2,0-5.8,2.6-5.8,5.8c0,3.2,2.6,5.8,5.8,5.8c3.2,0,5.8-2.6,5.8-5.8C29.7,20.7,27.1,18.1,23.9,18.1z
		 M27.5,23.9c0,0.7-0.6,1.2-1.2,1.2h-1.1v1.1c0,0.7-0.6,1.2-1.2,1.2s-1.2-0.6-1.2-1.2v-1.1h-1.1c-0.7,0-1.2-0.6-1.2-1.2v0
		c0-0.7,0.6-1.2,1.2-1.2h1.1v-1.1c0-0.7,0.6-1.2,1.2-1.2s1.2,0.6,1.2,1.2v1.1h1.1C27,22.7,27.5,23.2,27.5,23.9L27.5,23.9z"/>
</g>
</svg>
