<?xml version="1.0" encoding="utf-8"?>
<!-- Generator: Adobe Illustrator 22.0.0, SVG Export Plug-In . SVG Version: 6.00 Build 0)  -->
<svg version="1.1" id="Layer_1" xmlns="http://www.w3.org/2000/svg" xmlns:xlink="http://www.w3.org/1999/xlink" x="0px" y="0px"
	 viewBox="0 0 31 31" style="enable-background:new 0 0 31 31;" xml:space="preserve">
<style type="text/css">
	.st0{fill:none;}
</style>
<g>
	<path d="M19.1,9.2c-0.6-2-1.9-3.4-3.6-4c-1.4-0.5-3-0.5-4.5,0.2c0.3-2,1.5-2.8,1.6-2.9L12,1.8L11.6,1c-0.1,0-1,0.6-1.7,2
		C9.7,2.3,9.2,1.6,8.5,1.1c-0.9-0.6-2-0.6-2.9-0.2c0,0.9,0.5,1.9,1.5,2.5C7.8,3.8,8.8,4,9.5,3.7c-0.2,0.5-0.3,1-0.4,1.7
		C7.6,4.7,6,4.6,4.6,5.2c-1.7,0.6-3,2.1-3.6,4c-0.6,1.9-0.5,4,0.3,6c1.5,4.1,5.4,6.4,8.7,5.4c0.5,0.2,1,0.2,1.6,0.2
		c0.1,0,0.3,0,0.4,0c-0.2-0.7-0.3-1.4-0.2-2.1c-0.5,0-0.9-0.1-1.3-0.2L10,18.4l-0.4,0.1c-2.3,0.9-5.2-0.9-6.4-4.1
		C2.6,12.9,2.5,11.3,3,9.8c0.4-1.3,1.2-2.3,2.3-2.7C6.6,6.7,8.1,7,9.4,8L10,8.5L10.7,8c1.3-1,2.8-1.3,4.1-0.8
		c1.1,0.4,1.9,1.4,2.3,2.7c0.2,0.7,0.3,1.4,0.3,2.1c0.7-0.2,1.4-0.2,2.1-0.2C19.4,10.9,19.3,10,19.1,9.2z"/>
	<path d="M30.4,29.2l-6.2-6.2c2-2.6,1.8-6.4-0.5-8.7c-2.6-2.6-6.8-2.6-9.4,0c-2.6,2.6-2.6,6.8,0,9.4c2.4,2.4,6.1,2.6,8.7,0.5
		l6.2,6.2L30.4,29.2z M15.2,22.8c-2.1-2.1-2.1-5.5,0-7.6c2.1-2.1,5.5-2.1,7.6,0c1.9,1.9,2.1,4.9,0.5,7c-0.2,0.2-0.3,0.4-0.5,0.6
		c-0.2,0.2-0.4,0.4-0.6,0.5C20,24.9,17.1,24.7,15.2,22.8z"/>
</g>
</svg>
