<?xml version="1.0" encoding="utf-8"?>
<!-- Generator: Adobe Illustrator 22.0.0, SVG Export Plug-In . SVG Version: 6.00 Build 0)  -->
<svg version="1.1" id="Layer_1" xmlns="http://www.w3.org/2000/svg" xmlns:xlink="http://www.w3.org/1999/xlink" x="0px" y="0px"
	 viewBox="0 0 31 31" style="enable-background:new 0 0 31 31;" xml:space="preserve">
<style type="text/css">
	.st0{fill:none;}
</style>
<g>
	<path d="M11.9,9.4c0.5-0.5,0.8-1.2,0.8-2c0-1.6-1.3-3-3-3c-1.6,0-3,1.3-3,3c0,0.8,0.3,1.5,0.8,2c-1.7,0.8-2.8,2.5-2.8,4.5h1.5
		c0-1.9,1.6-3.5,3.5-3.5c1.9,0,3.5,1.6,3.5,3.5h1.5C14.7,11.9,13.6,10.2,11.9,9.4z M8.3,7.4c0-0.8,0.7-1.5,1.5-1.5s1.5,0.7,1.5,1.5
		s-0.7,1.5-1.5,1.5S8.3,8.2,8.3,7.4z"/>
	<rect x="16" y="4.8" width="8.9" height="2.2"/>
	<rect x="16" y="8.3" width="6.5" height="1.3"/>
	<rect x="16" y="11.1" width="8.9" height="1.3"/>
	<rect x="16" y="13" width="8.9" height="1.3"/>
	<path d="M23.7,16.6c1.5,0,2.9,0.5,4.1,1.3V1.4H1.4V18h18.1C20.7,17.1,22.1,16.6,23.7,16.6z M2.9,2.9h23.4v13.6H2.9V2.9z"/>
	<path d="M23.7,17.9c-3.2,0-5.8,2.6-5.8,5.8s2.6,5.8,5.8,5.8c3.2,0,5.8-2.6,5.8-5.8S27,17.9,23.7,17.9z M26.1,25H25v1.1
		c0,0.7-0.6,1.2-1.2,1.2s-1.2-0.6-1.2-1.2V25h-1.1c-0.7,0-1.2-0.6-1.2-1.2s0.6-1.2,1.2-1.2h1.1v-1.1c0-0.7,0.6-1.2,1.2-1.2
		s1.2,0.6,1.2,1.2v1.1h1.1c0.7,0,1.2,0.6,1.2,1.2S26.8,25,26.1,25z"/>
</g>
</svg>
