<?xml version="1.0" encoding="utf-8"?>
<!-- Generator: Adobe Illustrator 22.0.0, SVG Export Plug-In . SVG Version: 6.00 Build 0)  -->
<svg version="1.1" id="Layer_1" xmlns="http://www.w3.org/2000/svg" xmlns:xlink="http://www.w3.org/1999/xlink" x="0px" y="0px"
	 viewBox="0 0 35.1 35.1" style="enable-background:new 0 0 35.1 35.1;" xml:space="preserve">
<style type="text/css">
	.st0{fill:#4B85E2;}
</style>
<path class="st0" d="M18.8,35.1c-4.1-0.1-8.3-0.2-12.3-1.3c-1.1-0.3-2.1-0.7-3.1-1.2c-1.4-0.7-2-2-1.7-3.6c0.5-2.2,1.4-4.3,3.4-5.8
	c0.6-0.4,1.2-0.8,1.9-0.9c1-0.2,1.5-0.8,1.7-1.7C8.9,19.4,9,18,9,16.6c0-1.5-0.3-3.1-0.4-4.6c-0.1-3.3,0.3-6.4,2.3-9.1
	c1-1.4,2.4-2.2,4-2.5c1.8-0.4,3.6-0.4,5.3,0c2.6,0.6,4.3,2.4,5.2,4.9c0.9,2.5,1.2,5.1,0.9,7.8c-0.3,2.4-0.5,4.8,0,7.2
	c0.1,0.5,0.3,1,0.6,1.5c0.1,0.2,0.4,0.5,0.7,0.5c2.8,0.5,4.2,2.4,5.2,4.8c0.2,0.6,0.4,1.1,0.6,1.7c0.5,1.8-0.1,3.2-1.7,4.1
	c-1.6,0.9-3.3,1.3-5.1,1.6C24,34.6,21.4,34.8,18.8,35.1z M24.4,11c-0.5,1.2-1.2,0.5-1.8,0.2c-2.5-1.3-4.9-2.5-7.4-3.8
	c-1.1-0.6-2.3-0.4-3,0.7c-0.5,0.7-0.7,1.6-1.1,2.4C11,10.7,11,11,10.9,11.1c-0.9,0.3-0.7,1-0.6,1.6c0.1,0.6,0.4,1.3,0.8,1.7
	c0.2,0.3,0.5,0.5,0.6,0.8c0.6,1.5,1.5,2.8,2.7,3.9c1.9,1.7,4.2,1.8,6.1,0.2c1.4-1.1,2.3-2.6,2.9-4.2c0.1-0.2,0.1-0.4,0.2-0.4
	c1-0.3,1-1.1,1.2-1.9C25,12.2,25,11.6,24.4,11z M21.9,19.9c-1.3,1.2-2.6,2-4.3,2c-1.7,0-3.1-0.8-4.4-2c-0.2,1-0.9,1.5-1.7,1.9
	c0.3,0.4,0.5,0.7,0.7,0.9c1.6,1.6,3.3,3.2,4.9,4.9c0.3,0.3,0.6,0.3,0.9,0c1.2-1.2,2.4-2.4,3.6-3.6c0.5-0.5,1.1-1.1,1.6-1.7
	c0.2-0.2,0.5-0.5,0-0.7C22.6,21.2,22.1,20.7,21.9,19.9z M26.4,29.9c0.5,0,0.9,0,1.2,0c0.6,0,0.8-0.2,0.8-0.8c0-1.7,0.1-1.5-1.5-1.5
	c-0.4,0-0.6-0.1-0.6-0.5c0-1.7,0.2-1.4-1.6-1.5c0,0,0,0-0.1,0c-0.4,0-0.6,0.2-0.6,0.6c0,0.5,0,0.9,0,1.4c-0.6,0-1.1-0.1-1.5,0
	c-0.9,0.2-0.4,0.9-0.5,1.4c-0.1,0.4-0.2,0.9,0.5,0.9c0.2,0,0.4,0,0.6,0c0.3,0,0.6,0,0.9,0c0,0.2,0,0.3,0,0.4c0,1.8-0.3,1.5,1.7,1.6
	c0.4,0,0.5-0.2,0.5-0.5C26.4,30.9,26.4,30.5,26.4,29.9z"/>
</svg>
