<?xml version="1.0" encoding="utf-8"?>
<!-- Generator: Adobe Illustrator 22.0.0, SVG Export Plug-In . SVG Version: 6.00 Build 0)  -->
<svg version="1.1" id="Layer_1" xmlns="http://www.w3.org/2000/svg" xmlns:xlink="http://www.w3.org/1999/xlink" x="0px" y="0px"
	 viewBox="0 0 35.1 35.1" style="enable-background:new 0 0 35.1 35.1;" xml:space="preserve">
<style type="text/css">
	.st0{fill:#4B85E2;}
</style>
<path class="st0" d="M29.7,0H5.4C2.4,0,0,2.5,0,5.5v17.6c0,3.1,2.4,5.5,5.4,5.5h12.7l1.9,6.4l4.1-6.4h5.7c3,0,5.4-2.5,5.4-5.5V5.5
	C35.1,2.5,32.7,0,29.7,0z M32,23.2c0,1.3-1,2.4-2.3,2.4H5.4c-1.3,0-2.3-1.1-2.3-2.4V5.5c0-1.3,1-2.4,2.3-2.4h24.3
	C31,3.2,32,4.2,32,5.5V23.2z"/>
</svg>
