<?xml version="1.0" encoding="utf-8"?>
<!-- Generator: Adobe Illustrator 22.0.0, SVG Export Plug-In . SVG Version: 6.00 Build 0)  -->
<svg version="1.1" id="Layer_1" xmlns="http://www.w3.org/2000/svg" xmlns:xlink="http://www.w3.org/1999/xlink" x="0px" y="0px"
	 viewBox="0 0 35.1 35.1" style="enable-background:new 0 0 35.1 35.1;" xml:space="preserve">
<style type="text/css">
	.st0{fill:#4B85E2;}
</style>
<path class="st0" d="M-0.1,5.4C0,5.1,0,4.8,0.1,4.5c0.3-1.2,1.1-2,2.2-2.6c1-0.5,2.1-0.8,3.2-0.9c0.1,0,0.3,0,0.4,0
	c0.3,0,0.4-0.1,0.6-0.3C7.2,0,8-0.2,8.9,0.2c0.8,0.4,1.3,1,1.3,1.9c0,0.9-0.4,1.6-1.2,2C8.1,4.6,7.3,4.5,6.6,3.9
	C6.5,3.8,6.4,3.8,6.3,3.8C5.6,3.9,4.9,3.9,4.2,4.2C3.9,4.3,3.6,4.5,3.4,4.6C3,4.9,2.9,5.2,2.8,5.7c0,1.2,0.1,2.4,0.3,3.6
	c0.3,1.4,0.6,2.8,1.3,4.1c0.6,1.2,1.3,2.2,2.3,3c0.5,0.4,1,0.7,1.6,0.9c0.1,0,0.2,0,0.2,0c0.4-0.4,1-0.6,1.6-0.6c0.9,0,1.9,0,2.8,0
	c0.6,0,1.2,0.2,1.7,0.6c0,0,0.2,0.1,0.2,0c1-0.3,1.9-1,2.6-1.8c0.9-1.1,1.5-2.3,2-3.6c0.5-1.5,0.8-3.1,0.9-4.7c0-0.5,0-1,0-1.6
	c0-0.4-0.2-0.7-0.5-1c-0.5-0.3-1-0.5-1.5-0.6c-0.5-0.1-0.9-0.2-1.4-0.2c-0.1,0-0.2,0-0.2,0.1c-0.7,0.5-1.4,0.7-2.2,0.4
	c-0.8-0.3-1.3-0.9-1.4-1.7c-0.2-0.9,0.3-1.9,1.2-2.3c0.9-0.4,1.9-0.3,2.6,0.4c0.1,0.1,0.2,0.1,0.3,0.2c1.3,0.1,2.5,0.4,3.6,0.9
	c1,0.5,1.8,1.3,2.3,2.4c0.2,0.5,0.3,1,0.3,1.6c0,3.2-0.6,6.3-2.1,9.2c-0.7,1.5-1.7,2.8-3,3.8c-0.9,0.7-1.9,1.2-3,1.4
	c-0.1,0-0.2,0.1-0.2,0.2c-0.2,0.7-0.4,1.5-0.8,2.1c-0.3,0.4-0.6,0.7-1,0.9c0,0-0.1,0.1-0.1,0.2c0,1.7,0,3.5,0,5.2
	c0,1.6,1.3,3,2.9,3.3c2.1,0.4,4-1,4.4-3.1c0-0.2,0-0.4,0-0.6c0-1.4,0-2.7,0-4.1c0.1-2.5,1.3-4.3,3.6-5.2c3.1-1.3,6.5,0.2,7.8,3.3
	c0.3,0.7,0.4,1.4,0.4,2.1c0,0.6,0,1.2,0,1.8c0,0.1,0,0.2,0.2,0.2c1.5,0.6,2.5,1.8,2.7,3.4c0.4,2.3-1.1,4.4-3.4,4.9
	c-0.2,0-0.4,0.1-0.6,0.1c-0.3,0-0.5,0-0.8,0c-0.1,0-0.2,0-0.4-0.1c-2.8-0.5-4.4-3.5-3.3-6c0.5-1.1,1.3-1.9,2.4-2.4
	c0.1,0,0.2,0,0.2-0.2c0-0.8,0-1.6,0-2.3c-0.1-1.6-1.8-2.8-3.4-2.5c-1.5,0.3-2.5,1.4-2.5,2.9c0,1.2,0,2.4,0,3.6c0,0.4,0,0.9-0.1,1.3
	c-0.4,2.6-2.4,4.9-5,5.5C18,35,17.6,35,17.3,35.1c-0.3,0-0.6,0-0.9,0c0,0-0.1,0-0.1,0c-1-0.1-1.9-0.4-2.8-0.9
	c-2.1-1.3-3.2-3.1-3.3-5.5c0-1.7,0-3.3,0-5c0-0.1,0-0.1,0-0.2c-0.6-0.2-0.9-0.6-1.2-1c-0.4-0.6-0.6-1.3-0.7-1.9
	c0-0.2-0.1-0.2-0.3-0.3c-0.8-0.2-1.6-0.5-2.4-1c-1.4-0.9-2.4-2.1-3.2-3.5C0.9,13.2,0.2,10.4,0,7.5c0-0.3,0-0.6-0.1-0.9
	C-0.1,6.3-0.1,5.8-0.1,5.4z M32.3,30.7c0-0.8-0.7-1.5-1.5-1.5c-0.8,0-1.5,0.6-1.5,1.5c0,0.8,0.7,1.5,1.5,1.5
	C31.6,32.2,32.3,31.5,32.3,30.7z"/>
</svg>
