<?xml version="1.0" encoding="utf-8"?>
<!-- Generator: Adobe Illustrator 22.0.0, SVG Export Plug-In . SVG Version: 6.00 Build 0)  -->
<svg version="1.1" id="Layer_1" xmlns="http://www.w3.org/2000/svg" xmlns:xlink="http://www.w3.org/1999/xlink" x="0px" y="0px"
	 viewBox="0 0 35.1 35.1" style="enable-background:new 0 0 35.1 35.1;" xml:space="preserve">
<style type="text/css">
	.st0{fill:#4B85E2;}
</style>
<g>
	<path class="st0" d="M31.2,28.3c-7.7-1.7-15.3-3.5-23-5.2c0-0.2,0-0.4,0-0.6c0-3.8,0-7.7,0-11.5c0-0.4,0.1-0.6,0.5-0.7
		c1.9-0.5,3.7-1.1,5.6-1.7c0.3-0.1,0.5-0.1,0.7,0.2c2.3,3.3,6.6,4,10.1,1.8c0.3-0.2,0.5-0.2,0.7,0.1c1.7,1.4,3.4,2.7,5,4.1
		c0.2,0.2,0.4,0.5,0.4,0.7c0,4.1,0,8.3,0,12.4C31.2,28.1,31.2,28.2,31.2,28.3z M9.8,21.9c6.6,1.5,13.2,3,19.9,4.5c0-2.6,0-5.1,0-7.6
		c-0.2,0.2-0.4,0.3-0.5,0.4c-0.4,0.5-0.9,0.6-1.5,0.6c-1,0-1.8-0.4-2.5-1c-0.7-0.5-1.5-0.9-2.3-1.3c-1-0.4-1.4-0.1-1.4,1
		c0,0.5,0.1,1.1,0,1.6c-0.1,0.8-0.6,1.3-1.2,1.3c-1.1,0-1.9-1-1.7-2c0.1-0.7,0.3-1.3,0.3-2c0-1-0.7-1.5-1.7-1.1
		c-0.4,0.2-0.9,0.4-1.3,0.6c-1.1,0.4-2.2,0.1-2.7-0.8c-0.4-0.8-1.2-1.1-2.1-1c-0.3,0-0.7,0.1-1.1,0.1C9.8,17.5,9.8,19.6,9.8,21.9z
		 M10.8,11.4c0.3,0.7,0.8,0.7,1.2,0.8c2.6,0.7,5.3,1.4,7.9,2c2.9,0.6,5.9,1,8.9,1.4c0.2,0,0.5-0.1,0.8-0.1c0-0.1,0-0.2,0-0.2
		c-0.3-0.2-0.6-0.4-0.9-0.5c-0.7-0.2-1.5-0.3-2.3-0.5c-4.8-1.3-9.7-2.1-14.7-2.9C11.6,11.2,11.2,11.3,10.8,11.4z"/>
	<path class="st0" d="M5.9,26.3c-0.4,0-0.7,0-1.1,0c-0.8,0-1.1-0.4-0.9-1.2c0.1-0.3,0.2-0.5,0.2-0.8c0.3-0.9,0.3-0.9,1.2-0.9
		c2.4,0,4.7,0.6,7,1.5c0.9,0.4,1.8,0.8,2.7,1.2c0.2,0.1,0.6,0.1,0.8,0c1.8-0.6,3.7-0.7,5.3,0.6c1.4,1.1,1.4,2.6,0.1,3.9
		c-1.4,1.3-2.9,1.5-4.7,1.1c-1.5-0.4-2.3-1.5-2.3-3.1c0-0.4-0.1-0.5-0.4-0.7C11.5,27,8.5,26.4,5.9,26.3z M18.1,26.8
		c-0.5,0.1-1,0.1-1.5,0.2c-1.1,0.3-1.3,1-0.5,1.9c0.9,1,3.5,1.3,4.6,0.5c0.5-0.3,0.6-0.7,0.3-1.2c-0.2-0.3-0.4-0.5-0.7-0.7
		C19.7,27,18.9,26.9,18.1,26.8z M5.1,25.2c2.5-0.1,4.9,0.3,7.2,1c-2.1-0.9-4.2-1.5-6.5-1.7C5.3,24.5,5.1,24.6,5.1,25.2z"/>
	<path class="st0" d="M14.8,6.7c0.5-0.1,0.9-0.3,1.3-0.4c0.5,1.5,1.4,2.7,3,3.4c1.3,0.5,2.5,0.4,3.8,0c2.4-0.8,3.8-3.3,3.4-6.2
		c0.2,0,0.4-0.1,0.6-0.1c0.2,0,0.4-0.1,0.7-0.1c0.4,2.4-0.1,4.5-1.9,6.2c-2,1.9-4.3,2.4-6.9,1.6C16.8,10.4,15.5,8.8,14.8,6.7z"/>
	<path class="st0" d="M21,5c-0.7,1-1.4,1.9-2.1,2.9c-0.1,0.2-0.3,0.4-0.4,0.6c-0.8-0.6-1.3-1.3-1.6-2.3C18.3,5.7,19.7,5.4,21,5L21,5
		z"/>
	<path class="st0" d="M25.4,3.7c0.3,0.9,0.3,2-0.2,2.8c-1.3-0.5-2.5-1-3.9-1.6C22.7,4.5,24,4.1,25.4,3.7z"/>
	<path class="st0" d="M24.9,7.2C24.4,8,23.7,8.7,22.7,9c-0.5-1.3-1-2.6-1.5-4C22.5,5.8,23.7,6.5,24.9,7.2z"/>
	<path class="st0" d="M21,5c0.3,1.4,0.7,2.8,1,4.1c-0.7,0.3-1.9,0.2-2.8-0.3c0.5-1,1-2,1.5-3.1C20.9,5.5,20.9,5.2,21,5
		C21,5,21,5,21,5z"/>
</g>
</svg>
